<svg xmlns="http://www.w3.org/2000/svg" style="display: none;">
  
    <symbol id="ion-p-t-shirt" viewBox="0 0 512 512">
      <path d="m500 103l-80-64c-6-5-13-7-20-7l-288 0c-7 0-14 2-20 7l-80 64c-10 8-15 22-10 35l32 96c3 10 10 17 20 20c3 1 7 2 10 2c6 0 11-1 16-4l0 196c0 18 14 32 32 32l288 0c18 0 32-14 32-32l0-196c5 3 10 4 16 4c4 0 7-1 10-2c10-3 17-10 20-20l32-96c5-13 0-27-10-35z m-184-39c-9 19-32 32-60 32c-28 0-51-13-60-32z m132 160l-48-32l0 256l-288 0l0-256l-48 32l-32-96l80-64l67 0c9 28 40 48 77 48c37 0 68-20 77-48l67 0l80 64z"/>
    </symbol>
  
    <symbol id="ion-p-shorts" viewBox="0 0 512 512">
      <path d="m21 64l0 363l192 0l0 42l278 0l0-405z m214 320l-171 0l0-21l171 0z m213 43l-192 0l0-22l192 0z m0-299l-21 0l0 21l21 0l0 235l-192 0l0-128l-21 0l0 85l-171 0l0-107c16-2 58-8 58-43l-58 39l0-123l384 0z m-6 106l-64-43c0 43 64 43 64 43z m-37-106l-21 0l0 21l21 0z m-42 0l-22 0l0 21l22 0z m-43 0l-21 0l0 21l21 0z m-43 0l-21 0l0 21l21 0z m-42 0l-22 0l0 21l22 0z m-43 0l-21 0l0 21l21 0z m-43 0l-21 0l0 21l21 0z m-42 0l-22 0l0 21l22 0z"/>
    </symbol>
  
    <symbol id="ion-p-bra" viewBox="0 0 512 512">
      <path d="m379 423c-52 0-100-30-110-37l-25 0c-15 10-104 66-173 18-26-18-40-44-44-77l-20 0c-4 0-7-3-7-7 0-4 3-8 7-8l20 0c0-2 0-5 0-8 2-33 12-59 13-60 1-2 2-3 4-4 1 0 8-3 21-4l0-140c0-4 3-7 7-7 4 0 7 3 7 7l0 140c21 0 51 7 88 27 62 36 77 90 81 109l17 0c4-19 19-73 81-109 36-20 66-27 88-27l0-140c0-4 3-7 7-7 4 0 7 3 7 7l0 140c13 1 20 4 21 4 2 1 3 2 4 4 0 1 11 27 13 60 0 3 0 6 0 9l19 0c4 0 7 3 7 7 0 4-3 7-7 7l-20 0c-3 33-18 59-43 77-20 14-42 19-63 19z m-100-48c18 12 97 57 155 17l4 6-4-6c59-40 33-123 27-140-11-3-50-9-108 24-58 33-71 85-74 99z m-227-123c-6 17-32 100 27 140 17 12 36 16 55 16 44 0 87-25 100-33-3-14-16-66-74-99-38-22-68-27-87-26-1 0-1 0-1 0-10 0-17 1-20 2z m80 142c-16 0-36-4-53-21-31-31-21-91-21-94 1-3 4-6 8-5 4 0 7 4 6 8 0 0-9 55 17 81 25 25 62 14 62 14 4-1 8 1 9 5 1 4-1 7-5 9-1 0-10 3-23 3z"/>
    </symbol>
  
    <symbol id="ion-p-buying-dress" viewBox="0 0 512 512">
      <path d="m448 283c11-10 11-27 1-38l-71-72c-13-14-33-24-54-24-11 0-20 3-29 6l-125 0c0 0 0 0 0 0-15 0-27 12-27 27 0 6 3 13 7 18-7 2-12 8-12 16 0 2 2 4 5 4 2 0 4-2 4-4 0-5 4-9 9-9 4 0 8 4 8 9 0 5-4 9-8 9-3 0-5 2-5 4l0 15c-6-2-11-6-13-12 0-1-1-2-2-3-1 0-2-1-3 0-8 3-15 7-21 13-1 1-2 2-1 3 0 1 0 2 0 3-6 1-11 7-11 13 0 3 2 5 4 5 3 0 5-2 5-5 0-2 2-5 5-5l4 0c0 1 0 3 0 4 0 7-6 14-14 14-1 0-2 0-3-1-3 0-5 1-6 3l-39 134c0 2 0 3 1 4 0 1 2 2 3 2l191 0c2 0 3-1 4-2 1-1 1-2 0-4l-9-33 11 0 0 105c0 16 14 30 31 30 16 0 30-14 30-30l0-105 11 0 0 105c0 16 14 30 31 30 16 0 30-14 30-30l0-105 48 0c2 0 3-1 4-2 1-1 1-2 0-4l-24-83c4 1 8 2 12 2 6 0 13-2 18-7z m-66-86l44 150-189 0-8-27 12-40 117 0c2 0 4-2 4-5 0-2-2-4-4-4l-114 0 21-74c6-22 31-39 59-39 27 0 52 17 58 39z m-212-33c0 0 0 0 0 0l109 0c-11 8-19 19-22 31l-2 5-85-1c-5 0-10-1-13-5-3-3-5-8-5-12 0-10 8-18 18-18z m3 52c0-3-1-5-2-8l82 0-29 96-8-28c0-2-3-3-5-3-1 1-2 1-3 1-8 0-14-7-14-14 0-1 0-3 0-4l4 0c2 0 5 3 5 5 0 3 2 5 4 5 3 0 5-2 5-5 0-6-5-12-12-13 1-1 1-2 1-2 0-2 0-3-1-4-6-5-13-10-21-13-1-1-3 0-4 0-1 1-2 2-2 3-2 6-7 10-13 12l0-11c8-2 13-9 13-17z m-107 191l5-17 100 0c2 0 4-2 4-4 0-3-2-5-4-5l-97 0 1-6 26 0c2 0 4-2 4-4 0-3-2-5-4-5l-23 0 25-84c0 1 1 1 1 1 13 0 23-11 23-23 0-6-2-11-5-15 3-2 6-4 10-6 4 9 14 14 24 14 10 0 19-5 24-14 3 2 7 4 10 6-3 4-5 9-5 15 0 12 10 23 23 23 0 0 0 0 1 0l36 124z m243 75c0 12-10 21-21 21-3 0-5 0-7-1l0-71c0-3-2-5-4-5-3 0-4 2-4 5l0 66c-4-4-7-9-7-15l0-105 43 0z m72 0c0 8-4 15-11 19l0-75c0-2-2-4-5-4-2 0-4 2-4 4l0 76c0 1 0 1 0 1 0 0-1 0-1 0-12 0-22-9-22-21l0-105 43 0z m-138-114l-3-12 189 0 3 12z m174-92l-3-3-22-74 50 52c7 7 7 19 0 25-7 7-18 7-25 0z m-183-153c1 0 36-2 51 9 0 1 0 1 0 1 11 8 24 14 39 14 14 0 27-6 38-14 0 0 0 0 0 0 16-12 56-10 56-10 2 1 5-1 5-3 6-38-8-71-42-94-24-18-50-24-52-25-3 0-7-1-10-1-9 0-14 4-19 8-2-1-5-1-8-1-7 0-13 3-18 7-2 2-15 14-28 32-17 25-22 51-16 74 0 2 2 4 4 3z m38-37c0-14 6-27 16-37 16 15 48 42 85 51-6 22-26 38-49 38-29 0-52-23-52-52z m7-65c1 0 1 0 1 0 3-3 7-5 12-5 3 0 5 0 8 2 2 1 4 0 5-2l0 0c5-5 9-7 14-7 2 0 6 0 8 1 0 0 0 0 0 0 0 0 26 6 49 23 30 21 43 48 39 81-8 0-25 0-40 4 3-5 5-10 7-16 5 1 10 2 15 2 0 0 0 0 1 0 2 0 4-2 4-5 0-2-2-4-4-4-59-2-112-61-113-62-2-2-4-2-6 0-2 1-2 4-1 6 1 0 2 2 4 4-12 11-19 27-19 43 0 12 3 22 9 32-13-4-28-4-35-4-9-49 42-93 42-93z m-77 365c0 2 2 4 4 4l11 0c2 0 4-2 4-4 0-3-2-5-4-5l-11 0c-2 0-4 2-4 5z"/>
    </symbol>
  
    <symbol id="ion-p-clothes-store-hanger" viewBox="0 0 512 512">
      <path d="m499 345c-64-51-144-78-226-81l0-28c28-8 49-34 49-64 0-37-29-66-66-66-37 0-66 29-66 66 0 9 7 17 17 17 9 0 17-8 17-17 0-18 14-32 32-32 18 0 32 14 32 32 0 17-14 32-32 32-9 0-17 7-17 17l0 43c-82 3-162 30-226 81-15 12-17 34-5 49 12 14 33 17 48 5 110-89 290-89 400 0 6 5 14 7 22 7 10 0 20-4 26-12 12-15 10-37-5-49z"/>
    </symbol>
  
    <symbol id="ion-p-dark-pants" viewBox="0 0 512 512">
      <path d="m404 0l-147 0 0 118 10-6c4-2 6-6 6-11l0-77c0-5 5-9 10-9 5 0 9 4 9 9l0 77c0 11-6 22-15 28l-24 14c-2 1-3 1-5 1-2 0-3 0-5-1-3-2-4-5-4-8l0-135-131 0c-5 0-10 4-10 9l0 494c0 5 5 9 10 9l115 0c6 0 10-4 10-9l0-321c0-13 10-23 23-23 13 0 23 10 23 23l0 321c0 5 4 9 10 9l115 0c5 0 10-4 10-9l0-494c0-5-5-9-10-9z m-240 72c-8 8-18 13-30 15l0 392c0 6-4 10-9 10-5 0-10-4-10-10l0-401c0-5 5-10 10-10 11 0 19-3 25-9 10-11 10-28 10-28 0-6 4-10 9-10 5-1 10 4 10 9 0 1 1 25-15 42z m235 407c0 6-5 10-10 10-5 0-9-4-9-10l0-392c-12-2-22-7-30-15-16-17-15-41-15-42 0-5 5-10 10-9 5 0 9 4 9 10 0 0-1 17 10 28 6 6 14 9 25 9 5 0 10 5 10 10z"/>
    </symbol>
  
    <symbol id="ion-p-dress" viewBox="0 0 512 512">
      <path d="m427 498c-15-59-58-233-58-233 0-25-2-44-7-59-7-24-20-33-33-36l0-27 51 0c6 0 11-5 11-11 0-6-5-11-11-11l-114 0 0-19c23-6 40-26 40-51 0-28-23-51-51-51-28 0-51 23-51 51 0 6 5 11 11 11 6 0 11-5 11-11 0-16 13-29 29-29 16 0 30 13 30 29 0 17-14 30-30 30-6 0-11 5-11 11l0 29-112 0c-6 0-11 5-11 11 0 6 5 11 11 11l50 0 0 27c-12 3-25 13-32 36-5 15-7 34-7 58l-59 234c0 4 0 7 2 10 3 2 6 4 9 4l322 0c0 0 0 0 0 0 6 0 11-5 11-11 0-1 0-2-1-3z m-80-243l-79 0c5-30 28-65 51-65 21 0 27 34 28 65z m-39-112l0 27c-16 4-30 15-42 33-4 6-7 11-10 17-3-6-6-11-10-17-12-18-27-30-42-33l0-27z m-115 47c23 0 47 35 51 65l-79 0c1-31 7-65 28-65z m-84 300l53-213 188 0 53 213z"/>
    </symbol>
  
    <symbol id="ion-p-hanger-with-trousers" viewBox="0 0 512 512">
      <path d="m423 169c0 0 0 0 0 0l-153-78 4-3c3-1 5-5 3-8-2-3-5-5-9-3l-6 3 0-11c0-2 2-5 5-6 0 0 0 0 0 0 11-6 19-17 19-30 0-18-15-33-34-33-18 0-33 15-33 33 0 4 3 7 7 7 3 0 6-3 6-7 0-11 9-20 20-20 12 0 21 9 21 20 0 8-5 15-12 18 0 1 0 1 0 1-7 3-11 10-11 17l0 11-6-3c-4-2-7 0-9 3-2 3 0 7 3 8l4 3-153 78c0 0 0 0 0 0-7 5-12 13-12 21 0 16 13 29 29 29l10 0-25 111c0 1 0 1 0 2l0 174c0 3 2 6 6 6l164 0c3 0 6-3 6-6l0-40 29 0c4 0 7-3 7-7l0-37c0-3-3-6-7-6l0 0 0-197 110 0c16 0 29-13 29-29 0-8-5-16-12-21z m-300 330l-20 0 0-20 20 0z m71 0l-58 0 0-20 58 0z m60 0l-47 0 0-20 47 0z m0-33l-151 0 0-133 26-115c3-10 12-17 23-17l111 0c-5 6-9 13-9 22z m36-13l-23 0 0-24 23 0z m-23-37l0-186 17 16 0 170z m139-210l-110 0 0-12c0-3-2-6-6-6l-138 0c-14 0-25 7-32 18l-14 0c-9 0-16-7-16-16 0-4 2-8 6-10l160-82 160 82c4 2 6 6 6 10 0 9-7 16-16 16z m-195 147l-59 0c-12 0-21 9-21 21l0 62c0 3 3 6 6 6l88 0c4 0 7-3 7-6l0-62c0-12-10-21-21-21z m-59 76l29-19 29 19z m67-9c0 0-1 0-1-1l-33-22c-2-2-5-2-7 0l-34 22c0 1 0 1 0 1l0-46c0-5 3-8 8-8l59 0c4 0 8 3 8 8z"/>
    </symbol>
  
    <symbol id="ion-p-leather-jacket" viewBox="0 0 512 512">
      <path d="m185 466c0-6 5-11 11-11l3 0c6 0 11 5 11 11 0 6-5 11-11 11l-3 0c-6 0-11-5-11-11z m56 11l3 0c6 0 11-5 11-11 0-6-5-11-11-11l-3 0c-6 0-11 5-11 11 0 6 5 11 11 11z m271-324l0 290c0 6-5 11-11 11l-61 0c-7 0-12-5-12-11l-10-261-9-18-7 0-22 152 21 104c6 0 10 5 10 11l0 70c0 6-5 11-11 11l-288 0c-6 0-11-5-11-11l0-70c0-6 4-11 10-11l21-104-22-152-7 0-9 18-10 261c0 6-5 11-12 11l-61 0c-6 0-11-5-11-11l0-290c0-2 0-4 1-5l60-116c2-4 6-6 10-6l21 0-6-8c-2-4-2-8 0-12 2-4 6-6 10-6l77 0c2 0 5 1 7 2 19 15 47 23 76 23 29 0 57-8 76-23 2-1 5-2 7-2l77 0c4 0 8 2 10 6 2 4 2 8 0 12l-6 8 21 0c4 0 8 2 10 6l60 116c1 1 1 3 1 5z m-238-31l49 0 0-34c0-7 5-12 11-12l26 0 35-53-50 0z m-66-81l48 68 48-68c-15 4-31 7-48 7-17 0-33-3-48-7z m-91-18l5 8c0 0 0 0 0 0l30 45 26 0c6 0 11 5 11 12l0 34 49 0-71-99-50 0z m158 419l-152 0 0 47 152 0z m0-244l-26-53-71 0c-7 0-12-5-12-11l0-35-20 0c-4 0-8-2-10-5l-29-46-29 0-55 108 0 275 39 0 10-253c0-1 0-3 1-4l13-26c2-4 6-6 10-6l24 0c6 0 11 4 11 9l24 164c0 1 0 3 0 4l0 1 16-24c3-5 10-6 15-2 5 3 7 10 3 15l-45 65c0 1-1 1-1 2l-9 44 141 0 0-222z m23 244l0 47 91 0 0-47z m191-286l-55-108-29 0-29 46c-2 3-6 5-10 5l-20 0 0 35c0 6-5 11-12 11l-60 0 23 45c0 2 1 3 1 5l0 225 80 0-10-47-44-64c-3-5-2-12 3-15 5-4 12-3 16 2l14 21c0 0 0-1 0-2l24-164c0-5 5-9 11-9l24 0c4 0 8 2 10 6l13 26c1 1 1 3 1 4l10 253 39 0 0-275z m-21 263c7 0 12-5 12-11l0-3c0-6-5-11-12-11-6 0-11 5-11 11l0 3c0 6 5 11 11 11z m-425-25c-6 0-12 5-12 11l0 3c0 6 6 11 12 11 6 0 11-5 11-11l0-3c0-6-5-11-11-11z m108 83l2 0c7 0 12-5 12-11 0-6-5-11-12-11l-2 0c-6 0-11 5-11 11 0 6 5 11 11 11z m169 0l3 0c6 0 11-5 11-11 0-6-5-11-11-11l-3 0c-6 0-11 5-11 11 0 6 5 11 11 11z m-114-313c-5 2-8 9-5 15l36 68c2 4 6 6 10 6 2 0 4 0 6-1 5-3 7-10 4-16l-36-68c-3-5-9-7-15-4z m159 313l3 0c6 0 11-5 11-11 0-6-5-11-11-11l-3 0c-6 0-11 5-11 11 0 6 5 11 11 11z m-154-252c-2-5-9-8-15-5-5 3-7 10-5 16l37 68c2 4 5 6 10 6 1 0 3-1 5-1 5-3 7-10 5-16z"/>
    </symbol>
  
    <symbol id="ion-p-long-pants" viewBox="0 0 512 512">
      <path d="m405 512l-133 0c-4 0-8-3-8-7l0-312-19 0 0 312c0 4-3 7-7 7l-131 0c-4 0-8-3-8-7l0-449c0-10 6-19 13-24l0-25c0-4 3-7 7-7l277 0c4 0 7 3 7 7l0 27c6 5 10 13 10 22l0 449c0 4-4 7-8 7z m-126-14l119 0 0-379-4 0c-34 0-61-27-61-61l0-17-40 0 0 85c0 11-7 21-16 26l-14 7 0 19 9 0c4 0 7 4 7 8z m-165 0l117 0 0-313c0-1 1-3 2-5 1-1 3-2 5-2 0 0 0 0 0 0l11 0 0-137-70 0 0 17c0 34-27 61-61 61l-4 0z m149-457l0 101 7-3c5-3 8-7 8-13l0-85z m84 0l0 17c0 26 21 47 47 47l4 0 0-49c0-8-6-15-14-15z m-233 64l4 0c26 0 47-21 47-47l0-17-37 0c-8 0-14 7-14 15z m226-78l48 0 0-13-261 0 0 13z"/>
    </symbol>
  
    <symbol id="ion-p-men-clothes" viewBox="0 0 512 512">
      <path d="m425 105l11-36c6-19-2-41-19-53l-14-9c-5-3-14-7-24-7-5 0-247 0-247 0-8 0-16 2-23 7l-14 9c-18 12-25 34-19 53l11 36c-22 2-40 20-40 43l0 321c0 24 19 43 43 43l133 0 9-179-26-26c-5-5-5-13 0-18l41-40c5-5 13-5 18 0l40 40c3 3 4 6 4 9 0 4-1 7-4 9l-25 26 9 179 133 0c23 0 42-19 42-43l0-321c1-23-17-41-39-43z m-22-46l-51 165c-1 4-5 7-9 8-1 1-2 1-3 1-3 0-7-2-9-4l-51-56c-4-5-4-12 0-16l94-120c2-2 4-3 6-3 2 0 3 1 4 2l14 9c5 3 7 9 5 14z m-69-26l-78 98-78-98z m-220 12l14-9c1-1 2-2 4-2 2 0 4 1 6 3l94 120c4 4 4 11 0 16l-51 56c-2 2-6 4-9 4-1 0-2 0-3-1-4-1-8-4-9-8l-51-165c-2-5 0-11 5-14z"/>
    </symbol>
  
    <symbol id="ion-p-online-clothes-store" viewBox="0 0 512 512">
      <path d="m219 269c-38 0-70-31-70-70l-44 0c0 63 51 114 114 114 63 0 114-51 114-114l-44 0c0 39-31 70-70 70z m267-269l-363 0 0 74-97 0 0 438 386 0 0-100 74 0z m-118 468l-298 0 0-350 298 0z m74-100l-30 0 0-294-245 0 0-30 275 0z"/>
    </symbol>
  
    <symbol id="ion-p-shopping-bag" viewBox="0 0 512 512">
      <path d="m232 355c0 0 0 0 0 0l-49 0c-2 0-4-1-5-3-1-2-1-4 0-6l24-41c1-2 3-3 5-3 3 0 4 1 6 3l23 41c1 1 2 2 2 3 0 4-3 6-6 6z m-38-12l27 0-14-24z m135 12c0 0 0 0 0 0l-49 0c-2 0-4-1-5-3-1-2-1-4 0-6l24-41c2-2 3-3 6-3 2 0 4 1 5 3l24 41c0 1 1 2 1 3 0 4-3 6-6 6z m-38-12l27 0-13-24z m-35 12c-2 0-4-1-5-3l-24-41c-1-2-1-5 0-6 1-2 3-3 5-3l48 0c2 0 4 1 5 3 1 1 1 4 0 6l-24 41c-1 2-3 3-5 3z m-14-42l14 24 14-24z m38-20c0 0 0 0 0 0l-48 0c-2 0-4-2-5-3-1-2-1-4 0-6l24-42c1-2 3-3 5-3 2 0 4 1 5 3l24 41c1 1 1 2 1 4 0 3-3 6-6 6z m-38-12l28 0-14-24z m63 139c-3 0-4-2-6-3l-24-42c-1-2-1-4 0-6 1-2 3-3 5-3l49 0c2 0 4 1 5 3 1 2 1 4 0 6l-24 42c-1 1-3 3-5 3z m-14-42l14 24 13-24z m-84 42c-2 0-4-2-5-3l-24-42c-1-2-1-4 0-6 1-2 3-3 5-3l49 0c2 0 4 1 5 3 1 2 1 4 0 6l-24 42c-2 1-3 3-6 3z m-13-42l13 24 14-24z m86 42c0 0 0 0 0 0l-48 0c-2 0-4-2-5-3-1-2-1-5 0-6l24-42c1-2 3-3 5-3 2 0 4 1 5 3l24 41c1 1 1 2 1 4 0 3-3 6-6 6z m-38-12l28 0-14-24z m14 74c-2 0-4-1-5-3l-24-42c-1-1-1-4 0-6 1-1 3-2 5-2l48 0c2 0 4 1 5 2 1 2 1 5 0 6l-24 42c-1 2-3 3-5 3z m-14-42l14 24 14-24z m155-262l-37 0 0-132c0-2-1-3-2-4l-41-40 0 0c-1-1-2-2-4-2l-114 0c-2 0-3 1-4 2l0 0-41 40c-1 1-2 2-2 4l0 132-37 0c-4 0-6 3-6 6l0 285c0 24 19 43 43 43l208 0c24 0 43-19 43-43l0-285c0-3-2-6-6-6z m-6 12l0 17-31 0 0-17z m-72-170l29 28 0 159-29 0z m-114-8l102 0 0 30-102 0z m0 42l102 0 0 124-102 0z m0 136l102 0 0 17-102 0z m-41-142l29-28 0 187-29 0z m-12 142l0 17-31 0 0-17z m208 310l-208 0c-17 0-31-14-31-31l0-250 270 0 0 250c0 17-14 31-31 31z"/>
    </symbol>
  
    <symbol id="ion-p-store-mannequin" viewBox="0 0 512 512">
      <path d="m356 297l-42-123c-6-16-5-33 3-48l25-51c4-7 4-15 1-22-3-8-9-13-17-15l-24-8c-8-2-13-9-13-18 0-7-6-12-12-12l-42 0c-6 0-12 5-12 12 0 9-5 16-13 18l-24 8c-8 2-14 7-17 15-3 7-3 15 1 22l25 51c8 15 9 32 3 48l-42 123 0 0c0 8 36 14 83 16l0 158c-32 3-56 11-56 20 0 12 33 21 73 21 40 0 73-9 73-21 0-9-24-17-56-20l0-158c47-2 83-8 83-16z"/>
    </symbol>
  
    <symbol id="ion-p-t-shirt-1" viewBox="0 0 512 512">
      <path d="m480 72l-125 0c-6 0-11 5-11 11 0 33-26 60-60 60-33 0-59-27-59-60 0-6-5-11-11-11l-123 0c-18 0-32 14-32 32l0 95-53 52c-4 5-6 10-6 16 0 6 2 11 6 16l53 52c4 4 10 7 16 7 5 0 11-3 15-7l34-34 0 108c0 17 14 31 31 31l259 0c17 0 31-14 31-31l0-189 35 0c18 0 32-14 32-32l0-84c0-18-14-32-32-32z m-262 58l-8 5c-2-3-5-5-9-5l-8 0 8-36 2 0c2 13 7 26 15 36z m-138-26c0-6 5-10 11-10l88 0-8 36-38-1c-3 0-5 1-7 3l-46 45z m-5 216c0 0-1 0-1 0l-52-53c0 0 0 0 0 0 0 0 0 0 0 0l116-116 42 0-15 9c-5 2-7 9-4 14 2 4 6 6 9 6 2 0 4-1 6-1l14-9 1 34z m415-132c0 6-4 10-10 10l-46 0c-6 0-11 5-11 11l0 200c0 5-4 9-9 9l-259 0c-5 0-9-4-9-9l0-130 63-63c2-2 3-5 3-8l0-50 21-12c14 12 32 18 51 18 42 0 76-30 81-70l115 0c6 0 10 4 10 10z m-168 66l-73 0c-6 0-11 5-11 11 0 6 5 10 11 10l73 0c6 0 11-4 11-10 0-6-5-11-11-11z"/>
    </symbol>
  
    <symbol id="ion-p-601541" viewBox="0 0 512 512">
      <path d="m382 335c-16-34-32-69-50-102-22-41-27-89-45-131-10-20-28-29 0-25 11 2 25 1 35-2 40-9 71-28 97-59 3-3 2-11-5-11-55 7-100-1-155-5-32-2-48 9-62 36-48 87-64 198-72 300-67-1-159 34-102 115 47 66 172 59 242 60 69 1 175 11 225-48 59-71-54-121-108-128z m-175-293c22-51 108-17 151-18 26-1 63-19 18 15-33 25-77 30-116 19-5-2-11 4-8 9 33 46 42 103 61 156 16 42 39 82 59 124-79 30-161 48-237-3 18-102 30-204 72-302z m-73 309c66 51 175 54 243 5 3 6 6 13 9 19-73 53-179 42-255 5-1 0-1 0-2 0 2-10 4-19 5-29z m280 137c-48 12-100 10-149 10-55-1-109-2-163-16-36-9-70-28-82-65-19-59 67-75 105-78-1 16-2 32-3 48 0 3 5 4 6 1 0-1 0-2 0-2 46 65 215 47 266-1 0 0 0-1 0-1 4-1 7-5 5-9-4-8-7-17-11-25 45 5 93 22 99 75 4 40-42 56-73 63z"/>
    </symbol>
  
    <symbol id="ion-p-pencil-ruler" viewBox="0 0 512 512">
      <path d="m495 270l-478 0c-9 0-17 8-17 17l0 66c0 10 8 17 17 17l478 0c9 0 17-7 17-17l0-66c0-9-8-17-17-17z m6 83c0 4-3 6-6 6l-478 0c-3 0-6-2-6-6l0-66c0-3 3-5 6-5l13 0l0 18l11 0l0-18l10 0l0 18l12 0l0-18l10 0l0 35l12 0l0-35l10 0l0 19l11 0l0-19l11 0l0 19l11 0l0-19l10 0l0 36l11 0l0-36l10 0l0 19l11 0l0-19l9 0l0 19l12 0l0-19l9 0l0 35l11 0l0-35l11 0l0 18l12 0l0-18l10 0l0 18l11 0l0-18l11 0l0 35l12 0l0-35l10 0l0 18l11 0l0-18l10 0l0 18l12 0l0-18l10 0l0 35l12 0l0-35l10 0l0 19l11 0l0-19l10 0l0 18l11 0l0-18l12 0l0 35l12 0l0-35l12 0l0 19l11 0l0-19l10 0l0 19l12 0l0-19l12 0l0 35l11 0l0-35l18 0c3 0 6 2 6 5l0 66z m-386-122l0 0l247 0l0 0l36 0c13 0 26-4 35-13c9-8 15-20 15-32c0-24-23-44-50-44l-37 0l0 0l-246 0l0 0l-80 43z m202-11l-199 0l-6-3l15-15l-14-15l-2-1l1-1l0 0l15-15l-14-14l5-3l199 0z m12-67l10 0l0 67l-10 0z m-218 17l-7 7l0 0l-9 8l8 9l0 0l1 0l0 0l0 1l4 4l0 0l3 3l-9 9l-17-10l0-30l18-10z m-38 24l-15-9l15-8z m363-8c0 9-3 18-11 24c-7 6-17 10-27 10l-25 0l0-67l2 0l0 0l23 0c21 0 38 15 38 33z m-75 34l-11 0l0-67l11 0z"/>
    </symbol>
  
    <symbol id="ion-p-measure" viewBox="0 0 512 512">
      <path d="m64 299l21 0l0-22l-21 0z m21-214l-21 0l0 22l21 0z m0 384l-21 0l0 22l-43 0l0 21l107 0l0-21l-43 0z m-21-298l21 0l0-22l-21 0z m0 64l21 0l0-22l-21 0z m128-235l0 512l277 0l0-512z m171 469l-128 0l0-426l128 0z m64 0l-43 0l0-42l43 0z m0-64l-43 0l0-42l43 0z m0-64l-43 0l0-42l43 0z m0-64l-43 0l0-42l43 0z m0-64l-43 0l0-42l43 0z m0-64l-43 0l0-42l43 0z m0-64l-43 0l0-42l43 0z m-406-64l43 0l0 22l21 0l0-22l43 0l0-21l-107 0z m43 406l21 0l0-22l-21 0z m0-64l21 0l0-22l-21 0z"/>
    </symbol>
  
    <symbol id="ion-p-shoe" viewBox="0 0 512 512">
      <path d="m504 327c3-20-1-59-7-101c15-25 19-45 12-57c-6-10-17-12-21-12c-1-2-2-4-3-5c-5-4-11-5-14-5l-1 0c-69-13-106-27-127-35c-13-5-20-7-27-7c-12 0-17 9-26 26c-5 9-11 21-20 37c-54 89-168 122-179 125c-37 0-62 8-75 23c-6 8-7 16-7 21c-6 6-9 12-9 19c0 9 7 15 8 15c1 1 37 29 236 35c24 1 47 1 69 1c143 0 189-15 191-16l4-1l0-4c5-31 4-50-3-58c0 0-1-1-1-1z m-84 14c0-21-6-42-16-63c36-20 67-40 80-49c5 36 10 78 7 96c-22 7-46 12-71 16z m61-134c0 2 1 5 1 8c-13 8-136 91-195 93c-9 0-22-1-25-8c-5-10 7-31 15-42l1-1c1 6 4 13 9 17c10 8 25 8 46-1c51-23 131-58 148-66z m16-31c2 3 4 11-3 27c0-1 0-2-1-4c-1-11-3-22-4-29c3 1 6 2 8 6z m-27-16l1 0c2 0 4 1 4 1c1 1 1 2 1 3c0 4 1 12 3 29c-2 1-50 23-99 45c-35-46-80-76-88-82c2-4 4-7 6-11c3 1 9 2 15 2c12 0 29-3 46-15l0 0c23 8 57 18 109 28z m-154-42c4 0 11 2 22 6c1 1 3 2 5 2c-16 8-30 8-39 7c7-12 9-15 12-15z m-35 57c2-3 3-5 4-7c9 6 50 34 83 75c-15 6-28 12-40 18c-16 6-27 7-32 3c-7-6-5-21-4-26l7-31l-32 43c-3 3-27 35-17 56c5 10 17 15 34 15c1 0 3 0 4 0c28-1 68-18 105-37c9 20 14 40 14 59c-59 8-122 9-181 8c-36-8-50-59-54-77c38-21 81-52 109-99z m-259 159c0-2 1-4 3-7c10 0 69-1 97 1c1 1 2 1 3 1c11 0 26-5 47-14c5 12 13 25 24 35c-85-4-155-13-174-16z m70-28l2 0c2-1 30-8 66-26c1 6 3 14 7 23c-25 11-38 13-44 12c-22-1-59-1-82-1c10-5 26-8 51-8z m404 74c-13 3-65 14-183 14c-22 0-45 0-69-1c-191-6-228-32-228-32c0 0-3-3-3-6c0-3 2-6 5-8c16 2 103 14 206 17c3 0 7 1 11 1c0 0 1 0 1 0l0-1c10 0 20 0 30 0c80 0 163-6 230-27c1 3 4 12 0 43z m-222-161c0 3-3 6-7 6c-3 0-6-3-6-6c0-4 3-7 6-7c4 0 7 3 7 7z m-17 16c0 4-3 7-6 7c-4 0-7-3-7-7c0-3 3-6 7-6c3 0 6 3 6 6z m-19 15c0 3-2 6-6 6c-3 0-6-3-6-6c0-4 3-7 6-7c4 0 6 3 6 7z m-21 14c0 3-3 6-7 6c-3 0-6-3-6-6c0-3 3-6 6-6c4 0 7 3 7 6z"/>
    </symbol>
  
    <symbol id="ion-p-clothes-hanger" viewBox="0 0 512 512">
      <path d="m469 339l-181-102c1-10 7-20 16-26c30-17 48-49 48-83c0-53-43-96-96-96c-53 0-96 43-96 96c0 18 14 32 32 32c18 0 32-14 32-32c0-18 14-32 32-32c18 0 32 14 32 32c0 11-6 22-16 28c-29 17-47 48-48 81l-182 103c-24 15-42 47-42 76c0 35 29 64 64 64l384 0c35 0 64-29 64-64c0-29-18-61-43-77m-405 77c0-7 7-19 11-21l181-102l180 101c5 3 12 15 12 22l-384 0z"/>
    </symbol>
  
    <symbol id="ion-p-tshirt" viewBox="0 0 512 512">
      <path d="m480 96l-160-48c-14 27-31 40-64 40-32 0-50-13-64-40l-160 48 32 88 64-8-16 288 288 0-16-288 64 8z"/>
    </symbol>
  
    <symbol id="ion-p-tshirt-outline" viewBox="0 0 512 512">
      <path d="m178 86c19 23 44 34 78 34l0 0 0 0c23 0 41-5 57-15 8-5 15-12 21-19l104 31-11 32-39-4-38-5 2 38 14 255-220 0 14-255 2-38-38 5-39 4-11-32 104-31m142-38c-14 27-31 40-64 40-32 0-50-13-64-40l-160 48 32 88 64-7-16 288 288 0-16-288 64 7 32-88z"/>
    </symbol>
  
    <symbol id="ion-p-bowtie" viewBox="0 0 512 512">
      <path d="m224 212c0 0 8-5 20-7 21-4 39-5 47 9 10 17 19 53 17 85-1 17-5 22-5 22 0 0-15 10-47 7-35-3-40-15-40-15 0 0 4-11 8-43 3-31 0-58 0-58z m-40 73c13-3 23-7 28-9 0-5 1-10 1-15 1-3 1-7 1-10-7-2-14-5-29-10-38-13-57-17-57-17 0 0 14-2 42 3 20 4 35 10 44 14 1-16-2-32-2-32-22-40-92-97-128-97-26 0-52 69-52 144 0 76 23 144 52 144 33 0 116-80 116-80 0 0 6-13 10-34-19 6-64 9-64 9 0 0 21-5 38-10z m244-173c-37 0-103 57-125 97l0 1c0 0 1 3 1 4 4 5 7 14 10 24 8-3 23-9 37-13 20-7 35-10 35-10 0 0-53 24-69 34 2 10 3 21 4 33 5 2 17 6 30 10 19 5 40 11 40 11 0 0-54-5-70-13 0 3 0 6 0 9-1 17-5 22-5 22 8 11 75 79 112 79 29 0 52-68 52-144 0-75-26-144-52-144z"/>
    </symbol>
  
    <symbol id="ion-p-img-629841" viewBox="0 0 512 512">
      <path d="m507 483c-36-181-86-344-90-356l-4-45c0 0-13-59-13-59-1-3-4-6-7-6l-274 0c-3 0-6 3-7 6 0 0-13 59-13 59l-4 45c-4 12-54 175-90 356l0 0c0 3 2 6 5 7 1 1 12 5 26 5 12 0 26-3 37-12 12-10 31-11 41-11-1 7-1 11-1 11 0 3 1 6 5 7 0 1 12 5 26 5 12 0 25-3 37-12 12-10 30-11 40-11l0 2c0 12 15 21 35 21 21 0 35-9 35-21l0-2c10 0 28 1 40 11 12 9 25 12 37 12 14 0 26-4 27-5 3-1 5-3 4-7 0 0 0-4-1-11 10 0 29 1 41 11 12 9 25 12 37 12 14 0 26-4 26-5 4-1 5-4 5-7z m-392-25c-8 0-23 1-37 6l41-241c1-4-2-7-6-8-3-1-7 2-8 6l-43 253c-14 9-33 7-42 5 37-183 88-347 88-348 0-1 4-41 4-41l31 0c-1 83-21 295-28 368z m106 0c-9 0-24 1-38 7l6-281c0-4-3-7-7-7-4 0-7 3-7 6l-6 291c-14 9-33 7-42 5 4-42 28-296 30-389l64 0z m35 23c-14 0-21-5-22-7l0-384 44 0 0 384c-1 2-8 7-22 7z m-141-405l10-45 262 0 10 45z m228 398l-6-291c0-3-3-6-7-6 0 0 0 0 0 0-4 0-7 3-7 7l6 281c-14-6-29-7-38-7l0-368 64 0c2 93 26 347 30 389-9 2-28 4-42-5z m107 0l-43-253c-1-4-5-7-8-6-4 1-7 4-6 8l41 241c-13-5-29-6-37-6-7-73-27-285-28-368l30 0c0 0 5 40 5 41 0 1 51 165 88 348-9 2-28 4-42-5z"/>
    </symbol>
  
</svg>
