<?xml version="1.0" standalone="no"?>
<!DOCTYPE svg PUBLIC "-//W3C//DTD SVG 1.1//EN" "http://www.w3.org/Graphics/SVG/1.1/DTD/svg11.dtd">
<svg xmlns="http://www.w3.org/2000/svg">
<metadata>Generated by Fontastic.me</metadata>
<defs>
<font id="pumpers" horiz-adv-x="512">
<font-face font-family="pumpers" units-per-em="512" ascent="480" descent="-32"/>
<missing-glyph horiz-adv-x="512" />

<glyph glyph-name="bag" unicode="&#57344;" d="M487 258c-1 2-3 3-6 4l0 176c0 41-33 74-74 74l-302 0c-41 0-74-33-74-74l0-176c-7-2-11-9-11-16 0-4 1-9 5-12 3-3 7-5 12-5l5 0-5-73c0-9 3-18 9-24l0-107c0-14 11-25 25-25l370 0c14 0 25 11 25 25l0 107c6 6 9 15 9 24l-5 73 5 0c10 0 17 8 17 17 0 5-1 9-5 12z m-382 242l302 0c35 0 62-28 62-62l0-175-1 0-1 8c-1 12-11 21-23 21l-376 0c-12 0-22-9-23-21l-1-8-1 0 0 175c0 34 27 62 62 62z m352-361c-4-4-9-6-15-6l-41 0 0 38c0 2-1 3-2 4l-8 9c-1 1-3 2-4 2l-19 0c-1 0-3-1-4-2l-8-9c-1-1-2-2-2-4l0-38-196 0 0 38c0 2-1 3-2 4l-8 9c-1 1-3 2-4 2l-19 0c-1 0-3-1-4-2l-8-9c-1-1-2-2-2-4l0-38-41 0c-6 0-11 2-15 6-4 5-6 10-6 16l7 115c1 6 6 11 12 11l376 0c6 0 11-5 12-11l7-115c0-6-2-11-6-16z m-57-40l0-18-45 0 0 18z m-34-30l23 0 0-13-11-10-12 10z m0 41l0 59 5 5 13 0 5-5 0-59z m-209-11l0-18-45 0 0 18z m-34-30l23 0 0-13-12-10-11 10z m0 41l0 59 5 5 13 0 5-5 0-59z m-86 131c-2 0-3 0-4 1-1 1-2 3-2 4 0 3 3 5 6 5l7 0-1-10z m20-216l0 99c4-2 8-3 13-3l41 0 0-11-5 0c-3 0-6-2-6-5l0-30c0-3 3-6 6-6l5 0 0-16c0-2 1-4 2-5l18-14c1-1 2-1 3-1 2 0 3 0 4 1l18 14c1 1 2 3 2 5l0 16 5 0c3 0 5 3 5 6l0 30c0 3-2 5-5 5l-5 0 0 11 92 0 0-109-179 0c-8 0-14 6-14 13z m384-13l-179 0 0 109 92 0 0-11-5 0c-3 0-5-2-5-5l0-30c0-3 2-6 5-6l5 0 0-16c0-2 1-4 2-5l18-14c1-1 2-1 4-1 1 0 2 0 3 1l18 14c1 1 2 3 2 5l0 16 5 0c3 0 6 3 6 6l0 30c0 3-3 5-6 5l-5 0 0 11 41 0c5 0 9 1 13 3l0-99c0-7-6-13-14-13z m34 229l-6 0-1 10 7 0c2 0 3 0 4-1 1-1 2-3 2-4 0-3-3-5-6-5z m-186 6l-66 0c-3 0-6-3-6-6l0-28c0-4 3-6 6-6l66 0c3 0 6 2 6 6l0 28c0 3-3 6-6 6z m-6-29l-54 0 0 17 54 0z"/>
<glyph glyph-name="baseball-cap" unicode="&#57345;" d="M511 204c-2 5-6 9-12 10-64 20-106 33-116 36-12 39-36 74-69 98-34 26-75 40-118 40-108 0-196-87-196-195 0-21 3-41 9-61 1-2 3-3 6-3 0 0 0 0 0 0 35 2 94 9 173 34 30-13 97-39 163-39 8 0 17 0 25 1 36 4 67 12 90 25 20 10 35 23 44 38 2 5 3 11 1 16z m-204 135c30-23 53-55 64-91-33-16-66-31-99-44-16 53-47 97-70 126-17 20-33 35-42 44 12 2 24 3 36 3 40 0 79-13 111-38z m-296-146c0 85 58 156 136 178 14-12 87-80 114-171-22-9-43-16-64-23-4-1-16-5-19-6-75-22-130-29-159-31-5 17-8 35-8 53z m489 1c-10-18-40-48-125-58-8-1-16-1-24-1-56 0-114 19-147 33 57 18 116 42 175 72 6-2 29-10 117-36 2-1 4-2 4-4 1-2 1-4 0-6z"/>
<glyph glyph-name="bikini" unicode="&#57346;" d="M62 227c10-1 21-1 31-1 48 0 96 11 139 31 8 4 17 6 26 6l1 0c9 0 18-2 26-6 43-20 91-31 139-31 10 0 21 0 31 1 2 0 3 1 4 2 1 2 1 3 1 5 0 6-1 13-3 20-8 56-27 111-54 164l-17 89c-1 3-4 5-7 5-3-1-5-4-4-7l16-86c-44-38-80-80-109-127l-47 0c-28 47-65 89-109 127l16 86c1 3-1 6-4 7-3 0-6-2-7-5l-17-89c-27-53-46-108-54-164-1-7-2-14-3-20 0-2 0-3 1-5 1-1 2-2 4-2z m362 10c-46 0-92 10-134 30-10 5-20 7-31 7l-1 0c-11 0-21-2-31-7-41-20-88-30-134-30-8 0-16 0-24 1 0 3 1 6 1 9 27-1 55 0 82 6 28 5 56 15 82 28l50 0c25-13 53-23 81-28 21-4 42-6 63-6 6 0 13 0 19 0 1-3 1-6 1-9-8-1-16-1-24-1z m-294 53c-17-2-35-4-53-4 8 35 20 70 36 104 0-34 6-68 17-100z m-51-15c22 0 44 2 66 7 24 4 47 12 70 21 3-5 6-10 9-15-23-11-48-19-74-24-26-5-52-7-78-6 1 6 2 11 3 17 1 0 2 0 4 0z m325 115c16-34 28-69 36-104-18 0-36 2-53 4 11 32 17 66 17 100z m35-115c1 0 2 0 3 0 1-6 2-11 3-17-26-1-52 1-78 6-25 5-50 13-74 24 3 5 6 10 9 15 23-9 46-17 70-21 22-5 44-7 67-7z m-46 130c2-39-4-78-17-113-1 0-1 0-2 1-22 4-44 11-65 20 24 33 52 64 84 92z m-185-92c-21-9-43-16-65-20-1-1-1-1-1-1-14 35-20 74-18 113 32-28 60-59 84-92z m252-215l-5 43c0 1-1 3-2 4-1 1-3 1-4 1-128-20-258-20-386 0-1 0-3 0-4-1-1-1-2-3-2-4l-5-43c-1-2 1-5 4-6l118-31c30-7 53-29 63-57 1-3 3-4 5-4l28 0c2 0 4 1 5 4 10 28 34 50 63 57l118 31c3 1 5 4 4 6z m-15 36l1-10c-63-9-127-14-190-14-63 0-127 5-190 14l1 10c126-19 252-19 378 0z m-110-62c-32-8-57-31-69-61l-20 0c-12 30-37 53-69 61l-114 30 2 11c63-10 127-14 191-14 64 0 128 4 191 14l2-11z"/>
<glyph glyph-name="blouse" unicode="&#57347;" d="M420 452c-6 17-22 29-40 31-19 1-29 6-32 8 0 1 0 2 0 3 0 2-1 4-3 6l-21 11c-1 1-4 1-4 1-42-7-85-7-127 0-2 0-3 0-5-1l-21-11c-2-2-3-4-3-6 0-1 0-2 0-3-3-2-13-7-32-8-18-2-34-14-40-31-8-23-12-53-12-90 0-2 1-3 2-4 1-1 18-12 54-14 2 0 4 0 5 0 2-13 6-32 10-52 8-37 7-76-3-112-12-45-26-109-25-160 0-2 2-5 4-5 42-10 86-15 129-15 43 0 87 5 129 15 2 0 4 3 4 5 1 51-13 115-25 160-10 36-11 75-3 112 4 20 8 39 10 52 1 0 3 0 4 0 37 2 54 13 55 14 1 1 2 2 2 4 0 37-4 67-12 90z m-96 38c2 2 2 5 3 7l9-5c-3-20-14-37-33-52-10-7-19-12-25-14-3 18-8 29-12 36 31 5 50 15 58 28z m-8 10c0-1 0-3-1-5-4-6-17-18-59-24-18 3-49 9-58 24-2 2-2 4-2 5 20-3 40-4 60-4 20 0 40 1 60 4z m-131-3c1-2 1-5 3-7 8-13 27-23 58-28-4-7-9-18-12-36-6 2-15 7-24 14-20 15-31 32-34 52z m-26-320c10 38 11 79 3 117-7 35-14 68-14 69-1 2-3 4-6 4 0 0 0 0 0 0-2 0-4-2-5-5l-1-7c-25 1-40 8-45 10 0 35 4 62 11 83 5 14 17 23 31 24 17 1 28 5 34 8 5-18 18-35 36-49 17-12 33-18 34-18 0-1 1-1 1-1 1 0 2 1 3 1 2 1 3 3 3 4 1 13 4 23 7 29l0-435c-40 0-79 5-117 14 0 48 13 109 25 152z m217 178l-1 7c-1 3-3 5-5 5 0 0 0 0 0 0-3 0-5-2-6-4 0-1-7-34-14-69-8-38-7-79 3-117 12-43 25-104 25-152-38-9-77-14-117-14l0 435c3-6 6-16 7-29 0-1 1-3 3-4 1 0 2-1 3-1 0 0 1 0 1 1 1 0 17 6 34 18 18 14 31 31 36 49 6-3 17-7 34-8 14-1 26-10 31-24 7-21 11-48 11-83-5-2-20-9-45-10z m-138 43c-2 0-3 0-4-2-1-1-2-2-2-3 0-2 1-3 2-4 1-1 2-2 4-2 1 0 3 1 4 2 1 1 1 2 1 4 0 1 0 2-1 3-1 2-3 2-4 2z m5-294c0-3-2-5-5-5-3 0-6 2-6 5 0 3 3 6 6 6 3 0 5-3 5-6z m0 231c0-3-2-6-5-6-3 0-6 3-6 6 0 3 3 5 6 5 3 0 5-2 5-5z m0-173c0-3-2-6-5-6-3 0-6 3-6 6 0 3 3 5 6 5 3 0 5-2 5-5z m0 115c0-3-2-5-5-5-3 0-6 2-6 5 0 3 3 6 6 6 3 0 5-3 5-6z m0-57c0-3-2-6-5-6-3 0-6 3-6 6 0 3 3 5 6 5 3 0 5-2 5-5z m-5-168c-2 0-3-1-4-2-1-1-2-2-2-3 0-2 1-3 2-4 1-1 2-2 4-2 1 0 3 1 4 2 1 1 1 2 1 4 0 1 0 2-1 3-1 1-3 2-4 2z m102 312l-45 0c-3 0-6-2-6-5 0-3 3-6 6-6l45 0c3 0 5 3 5 6 0 3-2 5-5 5z"/>
<glyph glyph-name="blouse-1" unicode="&#57348;" d="M232 356c-31 2-63-6-65-6-3-1-5-4-4-7 1-2 3-4 5-4 1 0 1 0 2 0 0 0 32 8 61 6 3 0 6 3 6 6 0 3-2 5-5 5z m197-120l-4 37c0 2-1 4-3 4l-6 3c-1 26-9 150-16 168-5 11-21 15-37 19-13 4-28 7-34 15-1 1-2 3-2 3-9 13-25 24-27 26-1 1-3 1-5 1 0 0 0 0-1-1-25-7-51-7-76 0 0 0-1 1-1 1-2 0-4 0-5-1-2-2-18-13-27-26 0 0-1-2-2-2-6-9-20-12-34-16-16-4-32-8-37-19-7-18-15-142-16-168l-6-3c-2 0-3-2-3-4l-4-37c0-3 1-5 3-6 2 0 29-12 55-12 6 0 12 0 18 2 0-8 0-17 0-25 0-77-29-162-29-163-1-2-1-4 1-5 0-1 7-8 25-14 25-9 58-13 100-13 42 0 75 4 100 13 18 6 25 13 25 14 2 1 2 3 1 5 0 1-29 86-29 163 0 8 0 17 0 25 6-2 12-2 18-2 26 0 53 12 55 12 2 1 3 3 3 6z m-23 43c-6-4-21-12-49-13 9 70 27 126 37 153 4-34 9-96 12-140z m-103 216c8-7 17-16 18-23 2-6 0-18-2-27l-3 5c-4 4-9 7-14 7-1 0-1 0-1 0-2-1-4-1-6-2 5 15 8 28 8 40z m-44-94l-3-5-3 5c-9 15-22 42-29 68l64 0c-7-26-20-53-29-68z m-39 99c12-3 24-5 36-5 12 0 24 2 36 5 0-7 0-13-2-20l-68 0c-2 7-2 13-2 20z m-29-28c1 7 10 16 18 23 0-13 3-26 8-40-2 1-4 1-6 2-6 0-11-3-15-7l-3-5c-2 9-4 21-2 27z m-73-53c10-27 28-83 37-153-28 1-43 9-49 13 3 44 8 106 12 140z m-24-180l3 30 3 1c6-4 24-14 56-15 1-8 2-16 2-24-23-7-53 4-64 8z m67-217c-11 4-17 8-20 10 6 17 29 93 29 163 0 128-43 231-49 245 1 1 1 3 1 3 3 7 16 10 29 14 10 2 20 5 29 9 0-15 4-34 5-35 0-2 2-3 4-4 2 0 4 1 5 2l11 14c1 2 3 3 6 3 2 0 4-2 5-4l41-71 0-360c0 0-1 0-1 0-49 0-79 6-95 11z m210 10c-3-2-9-6-20-10-15-4-41-10-83-11l0 361c0 1 0 2-1 3l-5 10c2 2 4 6 7 12l27 45c1 2 3 4 5 4 3 0 5-1 6-3l11-14c1-1 3-2 5-2 2 1 4 2 4 4 1 1 5 20 5 35 9-4 19-7 29-9 13-4 26-7 29-14 0 0 0-2 1-3-6-14-49-117-49-245 0-70 23-146 29-163z m-17 199c0 8 1 16 2 24 32 1 50 11 56 15l3-1 3-30c-11-4-41-15-64-8z m-10 108c2 0 4 2 5 4 1 3-1 6-4 7-2 0-34 8-65 6-3 0-5-2-5-5 0-3 3-6 6-6 29 2 61-6 61-6 1 0 1 0 2 0z m-95 29c-2 0-3-1-4-2-1-1-2-2-2-4 0-1 1-3 2-4 1-1 2-1 4-1 1 0 3 0 4 1 1 1 1 3 1 4 0 2 0 3-1 4-1 1-3 2-4 2z m0-100c-3 0-6-3-6-6 0-3 3-5 6-5 3 0 5 2 5 5 0 3-2 6-5 6z m5 44c0-3-2-5-5-5-3 0-6 2-6 5 0 3 3 6 6 6 3 0 5-3 5-6z m0-100c0-3-2-5-5-5-3 0-6 2-6 5 0 3 3 6 6 6 3 0 5-3 5-6z m0-50c0-3-2-5-5-5-3 0-6 2-6 5 0 3 3 6 6 6 3 0 5-3 5-6z m0-50c0-3-2-5-5-5-3 0-6 2-6 5 0 3 3 6 6 6 3 0 5-3 5-6z m-5-44c-2 0-3-1-4-2-1-1-2-2-2-4 0-1 1-3 2-4 1-1 2-1 4-1 1 0 3 0 4 1 1 1 1 3 1 4 0 2 0 3-1 4-1 1-3 2-4 2z"/>
<glyph glyph-name="bonnet" unicode="&#57349;" d="M497 184c-1 1-3 3-5 4 9 4 14 14 12 23l-17 59c-2 11-13 17-23 14l-16-4c0 2 0 4 0 6-4 48-26 93-61 125-36 34-82 52-131 52-49 0-95-18-131-52-35-32-57-77-61-125-1-18-5-34-12-49-10-22-22-40-37-53-10-9-15-21-15-33 0-13 5-24 14-33 35-31 105-69 242-69 137 0 207 38 242 69 9 9 14 20 14 33 0 12-5 24-15 33z m-30 88c4 1 8-1 9-5l16-59c1-4-1-8-5-9l-60-16c-5-2-11-2-17 0l-18 6-12 43 13 15c4 4 8 7 14 9z m-402-35c40-42 147-49 170-50l8-26c-15 0-44 3-76 8-57 11-95 28-110 51l0 0c2 4 4 8 6 12 1 2 1 3 2 5z m178-34c0 2 0 4 1 6 1 2 2 3 4 3l60 17c6 1 12 1 17 0l19-6 12-44-13-15c-4-4-9-7-15-9l-60-16c-1 0-3 0-5 1-2 1-3 2-4 4z m110 29l13 4 16-57-13-4z m-220 171c34 31 77 48 123 48 46 0 89-17 123-48 33-31 53-73 57-118 0-3 1-6 1-8l-33-10c-8-2-15-6-20-12l-8-9c-1 2-4 4-7 3l-25-7c-1 0-2-1-3-3-1-1-1-2-1-3l-11 4c-8 2-16 2-24 0l-60-16c-5-1-9-5-11-9-3-5-4-10-2-15l0-1c-13 1-39 3-66 8-49 9-82 24-97 43 4 11 6 23 7 35 4 45 24 87 57 118z m357-276c-33-30-101-66-234-66-133 0-201 36-234 66-6 6-10 14-10 24 0 9 4 18 11 24 10 9 20 21 28 34 41-51 167-59 195-60l2-8c1-5 5-9 9-12 3-1 6-2 10-2 1 0 3 0 5 1l59 16c8 2 15 6 20 12l8 9c1-1 2-1 3-2 1 0 2-1 3-1 0 0 1 0 1 0l25 7c3 1 4 4 4 6l12-3c4-2 8-2 12-2 4 0 8 0 11 1l50 14c3-4 6-7 9-10 7-6 11-15 11-24 0-10-4-18-10-24z"/>
<glyph glyph-name="boot" unicode="&#57350;" d="M505 136c-11 17-29 22-49 28-19 5-42 11-60 32-35 40-84 159-85 160-1 3-4 4-6 3-1 0-102-31-163 0-31 15-49 45-58 67-11 24-14 44-14 45 0 2-1 3-3 4-2 1-5 0-6-1-1-1-22-24-39-55-23-42-28-77-15-104 3-8 45-142 48-266 0-3 2-5 5-5l32 0c1 0 3 0 4 1 1 1 1 3 1 4 0 1-5 101-3 173 0 6 3 9 7 10 3 2 8 2 12-2l4-5c2-2 3-4 4-6 4-5 7-10 9-15 4-9 8-17 13-26 28-61 58-124 85-134 12-5 47-7 89-7 13 0 26 0 40 0 95 4 127 17 137 25 0 0 0 1 1 1 0 0 7 10 13 23 6 18 5 36-3 50z m-443 322c2-9 5-22 11-36 15-34 37-59 64-73 27-14 65-18 110-12 26 3 47 8 56 10 1-2 2-5 4-9l-27-6c-3 0-5-3-5-6 1-3 3-5 6-5 0 0 1 1 1 1l29 6c2-4 5-9 7-15l-26-6c-3 0-5-3-5-6 1-3 3-4 6-4 0 0 1 0 1 0l29 6c2-5 4-10 7-15l-25-6c-3 0-5-3-4-6 0-3 2-4 5-4 0 0 1 0 1 0l27 6c3-5 5-10 8-15l-24-5c-3-1-5-4-4-7 0-3 2-4 5-4 0 0 1 0 1 0l27 6c3-5 5-10 8-15l-24-5c-3-1-5-4-4-7 0-2 2-4 5-4 0 0 1 0 1 0l28 6c3-5 6-10 9-15l-26-5c-3-1-5-4-4-7 0-2 2-4 5-4 0 0 1 0 1 0l30 7c3-5 6-8 9-12-5-5-19-15-47-27-19-7-41-6-63 5-20 10-39 28-50 50-22 42-83 117-129 116-22-1-35-12-43-21-3-4-6-8-7-12-14 10-25 16-29 18-23 46 26 113 45 137z m3-403c0 1 0 3 0 4l21 0c0-1 0-3 0-4z m32 188c-9-4-14-11-14-20-2-52 1-119 2-153l-20 0c-6 100-33 200-43 236 14-9 41-26 65-48 5-5 10-9 14-14-1 0-3-1-4-1z m259-195c-61-2-112 2-124 6-6 3-13 9-20 19 17-11 36-17 57-18 13-1 27-1 43-1 53 0 120 3 166 12-22-9-65-15-122-18z m137 32c-37-9-127-18-223-14-32 1-62 17-80 43-2 2-4 5-5 8-6 12-24 47-33 65-4 9-8 18-12 27-3 5-6 10-9 16-2 2-4 4-5 6 0 0 0 0 0 0-9 12-19 23-32 35-13 12-27 23-39 31 3 8 14 27 42 28 0 0 1 0 1 0 37 0 95-66 118-110 12-24 31-43 55-55 13-7 28-10 42-10 10 0 20 1 29 5 29 12 44 23 50 29 19-19 42-25 62-31 18-5 33-9 41-23 11-18 4-38-2-50z"/>
<glyph glyph-name="boot-1" unicode="&#57351;" d="M354 54c-3 2-8 4-28 6-18 1-32 16-32 35 1 30-2 54-7 70-2 9-3 17-2 26 6 68 16 302 16 304 0 3-2 5-4 6-2 1-46 16-124 9-3 0-5-2-5-5 0-1-7-132 6-224 6-41 1-82-15-119-7-15-10-30-10-46-1-35 7-107 8-110 0-3 2-6 5-6l17 0c1 0 3 1 4 2 1 1 2 3 2 4l-5 82c9-2 32-13 58-70 5-9 14-16 25-18 3 0 5 0 8 0 3 0 6 0 9 0 17 3 66 11 75 16 6 3 8 12 8 18 0 9-3 17-9 20z m-187-42c-1 13-5 50-6 80 2-1 5-2 7-3l5-77z m182 14c-5-3-50-12-71-14-5-1-9-1-14 0-7 1-13 5-16 11-16 35-33 58-51 70-9 6-17 7-21 7-1 0-4 0-4 0-7 1-12 6-12 12 0 0 0 3 0 4 1 15 3 27 10 42 16 39 22 82 16 124-12 82-8 193-7 217 20 2 37 2 52 1l0-357c0-3 3-6 6-6 3 0 5 3 5 6l0 356c24-2 40-6 47-8-1-32-10-237-16-300 0-9 1-19 3-29 5-15 7-38 7-67 0-25 18-44 42-47 19-1 23-3 23-4 2-1 4-5 4-9 0-6-2-9-3-9z"/>
<glyph glyph-name="boxers" unicode="&#57352;" d="M503 349c-3 24-7 45-10 58-5 24-5 24-7 25-1 1-3 1-5 1-147-43-303-43-450 0-2 0-3 0-5-1-1 0-2-2-2-3-1-1-32-132-22-251 0-2 1-3 3-4l0 0c59-27 181-85 200-93 1-1 4-2 5-2 1 0 3 1 4 2l12 18c4 6 11 10 18 10l24 0c7 0 14-4 18-10l12-18c1-1 3-2 4-2 1 0 3 1 4 1 16 8 141 66 201 94l0 0c2 1 3 2 3 4 5 63-1 127-7 171z m-2-141l-8 0c-3 0-36 1-78-11-41-10-76-29-102-55-2 1-3 2-4 3 7 29 11 64 11 99 0 40-5 78-13 108 61 4 121 14 179 30 8-42 17-108 15-174z m-297 36c0 21 1 40 3 59 8-12 14-32 14-54 0-23-6-44-15-56-2 16-2 34-2 51z m9-93c-2 9-4 18-5 28 14 12 24 39 24 70 0 29-9 56-23 68 2 13 4 24 7 35 14-1 27-1 40-1 13 0 27 0 40 1 8-30 12-68 12-108 0-33-3-65-9-93-13 7-28 11-43 11-15 0-30-4-43-11z m-180 270c146-42 300-42 446 0 1-6 3-15 5-28-74-20-151-31-228-31-77 0-154 11-228 31 2 13 4 22 5 28z m-7-39c58-16 118-26 179-30-8-30-13-68-13-108 0-35 4-70 11-99-1-1-2-2-4-3-26 26-61 45-102 55-42 12-75 11-78 11l-8 0c-2 66 7 132 15 174z m9-210c13-1 29-4 47-8 33-9 77-27 110-65-35 16-106 50-157 73z m174-78c-28 39-70 66-124 80-33 9-61 10-72 11-1 4-1 8-1 12l7 0c0 0 0 0 0 0 1 0 34 1 75-10 38-10 89-32 123-82z m59 26l-24 0c-7 0-14-3-20-7-5 8-11 15-17 21 14 11 31 17 49 17 18 0 35-6 49-17-6-6-12-13-17-21-6 4-13 7-20 7z m27-15c34 49 85 72 123 82 41 11 74 10 75 10 0 0 0 0 0 0l7 0c0-4 0-8-1-12-11-1-39-2-72-11-54-14-96-41-124-80z m182 67c-51-23-122-57-157-73 33 38 77 56 109 65 18 4 35 7 48 8z"/>
<glyph glyph-name="bracelet" unicode="&#57353;" d="M419 351c0 18-18 35-50 47-30 11-70 17-113 17-43 0-83-6-113-17-32-12-50-29-50-47 0-18 18-34 50-46 30-11 70-18 113-18 43 0 83 7 113 18 32 12 50 28 50 46z m-54-36c-29-11-68-17-109-17-41 0-80 6-109 17-27 10-43 23-43 36 0 13 16 26 43 36 29 11 68 17 109 17 41 0 80-6 109-17 27-10 43-23 43-36 0-13-16-26-43-36z m78 80c-44 29-109 45-187 45-78 0-143-16-187-45-45-30-69-74-69-127 0-55 24-104 68-139 47-37 112-57 188-57 76 0 141 20 188 57 44 35 68 84 68 139 0 53-24 97-69 127z m-430-99c6-6 11-13 15-20 15-28 13-60-4-73-8 20-13 42-13 65 0 9 1 19 2 28z m424-158c-44-36-107-55-181-55-74 0-137 19-181 55-20 15-35 34-46 54 11 8 18 21 20 37 2 17-2 35-11 52-6 11-13 20-22 27 3 10 7 19 11 27 11 20 27 37 48 51 42 28 105 43 181 43 76 0 139-15 181-43 21-14 37-31 48-51 4-8 8-17 11-27-9-7-16-16-22-27-9-17-13-35-11-52 2-16 9-29 20-37-11-20-26-39-46-54z m51 65c-17 13-19 45-4 73 4 7 9 14 15 20 1-9 2-19 2-28 0-23-5-45-13-65z m-170 26c-17 12-39 18-62 18-23 0-45-6-62-18-17-12-26-28-26-46 0-17 9-33 26-46 17-11 39-18 62-18 23 0 45 7 62 18 17 13 26 29 26 46 0 18-9 34-26 46z m-62-99c-43 0-77 24-77 53 0 29 34 53 77 53 43 0 77-24 77-53 0-29-34-53-77-53z m0 87c-28 0-51-17-51-38 0-21 23-38 51-38 28 0 51 17 51 38 0 21-23 38-51 38z m0-65c-22 0-40 13-40 27 0 15 18 27 40 27 22 0 40-12 40-27 0-14-18-27-40-27z m-146 79c-13 0-24-13-24-30 0-17 11-30 24-30 14 0 24 13 24 30 0 17-10 30-24 30z m0-49c-7 0-13 9-13 19 0 10 6 19 13 19 7 0 14-9 14-19 0-10-7-19-14-19z m292 49c-14 0-24-13-24-30 0-17 10-30 24-30 13 0 24 13 24 30 0 17-11 30-24 30z m0-49c-7 0-14 9-14 19 0 10 7 19 14 19 7 0 13-9 13-19 0-10-6-19-13-19z"/>
<glyph glyph-name="bracelet-1" unicode="&#57354;" d="M468 300c0 21-17 39-39 39 0 0 0 0 0 0 7 3 13 9 16 16 3 8 3 16 0 24-5 11-16 19-29 19-3 0-6-1-10-2 15 15 15 39 0 54-15 15-40 15-55 0 6 15-2 33-17 39-4 1-8 2-12 2-12 0-22-7-27-17-1 21-18 38-39 38-21 0-39-17-39-38-5 10-15 17-27 17-4 0-8-1-12-2-8-4-14-10-17-17-3-7-3-15 0-22-15 15-40 15-55 0-15-15-15-40 0-55 0 0 0 0 0 0-3 1-6 2-10 2-12 0-24-7-28-19-4-8-3-16 0-24 3-6 8-12 14-15-21-1-38-18-38-39 0-21 17-39 39-39 0 0 0 0 0 0-14-6-21-23-15-38 0-1 0-1 0-1l0 0c5-12 16-19 28-19 3 0 7 0 10 1-15-15-15-39 0-54 8-7 18-11 27-11 10 0 20 4 28 11 0 0 0 1 0 1-2-8-2-16 1-23 3-7 9-13 16-17 4-1 8-2 12-2 12 0 22 7 27 17 1-19 15-35 34-37l0-18c-9 3-19 1-26-6-10-10-10-26 0-36l27-27c1-1 3-2 4-2 2 0 3 1 4 2l28 27c10 10 10 26 0 36-7 7-17 9-26 6l0 18c18 3 33 19 33 38 0 0 0 0 0 0 5-11 15-18 28-18 4 0 8 1 11 3 8 3 14 9 17 16 3 7 3 15 1 22 7-7 17-11 27-11 9 0 19 4 27 11 15 15 15 40 0 55 0 0 0 0 0 0 3-1 7-2 10-2 13 0 24 7 29 19 6 15-1 32-15 39 21 1 38 18 38 39z m-52 86c8 0 15-4 18-12 2-5 2-10 0-15-2-5-5-8-10-10-3-1-5-2-8-2-8 0-15 5-18 12l0 1c-4 10 1 21 11 25 2 1 5 1 7 1z m-37 64c7 0 14-3 19-8 11-11 11-28 0-39-11-10-28-10-39 0-11 11-11 28 0 39 6 5 13 8 20 8z m-75 18c3 7 10 12 18 12 3 0 5-1 8-2 10-4 15-15 10-25-3-7-10-12-18-12-2 0-5 0-7 1-5 2-9 6-11 11-2 5-2 10 0 15z m-48 33c15 0 27-13 27-28 0-15-12-27-27-27-15 0-27 12-27 27 0 15 12 28 27 28z m-84-33c2 4 5 8 10 10 3 1 5 2 8 2 8 0 15-5 18-12 2-5 2-10 0-15-2-5-6-9-11-11-2-1-5-1-7-1-8 0-15 4-18 12-2 4-2 10 0 15z m-58-26c5 5 12 8 19 8 7 0 15-3 20-8 11-11 11-28 0-39-11-10-28-10-39 0-11 11-11 28 0 39z m-36-83c-2 5-2 10 0 15 3 7 10 12 18 12 3 0 5-1 8-2 4-2 8-5 10-10 2-5 2-10 0-15-3-8-10-12-18-12-3 0-5 0-7 1-5 2-9 6-11 11z m-23-59c0 15 13 27 28 27 15 0 27-12 27-27 0-15-12-27-27-27-15 0-28 12-28 27z m41-86c-8 0-15 5-18 12l0 1c-4 9 1 21 11 25 2 1 5 1 7 1 8 0 15-5 18-12 4-10 0-21-10-25-3-1-5-2-8-2z m57-56c-11-11-28-11-39 0-11 11-11 28 0 39 5 5 12 8 19 8 7 0 15-3 20-8 11-11 11-28 0-39z m55-26c-3-7-10-12-18-12-2 0-5 1-7 2-5 2-9 6-11 10-2 5-2 11 0 15 3 8 10 12 18 12 3 0 5 0 8-1 4-2 8-6 10-11 2-4 2-10 0-15z m72-75c5-6 5-14 0-20l-24-23-23 23c-6 6-6 14 0 20 2 2 6 4 10 4 3 0 7-2 9-4 3-2 6-2 8 0 6 5 14 5 20 0z m-24 42c-15 0-27 13-27 28 0 15 12 27 27 27 15 0 27-12 27-27 0-15-12-28-27-28z m85 34c-2-5-6-9-11-11-2-1-5-2-7-2-8 0-15 5-18 12-5 10 0 22 10 26 3 1 5 2 8 2 8 0 15-5 18-13 2-4 2-10 0-14z m57 25c-11-11-28-11-39 0-11 11-11 28 0 39 6 5 13 8 20 8 7 0 14-3 19-8 11-11 11-28 0-39z m-47 47c-11-11-14-28-8-42-6 5-13 8-20 8-4 0-8-1-12-3-12-4-19-15-19-27-6 14-20 24-36 24-16 0-29-9-35-22-1 3-1 6-3 9-3 7-9 13-16 16-4 2-8 3-12 3-8 0-16-3-21-9 6 14 3 31-8 43-11 11-28 14-41 9 7 8 9 20 5 31-5 12-16 19-28 19 14 6 24 20 24 36 0 16-9 30-23 36 12 0 22 8 27 18 3 8 3 16-1 24-1 3-3 6-5 9 5-2 10-3 14-3 10 0 20 4 28 11 11 12 14 28 8 42 6-5 13-8 21-8 4 0 8 1 12 3 7 3 13 9 16 16 1 4 2 7 2 10 6-14 20-23 36-23 16 0 30 10 36 23 0-3 1-6 2-9 3-8 9-14 17-17 3-2 7-2 11-2 8 0 15 2 21 7-6-14-3-30 8-42 8-7 18-11 28-11 4 0 9 1 14 3-7-9-10-20-5-31 0 0 0 0 0 0l0-1c5-11 15-19 27-19-14-6-24-20-24-36 0-16 9-30 23-36-11 0-21-8-26-18-5-12-2-24 6-33-14 6-31 3-43-8z m84 21c-4-7-11-12-19-12-2 0-5 1-7 2-10 4-15 15-11 25 3 8 11 12 18 12 3 0 6 0 8-1 10-4 15-16 11-26z m-6 47c-15 0-27 12-27 27 0 15 12 27 27 27 15 0 28-12 28-27 0-15-13-27-28-27z"/>
<glyph glyph-name="brassiere" unicode="&#57355;" d="M511 193c-3 41-12 74-13 79l0 171c0 18-11 34-27 41-2 1-4 1-6-1-1-1-2-2-2-4l0-205c-43-7-82-25-116-51-33-26-58-59-74-96l-34 0c-16 37-41 70-74 96-34 26-73 44-116 51l0 205c0 2-1 3-2 4-2 2-4 2-6 1-16-7-27-23-27-41l0-171c-1-5-10-38-13-79-4-59 5-104 29-133 16-20 38-31 65-32 2 0 4 0 6 0 30 0 59 11 79 21 24 12 47 29 64 46l24 0c17-17 40-34 64-46 20-10 49-21 79-21 2 0 4 0 6 0 27 1 49 12 65 32 24 29 33 74 29 133z m-25 250l0-145-12 0 0 170c8-6 12-15 12-25z m-12-156l12 0 0-10c-4-1-8-1-12-1z m-120-73c38 30 84 47 133 51 1-1 1-4 2-6-4-2-7-5-10-8-4-3-7-6-10-7-3 0-8 1-12 2-6 2-13 4-19 1-7-2-11-8-15-13-3-3-5-7-8-8-3-2-8-1-12-1-6 0-14 0-19-3-6-4-9-10-12-16-1-4-3-8-6-10-2-2-7-3-11-4-6 0-13-2-18-6-4-5-6-12-7-18-1-4-1-8-3-11-2-2-6-4-10-5-6-2-13-5-16-11-4-5-4-12-3-18 0-5 0-9-1-12-1-2-5-5-9-7-2-2-5-4-7-6-1 1-3 3-4 4 13 44 39 83 77 112z m-85-98c-1-3-2-7-3-10l-20 0c-1 3-2 7-3 10z m-34-14c-1-1-3-3-4-4-2 2-5 4-7 6-4 2-8 5-9 7-1 3-1 7-1 12 1 6 1 13-3 18-3 6-10 9-16 11-4 1-8 3-10 5-2 3-2 7-3 11-1 6-3 13-7 18-5 4-12 6-18 6-4 1-9 2-11 4-3 2-5 6-6 10-3 6-6 12-12 16-5 3-12 3-19 3-4 0-9-1-12 1-3 1-5 5-8 8-4 5-8 11-15 13-6 3-13 1-19-1-4-1-9-2-12-2-3 1-6 4-10 7-3 3-6 6-10 8 1 2 1 5 2 6 49-4 95-21 133-51 38-29 64-68 77-112z m-209 175l0 10 12 0 0-11c-4 0-8 0-12 1z m12 191l0-170-12 0 0 145c0 10 4 19 12 25z m58-429c-24 1-43 11-57 29-39 48-27 137-19 179 2-1 4-3 6-5 4-3 9-7 15-9 5-1 11 0 17 2 5 1 10 3 13 1 3-1 6-5 9-9 3-4 7-9 12-12 6-2 12-2 18-2 5 0 10 1 12-1 3-2 5-6 7-11 3-5 5-11 10-14 4-4 10-5 16-6 5-1 10-1 12-3 2-2 3-7 4-12 1-6 2-11 5-16 4-4 10-7 15-9 4-2 9-3 11-6 1-2 1-7 1-12-1-6-1-12 2-17 2-5 7-9 12-12 2-1 3-2 5-4-34-28-85-53-126-51z m377 29c-14-18-33-28-57-29-41-2-92 23-126 51 2 2 3 3 5 4 5 3 10 7 12 12 3 5 3 11 2 17 0 5 0 10 1 12 2 3 7 4 11 6 5 2 11 5 15 9 3 5 4 10 5 16 1 5 2 10 4 12 2 2 7 2 12 3 6 1 12 2 16 6 5 3 7 9 10 14 2 5 4 9 7 11 2 2 7 1 12 1 6 0 12 0 18 2 5 3 9 8 12 12 3 4 6 8 9 9 3 2 8 0 13-1 6-2 12-3 17-2 6 2 11 6 15 9 2 2 4 4 6 5 8-42 20-131-19-179z"/>
<glyph glyph-name="brassiere-1" unicode="&#57356;" d="M511 237c-3 40-12 73-13 79l0 170c0 2-2 4-3 5-2 1-4 1-6 0l-23-14c-2-1-3-3-3-5l0-155c-43-7-82-24-116-51-27-21-49-47-65-77l-52 0c-16 30-38 56-65 77-34 27-73 44-116 51l0 155c0 2-1 4-3 5l-23 14c-2 1-4 1-6 0-1-1-3-3-3-5l0-170c-1-6-10-39-13-79-3-44 1-80 13-107l3-104c0-2 1-4 2-5 1-1 3-1 5-1 76 18 154 27 232 27 78 0 156-9 232-27 1 0 1 0 1 0 2 0 3 0 4 1 1 1 2 3 2 5l3 104c12 27 16 63 13 107z m-38-126c-14-18-33-27-57-28-42-2-93 23-127 51 13 42 39 79 75 107 36 29 80 47 127 52 9-41 22-133-18-182z m13 365l0-134-12 0 0 127z m-12-146l12 0 0-10c-4 0-8-1-12-1z m-120-73c38 30 84 48 133 52 1-2 1-3 2-5-49-6-94-24-132-54-36-28-63-65-77-107-1 1-2 2-3 2 13 44 39 83 77 112z m-77-79c-5-9-8-19-11-28l-20 0c-3 9-6 19-11 28z m-42-33c-1-1-2-2-3-2-14 42-41 79-77 107-38 30-83 48-132 54 1 2 1 3 2 5 49-4 95-22 133-52 38-29 64-68 77-112z m-209 175l0 10 12 0 0-11c-4 0-8 1-12 1z m12 149l0-127-12 0 0 134z m-17-176c47-6 90-23 126-52 37-28 62-65 76-107-34-28-85-53-127-51-24 1-43 10-57 28-40 49-27 141-18 182z m235-234c-77 0-153-9-228-26l0 6c75 17 151 26 228 26 77 0 153-9 228-26l0-6c-75 17-151 26-228 26z m228-8c-74 17-151 26-228 26-77 0-154-9-228-26l-2 57c1-1 2-3 4-4 16-21 38-32 65-33 2 0 4 0 6 0 30 0 59 11 79 21 24 12 47 29 64 46l24 0c17-17 40-34 64-46 20-10 49-21 79-21 2 0 4 0 6 0 27 1 49 12 65 33 2 1 3 3 4 4z"/>
<glyph glyph-name="cardigan" unicode="&#57357;" d="M451 85l-25 332c-1 22-14 41-34 52l-79 42c-1 1-2 1-2 1l-1 0-108 0-1 0c0 0-1 0-2-1l-79-42c-20-11-33-30-34-52l-25-332c-1-7 0-15 4-22l3-8-1-21c0-3 2-5 5-6l31-7c2 0 3 0 4 1 2 1 2 2 3 3l4 22c6 7 10 16 11 26l14 151c0-47-1-97-4-118-3-24-4-46-4-60 1-7 1-14 1-17 1-8 1-9 2-10 1-1 2-1 3-2 39-11 79-17 119-17 40 0 80 6 119 17 2 1 4 3 4 5 0 1 5 37-2 84-3 21-4 71-4 118l14-151c1-10 5-19 11-26l4-22c1-1 1-2 3-3 1-1 2-1 4-1l31 7c3 1 5 3 5 6l-1 21 3 8c4 7 5 15 4 22z m-195 227c-15 27-62 118-50 189l100 0c12-71-35-162-50-189z m-39 57c16-40 34-69 34-70 1-2 3-3 5-3 2 0 4 1 5 3 0 1 18 30 34 70 20 49 27 92 23 128l6-4 0-15c1-86-56-178-59-182l-9-15-9 15c-3 4-60 96-59 182l0 15 6 4c-4-36 3-79 23-128z m-138-331l0 12 23-5-2-12z m35 36c0-7-3-13-7-18l-29 5-4 7c-2 5-3 11-3 17l26 331c0 7 2 14 5 20 19-35 33-97 35-104z m32 31c6 46 2 220 2 227 0 1 0 2 0 3-2 6-6 23-12 43-9 30-18 53-27 68 4 5 10 10 16 13l52 28 0-9c-1-89 58-184 61-188l13-21 0-258c-37 0-73 6-108 16-1 10-2 40 3 78z m223-78c-35-10-71-16-108-16l0 258 13 21c3 4 62 99 61 188l0 9 52-28c6-3 12-8 16-13-9-15-18-38-27-68-6-19-10-36-11-42-1-2-1-3-1-4 0-7-4-181 2-227 5-38 4-68 3-78z m43 6l-2 12 23 5 0-12z m26 35l-4-7-29-5c-4 5-7 11-7 18l-23 258c2 7 16 69 35 104 3-6 5-13 5-20l26-331c0-6-1-12-3-17z m-209 160c9 0 16 8 16 17 0 9-7 16-16 16-9 0-17-7-17-16 0-9 8-17 17-17z m0 22c3 0 5-2 5-5 0-3-2-6-5-6-3 0-6 3-6 6 0 3 3 5 6 5z m0-64c-9 0-17-7-17-17 0-9 8-16 17-16 9 0 16 7 16 16 0 10-7 17-16 17z m0-22c-3 0-6 2-6 5 0 4 3 6 6 6 3 0 5-2 5-6 0-3-2-5-5-5z m0-53c-9 0-17-8-17-17 0-9 8-16 17-16 9 0 16 7 16 16 0 9-7 17-16 17z m0-22c-3 0-6 2-6 5 0 3 3 6 6 6 3 0 5-3 5-6 0-3-2-5-5-5z m4 371l46 0c3 0 5 2 5 5l0 16c0 3-2 6-5 6l-46 0c-3 0-5-3-5-6l0-16c0-3 2-5 5-5z m6 16l34 0 0-5-34 0z"/>
<glyph glyph-name="clutch" unicode="&#57358;" d="M449 339c2 4 2 8 2 13-1 6-5 12-10 15-17 11-36 18-55 22 10 7 17 19 17 32 0 21-17 38-38 38-13 0-23-6-30-15-7 16-23 27-41 27-16 0-30-9-38-23-8 14-22 23-38 23-18 0-34-11-41-27-7 9-17 15-30 15-21 0-38-17-38-38 0-13 7-25 17-32-19-4-38-11-55-22-5-3-9-9-10-15 0-5 0-9 2-13-38-30-63-77-63-130 0-93 75-168 167-168l178 0c92 0 167 75 167 168 0 53-25 100-63 130z m-261 55l-14 0c3 3 5 6 7 9 2-3 5-6 7-9z m68 11c2-4 5-8 9-11l-18 0c4 3 7 7 9 11z m75-2c2-3 4-6 7-9l-14 0c2 3 5 6 7 9z m34 44c14 0 26-12 26-26 0-15-12-27-26-27-15 0-27 12-27 27 0 14 12 26 27 26z m-71 12c18 0 33-14 33-32 0-18-15-33-33-33-18 0-32 15-32 33 0 18 14 32 32 32z m-76 0c18 0 32-14 32-32 0-18-14-33-32-33-18 0-33 15-33 33 0 18 15 32 33 32z m-71-12c15 0 27-12 27-26 0-15-12-27-27-27-14 0-26 12-26 27 0 14 12 26 26 26z m-75-97c1 3 2 6 5 8 27 16 58 25 90 25l178 0c32 0 63-9 90-25 3-2 4-5 5-8 0-1 0-2-1-4-27 19-59 30-94 30l-178 0c-35 0-67-11-94-30-1 2-1 3-1 4z m273-297l-178 0c-86 0-156 70-156 156 0 85 70 155 156 155l178 0c86 0 156-70 156-155 0-86-70-156-156-156z m-35 93c-3 0-5-3-5-6 0-3 2-6 5-6 3 0 6 3 6 6 0 3-3 6-6 6z m21 124c1 0 1 0 1 0 3 0 5 2 6 5 0 3-2 6-5 7-3 0-6-2-6-5-1-3 1-6 4-7z m2-123c-3-1-5-4-5-7 1-2 3-4 6-4 0 0 1 0 1 0 3 1 5 4 4 7 0 3-3 5-6 4z m-204 90c1-1 2-1 3-1 2 0 4 1 5 3 1 3 0 6-2 8-3 1-7 0-8-2-2-3-1-6 2-8z m256-10c0 0 1 0 2 0 3 1 4 5 3 8-1 3-4 4-7 3-3-1-5-4-4-7 1-3 3-4 6-4z m-71 50c0-3-2-6-5-6-4 0-6 3-6 6 0 3 2 6 6 6 3 0 5-3 5-6z m-22-137c0-3-2-6-5-6-4 0-6 3-6 6 0 3 2 6 6 6 3 0 5-3 5-6z m61 15l0 0c-3-2-4-5-2-8 1-2 3-3 5-3 1 0 2 1 3 1 3 2 3 5 2 8-2 3-5 4-8 2z m34 36c-3 2-6 0-7-3-1-3 0-6 3-7 1 0 2-1 2-1 3 0 5 2 6 4 1 3-1 6-4 7z m2 24c-3 0-6-3-6-6 0-3 3-5 6-5 0 0 0 0 0 0 3 0 6 2 6 5 0 4-3 6-6 6z m-37 48c0-1 1-1 2-1 2 0 4 1 5 3 2 3 1 6-2 8-2 1-6 1-8-2-1-3 0-6 3-8z m25-93c-2 2-6 2-8-1-2-2-1-6 1-8 1-1 2-1 4-1 1 0 3 1 4 2 2 2 2 6-1 8z m-4 77c1 0 2 1 3 2 3 2 3 5 1 8-2 2-6 2-8 0-2-2-3-5-1-8 1-1 3-2 5-2z m-250-33c0 0 1 0 1 0 3 0 5 2 6 5 0 3-2 6-5 6-3 1-6-1-7-4 0-4 2-6 5-7z m98-74c0-3-2-6-6-6-3 0-5 3-5 6 0 3 2 6 5 6 4 0 6-3 6-6z m-2 137c0-3-2-6-5-6-3 0-6 3-6 6 0 3 3 6 6 6 3 0 5-3 5-6z m-29-6c0 0 0 0 0 0 3 0 6 3 6 6 0 3-3 6-6 6-3 0-6-3-6-6 0-3 3-6 6-6z m101 6c0-3-3-6-6-6-3 0-6 3-6 6 0 3 3 6 6 6 3 0 6-3 6-6z m-99-131c0 0 0 0 0 0-1 0-1 0-1 0-3 0-5-3-5-6 0-3 2-6 5-6 0 0 0 0 1 0 0 0 0 0 0 0 3 0 5 3 5 6 0 3-2 6-5 6z m-62 51c-1 3-4 5-7 5-3-1-5-4-4-7 0-3 3-5 5-5 1 0 1 0 1 0 3 1 5 4 5 7z m115-57c0-3-3-6-6-6-3 0-6 3-6 6 0 3 3 6 6 6 3 0 6-3 6-6z m24 0c0-3-3-6-6-6-3 0-6 3-6 6 0 3 3 6 6 6 3 0 6-3 6-6z m-8 131c3 0 6 3 6 6 0 3-3 6-6 6-3 0-6-3-6-6 0-3 3-6 6-6z m-24 0c4 0 6 3 6 6 0 3-2 6-6 6-3 0-5-3-5-6 0-3 2-6 5-6z m-94-111c-2-3-1-6 1-8 1-1 2-2 4-2 1 0 3 1 4 2 2 3 2 6-1 8-2 2-6 2-8 0z m24 107c1 0 1 0 2 0 3 1 4 4 3 7-1 3-4 5-7 4-3-1-5-5-3-8 0-2 3-3 5-3z m-37-88c-3-2-4-5-2-8 1-2 3-3 4-3 1 0 2 1 3 1 3 2 4 5 2 8-1 3-5 3-7 2z m17 76c1 0 2 0 3 1 3 2 3 6 1 8-2 2-6 3-8 1-2-3-3-6-1-9 1-1 3-1 5-1z m23-105c-3 1-6-1-7-4-1-3 0-6 3-7 1 0 2 0 2 0 3 0 5 1 6 3 1 3-1 7-4 8z m48 250c15 0 26 12 26 27 0 14-11 26-26 26-15 0-27-12-27-26 0-15 12-27 27-27z m0 42c8 0 15-7 15-15 0-9-7-16-15-16-9 0-15 7-15 16 0 8 6 15 15 15z m76-42c15 0 27 12 27 27 0 14-12 26-27 26-14 0-26-12-26-26 0-15 12-27 26-27z m0 42c9 0 15-7 15-15 0-9-6-16-15-16-8 0-15 7-15 16 0 8 7 15 15 15z m-147-42c12 0 21 9 21 21 0 11-9 21-21 21-11 0-20-10-20-21 0-12 9-21 20-21z m0 30c5 0 10-4 10-9 0-5-5-10-10-10-5 0-9 5-9 10 0 5 4 9 9 9z m218-30c11 0 20 9 20 21 0 11-9 21-20 21-12 0-21-10-21-21 0-12 9-21 21-21z m0 30c5 0 9-4 9-9 0-5-4-10-9-10-5 0-10 5-10 10 0 5 5 9 10 9z"/>
<glyph glyph-name="clutch-1" unicode="&#57359;" d="M228 242c20 0 36 16 36 36 0 20-16 36-36 36-20 0-36-16-36-36 0-20 16-36 36-36z m0 11c-12 0-22 8-24 19l48 0c-2-11-12-19-24-19z m0 50c12 0 22-9 24-20l-48 0c2 11 12 20 24 20z m284-158l-11 209c0 5-2 9-6 13-4 3-8 5-13 5-11 0-19-9-19-19l0-7-7 0 0 11c0 13-11 24-24 24l-165 0 0 2c0 6-4 10-9 10l-59 0c-6 0-10-4-10-10l0-2-165 0c-13 0-24-11-24-24l0-194c0-11 9-21 21-21l415 0c11 0 20 10 20 21l0 157 7 0 0-177c0-13 11-24 24-24 7 0 14 3 18 7 5 5 7 12 7 19z m-80 226c0 0 0 0 0 0 6 0 11-7 10-13l-11-58c-2-10-11-17-20-17l-122 0c-1 13-6 25-14 35 2 1 3 3 3 5l0 17c0 3-3 6-5 6l-6 0 0 25z m-165-36l0-7-78 0 0 7z m-71-18l64 0c12-9 19-24 19-39 0-14-6-27-16-37-10-9-23-14-37-14-26 1-48 23-49 49 0 16 7 31 19 41z m61 65l0-36-57 0 0 36z m-233-11l165 0 0-25-5 0c-3 0-6-3-6-6l0-17c0-2 2-4 3-5-8-10-13-22-14-35l-121 0c-10 0-19 7-21 17l-11 58c-1 6 4 13 10 13 0 0 0 0 0 0z m412-218l-415 0c-6 0-10 5-10 10l0 156 4-21c3-15 16-26 31-26l121 0c2-30 28-54 59-56 1 0 1 0 2 0 16 0 31 6 43 17 11 11 17 25 18 39l122 0c15 0 28 11 30 26l4 21 0-156c0-5-4-10-9-10z m20 182l16 0c2 0 3-1 3-2 0-1-1-2-3-2l-16 0z m41-201c-2-3-6-4-10-4-7 0-14 6-14 13l0 177c7 1 12 6 12 13 0 7-5 12-12 13l0 7c0 4 4 8 9 8 2 0 4-1 6-2 1-2 2-4 2-6l11-209c0-4-1-7-4-10z"/>
<glyph glyph-name="corset" unicode="&#57360;" d="M441 117c-17 14-32 28-35 57-2 10 0 53 68 208 5 12 7 24 7 37 0 28-12 55-34 72-22 18-50 25-78 19-12-3-23-6-30-9-29-15-55-36-75-62l-8-11-8 11c-20 26-46 47-75 62-7 3-18 6-30 9-28 6-56-1-78-19-22-17-34-44-34-72 0-13 2-25 7-37 68-155 70-198 68-208-3-29-18-43-35-57-15-13-30-26-35-52-1-3 0-5 2-6 68-39 143-59 218-59 75 0 150 20 218 59 2 1 3 3 2 6-5 26-20 39-35 52z m-168 314c19 25 44 45 71 59 7 3 16 6 28 8 24 5 48-1 67-16 19-15 30-38 31-63 0-11-3-22-7-33-2-4-4-8-6-13-4-1-8-2-12-3-9-1-17-3-25-7-7-5-12-12-17-18-5-7-9-14-15-17-6-2-14-2-22-2-9 0-18 1-26-2-8-3-14-9-20-15-6-6-12-11-19-13-6-1-14 0-22 2-5 2-11 3-17 3l0 45 14-9c0-2-1-4-1-5 0-12 10-22 22-22 12 0 21 10 21 22 0 11-9 21-21 21-6 0-11-2-15-6l-15 9 15 9c4-4 9-6 15-6 12 0 21 10 21 21 0 12-9 22-21 22-12 0-22-10-22-22 0-1 1-3 1-5l-14-9 0 50z m89-258c3-34 22-63 40-92 8-12 15-23 21-35-13-5-27-10-40-15-4 18-10 36-17 55-9 27-19 56-21 88-2 20 6 68 22 140 9 0 18 0 26 4 0 0 0 0 1 0-17-55-34-119-32-145z m-244 145c1 0 1 0 1 0 8-4 17-4 26-4 16-72 24-120 22-140-2-32-12-61-21-89-7-18-13-36-17-54-13 5-27 10-40 15 6 12 13 23 21 35 18 29 37 58 40 92 2 26-15 90-32 145z m39-236c10 28 20 58 22 91 2 21-6 69-22 141 4 0 7 0 11-2 5-2 11-6 16-12 7-6 14-13 24-15 3-1 5-1 8-1 7 0 13 1 19 3 5 1 10 2 15 2l0-56-14 9c0 2 1 3 1 5 0 12-10 22-22 22-12 0-21-10-21-22 0-11 9-21 21-21 6 0 11 2 15 6l15-9-15-9c-4 4-9 6-15 6-12 0-21-10-21-22 0-11 9-21 21-21 12 0 22 10 22 21 0 2-1 4-1 6l14 8 0-112-14 9c0 2 1 3 1 5 0 12-10 22-22 22-12 0-21-10-21-22 0-11 9-21 21-21 6 0 11 2 15 6l15-9-15-9c-4 4-9 6-15 6-12 0-21-10-21-22 0-11 9-21 21-21 12 0 22 10 22 21 0 2-1 4-1 6l14 8 0-67c-37 0-74 6-109 16 3 18 9 35 16 54z m61 170c-2 2-6 1-8-2-1-2-1-6 2-8l7-4c-1 0-3 0-4 0-5 0-9 4-9 9 0 6 4 10 9 10 5 0 9-4 10-8z m-8-57c1-1 3-2 5-2 1 0 2 0 3 0l7 4c-1-4-5-8-10-8-5 0-9 4-9 9 0 6 4 10 9 10 1 0 3 0 4-1l-7-3c-3-2-3-6-2-9z m8-76c-2 2-6 1-8-2-1-2-1-6 2-8l7-4c-1 0-3 0-4 0-5 0-9 4-9 9 0 6 4 10 9 10 5 0 9-4 10-8z m-8-57c1-2 3-3 5-3 1 0 2 1 3 1l7 4c-1-5-5-8-10-8-5 0-9 4-9 9 0 6 4 10 9 10 1 0 3 0 4-1l-7-4c-3-1-3-5-2-8z m52 17l14-8c0-2-1-4-1-6 0-11 10-21 22-21 12 0 21 10 21 21 0 12-9 22-21 22-6 0-11-2-15-6l-15 9 15 9c4-4 9-6 15-6 12 0 21 10 21 21 0 12-9 22-21 22-12 0-22-10-22-22 0-2 1-3 1-5l-14-9 0 112 14-8c0-2-1-4-1-6 0-11 10-21 22-21 12 0 21 10 21 21 0 12-9 22-21 22-6 0-11-2-15-6l-15 9 15 9c4-4 9-6 15-6 12 0 21 10 21 21 0 12-9 22-21 22-12 0-22-10-22-22 0-2 1-3 1-5l-14-9 0 56c5 0 10-1 15-2 6-2 12-3 19-3 3 0 5 0 8 1 10 2 17 9 24 16 5 5 11 9 16 11 4 2 7 2 11 2-16-72-24-120-22-141 2-33 12-63 22-91 7-19 13-36 16-54-35-10-72-16-109-16z m32-19c1 0 2-1 3-1 2 0 4 1 5 3 1 3 1 7-2 8l-7 4c1 1 3 1 4 1 5 0 9-4 9-10 0-5-4-9-9-9-5 0-9 3-10 8z m8 57c-2 3-6 4-8 2l-7-3c1 4 5 8 10 8 5 0 9-4 9-10 0-5-4-9-9-9-1 0-3 0-4 0l7 4c3 2 3 6 2 8z m-8 76c1 0 2 0 3 0 2 0 4 1 5 2 1 3 1 7-2 9l-7 3c1 1 3 1 4 1 5 0 9-4 9-10 0-5-4-9-9-9-5 0-9 4-10 8z m8 57c-2 3-6 4-8 2l-7-3c1 4 5 8 10 8 5 0 9-4 9-10 0-5-4-9-9-9-1 0-3 0-4 0l7 4c3 2 3 6 2 8z m-8 77c1-1 2-1 3-1 2 0 4 1 5 3 1 2 1 6-2 8l-7 3c1 1 3 1 4 1 5 0 9-4 9-9 0-6-4-10-9-10-5 0-9 4-10 8z m8 57c-2 2-6 3-8 2l-7-4c1 4 5 8 10 8 5 0 9-4 9-10 0-5-4-9-9-9-1 0-3 0-4 1l7 3c3 2 3 6 2 9z m-229 98c19 15 43 21 67 16 12-2 21-5 28-8 27-14 52-34 71-59l11-15 0-50-14 9c0 2 1 4 1 5 0 12-10 22-22 22-12 0-21-10-21-22 0-11 9-21 21-21 6 0 11 2 15 6l15-9-15-9c-4 4-9 6-15 6-12 0-21-10-21-21 0-12 9-22 21-22 12 0 22 10 22 22 0 1-1 3-1 5l14 9 0-45c-6 0-12-1-17-3-8-2-16-3-22-2-7 2-13 7-19 13-6 6-12 12-20 15-8 3-17 2-26 2-8 0-16 0-22 2-6 3-10 10-15 17-5 6-10 13-17 18-8 4-16 6-25 7-4 1-8 2-12 3-2 5-4 9-6 13-4 11-7 22-7 33 1 25 12 48 31 63z m145-96c-2 1-6 0-8-2-1-3-1-7 2-9l7-3c-1-1-3-1-4-1-5 0-9 4-9 9 0 6 4 10 9 10 5 0 9-4 10-8z m-8-57c1-2 3-3 5-3 1 0 2 0 3 1l7 3c-1-4-5-8-10-8-5 0-9 4-9 10 0 5 4 9 9 9 1 0 3 0 4-1l-7-3c-3-2-3-6-2-8z m-131-221c17 15 35 31 39 65 4 34-32 128-57 186 1 0 3 0 4-1 8-1 15-2 20-5 5-4 10-9 14-15 0-1 1-1 1-2 27-83 40-140 38-162-3-31-21-59-38-87-8-12-16-24-22-36-10 5-20 10-30 16 5 19 18 30 31 41z m355-57c-6 12-14 24-22 36-17 28-35 56-38 87-2 22 11 79 38 162 0 1 1 1 1 2 4 6 9 11 14 15 5 3 12 4 20 5 1 1 3 1 4 1-25-58-61-152-57-186 4-34 22-50 39-65 13-11 26-22 31-41-10-6-20-11-30-16z"/>
<glyph glyph-name="dress" unicode="&#57361;" d="M424 50c-27 116-59 190-75 224-9 17-14 36-15 55l0 0c0 2 0 7 0 7 0 39 22 156 23 158 0 2-1 4-3 6l-24 11c-2 1-4 1-5 0-2-1-3-2-3-4-1-10-3-22-6-33-20-2-40-2-60-2-20 0-40 0-60 2-3 13-5 24-6 33 0 2-1 3-3 4-1 1-3 1-5 0l-24-11c-2-2-3-4-3-6 1-2 26-136 23-164 0 0 0-1 0-1-1-9-2-19-5-28-2-9-5-18-10-27-16-34-48-108-75-224 0-2 1-5 3-6l53-32c1-1 3-1 5-1 1 1 2 2 3 4l3 11c19-3 38-6 57-8l-1-6c0-3 2-5 4-6 14-4 27-6 41-6 14 0 27 2 41 6 2 1 4 3 4 6l-1 6c19 2 38 5 57 8l3-11c1-2 2-3 3-4 1 0 2 0 2 0 1 0 2 0 3 1l53 32c2 1 3 4 3 6z m-235 275c15-2 31-3 47-4-3-4-4-9-4-14 0-5 1-9 4-13-18 1-35 2-52 5 2 8 4 17 5 26z m81-18c0-7-7-13-14-13-7 0-14 6-14 13 0 7 6 13 14 14 0 0 0 0 0 0 0 0 0 0 0 0 8-1 14-7 14-14z m6 14c16 1 32 2 47 4 1-9 3-18 5-26-17-3-34-4-52-5 3 4 4 8 4 13 0 5-1 10-4 14z m-25 121c-16 0-31 2-46 3-1 4-4 10-6 18 17-1 34-2 52-2z m10 19c18 0 35 1 52 2-2-8-5-14-6-18-15-1-30-3-46-3z m-94 31l13 6c1-10 4-23 8-37 4-13 8-22 8-22 0-2 2-4 4-4 19-2 37-4 56-4 19 0 37 2 56 4 2 0 4 2 4 4 1 1 12 32 16 59l13-6c-4-22-22-120-22-156 0 0 0 0 0 0-45-6-89-6-134 0 0 36-18 134-22 156z m201-468l-48 162c-1 2-4 4-7 3-3-1-5-4-4-7l44-145c-18-4-36-6-54-8l-15 123c0 3-3 5-6 5-3 0-5-3-5-6l16-136c-22-6-44-6-66 0l15 130c0 3-2 6-5 6-3 1-5-1-6-4l-14-118c-18 2-36 4-54 8l44 145c1 3-1 6-4 7-3 1-6-1-7-3l-48-162-44 27c26 113 57 185 73 219 3 6 6 12 8 18 25-4 50-5 75-5 25 0 50 1 75 5 2-6 5-12 8-18 16-34 47-106 73-219z"/>
<glyph glyph-name="dress-1" unicode="&#57362;" d="M390 69c0 1-34 94-36 147-1 49-19 78-24 86l17 84c1 6 0 13-2 19-7 21 2 69 2 70 0 2-1 4-2 5l-29 20 0 0c0 0 0 0 0 0l-15 11c-2 1-4 1-5 1-2-1-3-2-4-4-2-8-10-18-22-30-5-6-11-10-14-13-3 3-9 7-14 13-12 12-20 22-22 30-1 2-2 3-4 4-1 0-3 0-5-1l-15-11c0 0 0 0 0 0l0 0-29-20c-1-1-2-3-2-5 0-1 9-48 2-70-2-6-3-13-2-19l17-84c-5-8-23-37-24-86-2-53-36-146-36-147-1-2 0-6 2-7l27-11c-2-3-3-6-5-8 0-2-1-4 0-5 1-2 2-3 3-4l32-10c-1-1-1-3-2-5-1-1-1-3 0-5 1-2 3-3 4-3l40-1 0-4c0-2 1-3 2-4 1-1 2-2 4-2l54 0c2 0 3 1 4 2 1 1 2 2 2 4l0 4 40 1c1 0 3 1 4 3 1 2 1 4 0 5-1 2-1 4-2 5l32 10c1 1 2 2 3 4 1 1 0 3 0 5-2 2-3 5-5 8l27 11c2 1 3 5 2 7z m-55 332c1-4 2-8 1-12l-16-84c-16-5-32-8-49-10l0 153c4-2 8-4 11-6 1-1 2-1 3-1 1 0 1 0 2 0 1 0 2 1 3 3l25 44 20-15c-2-12-7-51 0-72z m-35 97l6-4-23-40c-4 2-9 5-15 7 10 9 24 23 32 37z m-88 0c8-14 22-28 32-37-6-2-11-5-15-7l-23 40z m-36-109c-1 4 0 8 1 12 7 21 2 60 0 72l20 15 25-44c1-2 2-3 3-3 1 0 1 0 2 0 1 0 2 0 3 1 7 4 15 8 21 10 4 1 8 0 9 0l0-157c-23-1-46 3-68 10z m-42-319c3 9 9 27 16 49 12 41 18 74 19 97 1 43 15 69 21 78 2 0 4-1 6-2-4-13-16-47-18-81l0-2c-2-36-6-106-23-148z m25-27c23 43 28 125 30 165l0 2c2 33 14 68 18 79 3 0 6-1 9-1-3-15-11-53-10-87 1-37-5-120-21-166z m65-22l-32 1c10 24 16 60 20 86 4 39 6 74 5 93-1 33 7 71 10 85 4-1 8-1 12-2z m11-10l15 273c2 0 4 0 6 0 2 0 4 0 6 0l15-273z m53 10l-15 263c4 1 8 1 12 2 3-14 11-52 10-85-1-19 1-54 5-93 4-26 10-62 20-86z m39 14c-16 46-22 129-21 166 1 34-7 72-10 87 3 0 6 1 9 1 4-11 16-46 18-79l0-2c2-40 7-122 30-165z m30 26c-17 42-21 112-23 148l0 2c-2 34-14 68-18 81 2 1 4 2 6 2 2-3 6-9 9-17 5-13 11-34 12-61 1-23 7-56 19-97 7-22 13-40 16-49z m-111 364c2 0 3 0 4 1 1 1 2 3 2 4 0 2-1 3-2 4-1 1-2 2-4 2-1 0-3-1-4-2-1-1-1-2-1-4 0-1 0-3 1-4 1-1 3-1 4-1z m0-57c3 0 6 2 6 5 0 4-3 6-6 6-3 0-5-2-5-6 0-3 2-5 5-5z m6 34c0-3-3-6-6-6-3 0-5 3-5 6 0 3 2 5 5 5 3 0 6-2 6-5z m-6-62c3 0 6 2 6 5 0 3-3 6-6 6-3 0-5-3-5-6 0-3 2-5 5-5z m0-29c2 0 3 1 4 2 1 1 2 2 2 4 0 1-1 3-2 4-1 1-2 1-4 1-1 0-3 0-4-1-1-1-1-3-1-4 0-2 0-3 1-4 1-1 3-2 4-2z m77 108l-35 2c-2 1-3 0-4-1-2-1-2-2-2-4l-4-45c0-3 2-6 5-6l36-3c0 0 0 0 0 0 2 0 3 1 4 2 1 1 2 2 2 3l3 46c0 3-2 5-5 6z m-6-11l-1-8-24 2 0 8z m-28-32l2 15 24-2-1-15z"/>
<glyph glyph-name="dress-2" unicode="&#57363;" d="M341 479c0 1-1 1-1 1l-46 15-4 9c0 1-3 3-3 3 0 0-2 0-3 1-19 6-38 5-57-1-1 0-1 0-2 0 0 0-3-2-3-3l-4-9-46-15c0 0-1 0-1-1-12-8-25-86-27-281 0-2 1-3 2-4 1-1 2-2 3-2 1 0 1 0 1 0l23 2c0-27 2-44 5-62 4-25 8-54 7-116 0-2 1-5 4-5 22-7 44-11 67-11 23 0 45 4 67 11 3 0 4 3 4 5-1 62 3 91 7 116 3 18 5 35 5 62l23-2c0 0 0 0 1 0 1 0 2 1 3 2 1 1 2 2 2 4-2 195-15 273-27 281z m-9-8l-24-97c-3-14-4-29-3-44l-18 0c-3 0-5-2-5-5 0-3 2-6 5-6l19 0c1-7 2-14 4-21 5-15 10-35 14-57l-17 4c-26 5-46 30-46 59l0 57c38 29 58 102 59 105 0 1 0 3-1 4 0 1-1 2-3 2l-14 4-3 6z m-14-103c5-30 7-61 8-88-1 7-3 15-5 21-7 22-8 45-3 67z m-79 112l34 0c4-18 5-55-17-104-22 49-21 86-17 104z m45 12l9-22c0-2 2-3 3-3l12-3c-4-14-16-49-35-76 16 46 14 79 10 97-1 2 0 5 1 7z m-9 7c-1-2-2-5-3-8l-32 0c-1 3-2 6-3 8 12 3 26 3 38 0z m-47-7c1-2 2-5 1-7-4-18-6-51 10-97-19 27-31 62-35 76l12 3c1 0 3 1 3 3z m-18-16l-14-4c-2 0-3-1-3-2-1-1-1-3-1-4 1-3 21-76 59-105l0-57c0-29-20-54-46-59l-17-4c4 22 9 42 14 57 2 7 3 14 4 21l19 0c3 0 5 3 5 6 0 3-2 5-5 5l-18 0c1 15 0 30-3 44l-24 97 33 11z m-16-108c5-22 4-45-3-67-2-6-4-14-5-21 1 27 3 58 8 88z m-21 89l15-64c-15-74-15-166-15-189l-18-1c2 166 12 230 18 254z m150-324c-3-25-8-53-7-113-39-12-81-12-120 0 1 60-4 88-7 113-3 20-6 37-5 66 1 11 1 21 3 31l20 4c22 4 40 21 49 42 9-21 27-38 49-42l20-4c2-10 2-20 3-31 1-29-2-46-5-66z m16 71c0 23 0 115-15 189l15 64c6-24 16-88 18-254z"/>
<glyph glyph-name="earrings" unicode="&#57364;" d="M174 324c-75 0-136-62-136-137 0-75 61-136 136-136 75 0 137 61 137 136 0 75-62 137-137 137z m0-13c28 0 51-22 51-50 0-28-23-51-51-51-28 0-51 23-51 51 0 28 23 50 51 50z m-58-27c-3-7-4-15-4-23 0-35 28-63 62-63 35 0 63 28 63 63 0 8-2 16-5 23 10-13 17-29 17-47 0-41-34-74-75-74-41 0-74 33-74 74 0 18 6 34 16 47z m-18-6c-6-12-10-26-10-41 0-47 39-86 86-86 48 0 86 39 86 86 0 15-3 29-10 41 17-18 27-42 27-69 0-56-46-103-103-103-56 0-102 47-102 103 0 27 10 51 26 69z m76-216c-69 0-125 56-125 125 0 25 8 49 21 68-7-14-10-29-10-46 0-63 51-114 114-114 63 0 114 51 114 114 0 17-3 32-9 46 13-19 20-43 20-68 0-69-56-125-125-125z m184 358c3 5 5 10 5 15 0 12-8 22-19 24l0 14c0 4-3 6-6 6l-12 0c-5 0-9 4-9 9 0 5 4 9 9 9l32 0c3 0 6 3 6 6 0 3-3 6-6 6l-32 0c-12 0-21-9-21-21 0-11 9-20 21-20l6 0 0-9c-11-2-19-12-19-24 0-5 2-10 4-15-47-5-91-31-120-70-1 0-2 0-2 0 2 4 4 9 4 15 0 12-8 22-19 24l0 14c0 4-3 6-6 6l-12 0c-5 0-9 4-9 9 0 5 4 9 9 9l32 0c3 0 6 3 6 6 0 3-3 6-6 6l-32 0c-11 0-21-9-21-21 0-11 10-21 21-21l6 0 0-8c-11-2-19-12-19-24 0-6 2-11 5-15-87-10-154-83-154-173 0-96 78-174 174-174 58 0 109 28 141 72 7-1 15-2 23-2 96 0 174 78 174 174 0 90-67 163-154 173z m-26 27l0-12c0-3 3-6 6-6 3 0 6 3 6 6l0 12c4-2 7-7 7-12 0-7-6-13-13-13-8 0-14 6-14 13 0 5 4 10 8 12z m-164-70l0-12c0-3 3-6 6-6 3 0 6 3 6 6l0 12c4-2 8-7 8-12 0-7-6-13-14-13-7 0-13 6-13 13 0 5 3 10 7 12z m6-362c-89 0-162 73-162 162 0 90 73 163 162 163 90 0 163-73 163-163 0-89-73-162-163-162z m169 206c45 3 81 40 81 86 0 15-4 29-11 42 17-19 27-43 27-70 0-53-40-97-92-102 0 0 0 0 0 0 0 15-2 30-5 44z m-81 127c-3-5-5-11-7-16-1 0-3 1-4 2 3 5 7 10 11 14z m18 6c-3-7-5-15-5-23 0-4 1-9 2-13-4 3-8 5-11 8 2 10 7 20 14 28z m17-53c-7 9-10 19-10 30 0 28 22 50 49 51 0 0 3 0 3 0 28-1 50-23 50-51 0-28-23-51-51-51-12 0-24 4-33 12-2 3-5 6-8 9z m41-32c34 0 62 28 62 62 0 8-1 16-4 23 10-13 16-29 16-47 0-40-32-73-73-74-4 13-10 26-18 38 6-2 11-2 17-2z m10-104c27 3 53 15 72 35 21 21 32 50 32 79 0 17-4 33-10 47 13-20 21-44 21-69 0-67-54-122-120-124 2 10 4 21 5 32z m-10-80c-5 0-11 0-16 1 7 11 13 23 17 35 75 1 135 62 135 136 0 36-14 70-39 96-25 25-58 40-94 41 0 0-6 0-6 0-41-1-79-20-104-52-7 2-14 4-21 6 31 39 78 62 128 62 89 0 162-73 162-163 0-89-73-162-162-162z"/>
<glyph glyph-name="earrings-1" unicode="&#57365;" d="M220 242c50 50 50 131 0 182-51 50-132 50-182 0-51-51-51-132 0-182 23-24 53-36 84-38l0-54c-24-3-43-24-43-49 0-28 22-50 50-50 27 0 49 22 49 50 0 25-19 46-43 49l0 54c31 2 61 14 85 38z m-149-10c9 3 20 1 32 0 9-1 17-3 26-3 8 0 17 2 25 3 12 1 23 3 32 0-35-20-80-20-115 0z m-58 101c0 31 12 60 34 82 22 22 52 34 82 34 29 0 59-12 82-34 22-22 34-51 34-82 0-31-12-61-34-82-4-4-8-7-12-11-15 9-31 6-47 4-8-1-15-2-23-2-8 0-16 1-24 2-16 2-32 5-47-4-4 4-8 7-11 11-22 21-34 51-34 82z m116-195c8 0 15-3 21-7-6-4-14-7-21-7-8 0-15 3-22 7 6 4 14 7 22 7z m0-75c-21 0-38 17-38 38 0 7 3 15 7 21 9-7 19-10 31-10 11 0 21 3 30 10 4-6 7-14 7-21 0-21-17-38-37-38z m59 201c2-1 3-2 5-2 1 0 3 1 4 2 38 38 38 99 0 137-2 3-6 3-9 0-2-2-2-6 0-9 33-33 33-86 0-119-2-3-2-7 0-9z m286 6c-23 24-53 36-84 38l0 54c24 3 43 24 43 49 0 28-22 50-50 50-27 0-49-22-49-50 0-25 19-46 43-49l0-54c-31-2-61-14-85-38-50-50-50-131 0-182 25-25 58-37 91-37 33 0 66 12 91 37 51 51 51 132 0 182z m-33 10c-9-3-20-1-32 0-8 1-17 3-26 3-8 0-17-2-25-3-12-1-23-3-32 0 17 10 37 15 57 15 20 0 40-5 58-15z m-58 94c-7 0-15 3-21 7 6 4 14 7 21 7 8 0 15-3 22-7-6-4-14-7-22-7z m0 75c21 0 38-17 38-38 0-7-3-15-7-21-9 7-19 10-31 10-11 0-21-3-30-10-4 6-7 14-7 21 0 21 17 38 37 38z m82-352c-45-45-118-45-164 0-22 22-34 51-34 82 0 31 12 60 34 82 4 4 8 7 12 11 8-5 16-6 25-6 7 0 15 1 22 2 8 1 15 2 23 2 8 0 16-1 24-2 16-2 32-5 47 4 4-4 8-7 11-11 22-22 34-51 34-82 0-31-12-60-34-82z m-13 151c-2 3-6 3-9 0-2-2-2-6 0-9 33-33 33-86 0-119-2-3-2-7 0-9 1-2 3-2 5-2 1 0 3 0 4 2 38 38 38 99 0 137z"/>
<glyph glyph-name="earrings-2" unicode="&#57366;" d="M171 322c9 5 16 15 16 27 0 15-11 28-26 31l0 10c31 3 55 29 55 61 0 33-27 61-61 61-34 0-62-28-62-61 0-32 25-58 55-61l0-10c-14-3-25-16-25-31 0-12 6-22 16-27l-69-203c-11-33-3-68 21-93 17-17 40-26 64-26 24 0 46 9 63 26 25 25 33 60 22 93z m-65 129c0 26 22 48 49 48 27 0 48-22 48-48 0-27-21-49-48-49-27 0-49 22-49 49z m42-84l0-18c0-4 3-6 7-6 3 0 6 2 6 6l0 18c8-3 13-10 13-18 0-10-9-19-19-19-11 0-19 9-19 19 0 8 5 15 12 18z m61-332c-14-14-34-22-54-22-21 0-40 8-55 22-21 21-28 52-18 80l69 202c1 0 3 0 4 0 1 0 3 0 4 0l69-202c9-28 2-59-19-80z m-116 61c1 0 1 0 1 0 3 0 6 2 7 5 1 4-2 7-5 8-4 1-7-2-8-5-1-4 2-7 5-8z m8-19c-1 3-4 5-8 5-3-1-5-5-4-8 0-3 3-5 6-5 0 0 1 0 1 0 4 1 6 4 5 8z m0 46c1-1 1-1 2-1 3 0 5 2 6 5 1 3-1 7-4 8-3 1-7-1-8-4-1-4 0-7 4-8z m9 26c0-1 1-1 2-1 2 0 5 2 6 5 1 3-1 7-4 8-4 1-7-1-8-4-1-4 0-7 4-8z m-7-93c-3-2-3-6-1-9 1-2 3-2 5-2 1 0 3 0 4 1 3 2 3 6 1 9-2 3-6 3-9 1z m16 119c0-1 1-1 2-1 2 0 5 2 6 5 1 3-1 7-4 8-4 1-7-1-8-4-2-4 0-7 4-8z m60-135c-3-1-5-5-3-9 1-2 3-3 6-3 0 0 1 0 2 0 3 2 5 6 3 9-1 3-5 5-8 3z m-24-5c0 0 0 0 0 0 0 0 0 0 0 0-4 0-7-3-7-7 0-3 3-6 7-6 0 0 0 0 0 0 0 0 0 0 0 0 4 0 6 3 6 6 0 4-2 7-6 7z m61 47c-3 1-7-2-7-5-1-3 1-7 4-8 1 0 1 0 2 0 3 0 5 2 6 5 1 3-1 7-5 8z m-2 27c-4-1-6-4-5-8 1-3 3-5 6-5 1 0 1 0 2 0 3 1 5 5 4 8 0 4-4 6-7 5z m-7-53c-3 2-7 2-9-1-2-3-2-7 1-9 1-1 2-1 4-1 2 0 4 1 5 2 2 3 2 7-1 9z m-71 170c1 0 2 0 2 0 3 0 5 2 6 5 1 3 0 7-4 8-3 1-7-1-8-4-1-4 1-7 4-9z m56-73c1-3 3-5 6-5 1 0 1 0 2 1 3 1 5 5 4 8-1 3-5 5-8 4-4-1-5-5-4-8z m-18 52c1-3 4-5 6-5 1 0 2 0 2 1 4 1 5 4 4 8-1 3-4 5-8 4-3-1-5-5-4-8z m9-26c1-3 3-5 6-5 1 0 1 0 2 1 3 1 5 4 4 8-1 3-5 5-8 4-3-1-5-5-4-8z m18-52c1-3 3-5 6-5 0 0 1 1 2 1 3 1 5 5 4 8-1 3-5 5-8 4-4-1-5-5-4-8z m-74 74c1-1 2-1 2-1 3 0 6 2 7 5 1 3-1 7-4 8-4 1-8-1-9-4-1-4 1-7 4-8z m4-161c-3 2-7 0-8-3-2-3-1-7 3-9 0 0 1 0 2 0 3 0 5 1 6 3 2 4 0 7-3 9z m40 186c1 0 2 0 2 1 4 1 6 4 4 8-1 3-4 5-8 4-3-1-5-5-4-8 1-3 4-5 6-5z m-16 19c0 0 0 0 0 0 3 0 6 3 6 7 0 3-3 6-6 6-4 0-7-3-7-7 0-3 3-6 7-6z m6-37c-1 2-3 4-6 4-3 0-5-2-6-4l-36-104c-5-16-1-33 11-45 8-8 19-13 31-13 12 0 22 5 31 13 12 12 16 29 10 45z m16-140c-6-6-14-9-22-9-8 0-16 3-22 9-8 8-11 21-7 32l29 86 29-86c4-11 1-24-7-32z m8 383c0 16-14 30-30 30-17 0-30-14-30-30 0-17 13-30 30-30 16 0 30 13 30 30z m-47 0c0 9 7 17 17 17 9 0 17-8 17-17 0-10-8-18-17-18-10 0-17 8-17 18z m304-332l-69 203c10 5 16 15 16 27 0 15-11 28-25 31l0 10c30 3 55 29 55 61 0 33-28 61-62 61-34 0-61-28-61-61 0-32 24-58 55-61l0-10c-15-3-26-16-26-31 0-12 7-22 16-27l-69-203c-11-33-3-68 22-93 17-17 39-26 63-26 24 0 47 9 64 26 24 25 32 60 21 93z m-133 332c0 26 21 48 48 48 27 0 49-22 49-48 0-27-22-49-49-49-27 0-48 22-48 49z m42-84l0-18c0-4 3-6 6-6 4 0 7 2 7 6l0 18c7-3 12-10 12-18 0-10-8-19-19-19-10 0-19 9-19 19 0 8 5 15 13 18z m61-332c-15-14-34-22-55-22-20 0-40 8-54 22-21 21-28 52-19 80l69 202c1 0 3 0 4 0 2 0 3 0 4 0l69-202c10-28 3-59-18-80z m4 74c-3-1-6-4-5-8 1-3 4-5 6-5 1 0 1 0 2 0 3 1 6 5 5 8-1 4-4 6-8 5z m-13 18c1-3 3-5 6-5 1 0 1 1 2 1 3 1 5 5 4 8-1 3-5 5-8 4-3-1-5-5-4-8z m-64 99c0 0 1 0 2 0 2 0 5 2 6 5 1 3-1 7-4 8-4 1-7-1-9-4-1-4 1-7 5-9z m-9-25c0-1 1-1 2-1 2 0 5 2 6 5 1 3-1 7-4 8-4 1-7-1-8-4-1-4 0-7 4-8z m27 44c0 0 0 0 0 0 4 0 7 3 7 7-1 3-3 6-7 6-3 0-6-3-6-7 0-3 3-6 6-6z m-36-70c1-1 1-1 2-1 3 0 5 2 6 5 1 3-1 7-4 8-3 1-7-1-8-4-1-4 0-7 4-8z m53 51c0 0 1 0 2 1 3 1 5 4 4 8-1 3-5 5-8 4-4-1-6-5-4-8 1-3 3-5 6-5z m-79-130c1 0 1 0 2 0 3 0 5 2 6 5 1 4-1 7-5 8-3 1-7-2-7-5-1-4 1-7 4-8z m8-19c0 3-4 5-7 5-4-1-6-5-5-8 1-3 3-5 6-5 1 0 1 0 2 0 3 1 5 4 4 8z m9 72c1-1 1-1 2-1 3 0 5 2 6 5 1 3-1 7-4 8-3 1-7-1-8-4-1-4 1-7 4-8z m64 56c1-3 4-5 7-5 0 0 1 0 2 1 3 1 5 4 4 8-2 3-5 5-9 4-3-1-5-5-4-8z m-73-82c1-1 2-1 2-1 3 0 5 2 6 5 1 3 0 7-4 8-3 1-7-1-8-4-1-4 1-7 4-8z m30-83c-3 2-7 0-8-3-2-3 0-7 3-9 1 0 2 0 3 0 2 0 4 1 5 3 2 4 1 7-3 9z m-28 16c-3-2-3-6-1-9 2-2 3-2 5-2 2 0 3 0 4 1 3 2 3 6 1 9-2 3-6 3-9 1z m76-16c-3-1-5-5-3-9 1-2 3-3 6-3 1 0 2 0 3 0 3 2 4 6 3 9-2 3-6 5-9 3z m-24-5c0 0 0 0 0 0 0 0 0 0 0 0-3 0-6-3-6-7 0-3 3-6 6-6 0 0 0 0 0 0 0 0 0 0 0 0l0 0c4 0 7 3 7 6 0 4-3 7-7 7z m52 21c-3 2-7 2-9-1-2-3-2-7 1-9 1-1 3-1 4-1 2 0 4 1 5 2 2 3 2 7-1 9z m10 26c-4 1-7-2-8-5-1-3 1-7 5-8 0 0 1 0 1 0 3 0 6 2 6 5 0 0 0 0 0 0 1 3-1 7-4 8z m-34 97c1-3 4-5 6-5 1 0 2 0 2 1 4 1 6 4 4 8-1 3-4 5-8 4-3-1-5-5-4-8z m9-26c1-3 4-5 6-5 1 0 2 0 2 1 4 1 5 5 4 8-1 3-5 5-8 4-3-1-5-5-4-8z m-31 55c-1 2-3 4-6 4-3 0-5-2-6-4l-35-104c-6-16-2-33 10-45 9-8 19-13 31-13 12 0 23 5 31 13 12 12 16 29 11 45z m16-140c-6-6-14-9-22-9-8 0-16 3-22 9-8 8-11 21-7 32l29 86 29-86c4-11 1-24-7-32z m8 383c0 16-13 30-30 30-16 0-30-14-30-30 0-17 14-30 30-30 17 0 30 13 30 30z m-47 0c0 9 8 17 17 17 10 0 17-8 17-17 0-10-7-18-17-18-9 0-17 8-17 18z"/>
<glyph glyph-name="garter" unicode="&#57367;" d="M437 369c4 10 11 20 20 28l23 22c1 1 2 4 2 6l-14 82c-1 2-2 3-3 4-2 1-4 1-6 1-64-28-133-42-203-42-70 0-139 14-203 42-2 0-4 0-6-1-1-1-2-2-3-4l-14-82c0-2 1-5 2-6l23-22c9-8 16-18 20-28 4-12 14-22 25-26l25-140c-31-6-60-17-85-33-2-1-3-4-3-6l44-159c0-3 3-5 6-5 0 0 1 0 1 0 3 1 5 4 4 8l-13 49c28 15 84 36 162 27l0-78c0-3 3-6 6-6 3 0 6 3 6 6l0 190c0 3-2 5-4 6-2 0-40 9-89 5l-25 136c2 1 4 2 5 3 6 3 13 2 18-2 10-7 21-10 33-10 2 0 4 0 5 0l21-30c9-13 24-21 39-21 15 0 30 8 39 21l21 30c1 0 3 0 5 0 12 0 23 3 33 10 5 4 12 5 18 2 1-1 3-2 5-3l-25-136c-49 4-87-5-89-5-2-1-4-3-4-6l0-190c0-3 3-6 6-6 3 0 6 3 6 6l0 78c78 9 134-12 162-27l-13-49c-1-4 1-7 4-8 0 0 1 0 1 0 3 0 6 2 6 5l44 159c0 2-1 5-3 6-25 16-54 27-85 33l25 140c11 4 21 14 25 26z m11 37c-10-9-18-21-22-33-3-7-8-13-15-17l-9 96c8 3 16 8 24 13l37 0 6-39z m-393 91c64-26 132-39 201-39 69 0 137 13 201 39l3-20-36 0c-1 0-3 0-4-1-22-16-50-23-78-18-1 0-3 0-4-1-24-13-54-15-80-6-1 0-3 0-4 0-26-9-56-7-80 6-1 1-3 1-4 1-28-5-56 2-78 18-1 1-3 1-4 1l-36 0z m31-124c-4 12-12 24-22 33l-21 20 6 39 37 0c8-5 16-10 24-13l-9-96c-7 4-12 10-15 17z m36 75c4-1 7-2 10-2l-10-100c0 0 0-1 1-1l5-33-9-2-7 35z m33-283l-10-2-20 111 10 2z m-32 122l-2 11 10 2 2-12z m4-96l3-12c-28-5-54-14-77-27l-3 10c23 14 49 23 77 29z m-51-122l-20 71c23 13 48 22 76 27l2-12c0-3 3-5 6-5 0 0 1 0 1 0l22 4c1 1 3 1 4 3 1 1 1 3 1 4l-2 10c34 2 62-1 75-4l0-70c-78 8-135-12-165-28z m165 122l0-11c-14 2-43 6-77 3l-2 12c37 3 68-2 79-4z m44 120c-7-10-18-15-29-15-11 0-22 5-29 15l-18 26c6 2 12 5 17 9 5 3 11 4 16 2 9-3 19-3 28 0 5 2 11 1 16-2 5-4 11-7 17-9z m62 43c-8-5-17-8-26-8-10 0-20 3-28 9-7 7-18 8-28 5-6-2-12-2-18 0-10 3-21 2-28-5-8-6-18-9-28-9-9 0-18 3-26 8-9 7-20 8-29 3l8 87c9 0 17 0 26 1 16-8 34-12 51-12 12 0 24 2 35 6 28-10 59-7 86 6 9-1 17-1 26-1l8-87c-9 5-20 4-29-3z m20-191l-10 2 20 111 10-2z m12 125l2 12 10-2-2-12z m-29-93l-2-12c-34 3-63-1-77-3l0 11c11 2 42 7 79 4z m-79-98l0 70c13 3 41 6 75 4l-2-10c0-3 2-6 5-7l22-4c0 0 1 0 1 0 1 0 3 1 4 1 1 1 2 3 2 4l2 12c28-5 53-14 76-27l-20-71c-30 16-87 36-165 28z m191 65l-3-10c-23 13-49 22-77 27l3 12c28-6 54-15 77-29z m-69 148l-9 2 5 33c1 0 1 1 1 1l-10 100c3 0 6 1 10 2l10-103z"/>
<glyph glyph-name="handbag" unicode="&#57368;" d="M512 72l-19 276c-2 24-22 42-46 42l-9 0c0 1 1 2 1 3 0 4-3 7-6 7l-51 0c-4 0-6-3-6-7 0-1 0-2 0-3l-3 0c-3 62-55 111-117 111-62 0-114-49-117-111l-3 0c0 1 0 2 0 3 0 4-2 7-6 7l-51 0c-3 0-6-3-6-7 0-1 1-2 1-3l-9 0c-24 0-44-18-46-42l-19-276c-1-13 4-27 13-37 10-10 23-16 37-16l30 0c0 0 0-1 0-2 0-3 3-6 6-6l30 0c4 0 6 3 6 6 0 1 0 2 0 2l268 0c0 0 0-1 0-2 0-3 2-6 6-6l30 0c3 0 6 3 6 6 0 1 0 2 0 2l30 0c14 0 27 6 37 16 9 10 14 24 13 37z m-256 417c58 0 105-47 105-105 0-58-47-105-105-105-58 0-105 47-105 105 0 58 47 105 105 105z m233-445c-7-8-16-12-27-12l-412 0c-11 0-20 4-27 12-8 7-11 17-10 28l19 275c1 17 15 31 33 31l74 0c3-62 55-111 117-111 62 0 114 49 117 111l74 0c18 0 32-14 33-31l19-275c1-11-2-21-10-28z m-144 320c-3 1-7-1-7-4-1-3 0-7 4-8 0 0 1 0 2 0 2 0 5 2 6 4 1 4-1 7-5 8z m-12 63c1 0 2 0 3 1 3 2 4 6 2 9-2 3-6 3-9 2-3-2-3-6-1-9 1-2 3-3 5-3z m8-43c0 0 0 0 0 0 0 0 0 0 0 0 0-4 3-6 6-6 0 0 0 0 0 0 4 0 6 2 7 6 0 0 0 0 0 0 0 0 0 0 0 0 0 3-3 6-7 6-3 0-6-3-6-6z m-5-44c-3 2-7 1-9-2-1-3-1-7 2-9 1 0 3-1 4-1 2 0 4 1 5 3 2 3 1 7-2 9z m2 68c0-3 3-5 6-5 0 0 1 1 1 1 4 1 6 4 5 8-1 3-5 5-8 4-4-1-5-5-4-8z m-22 39c2 0 3 0 5 2 2 2 1 6-1 9-3 2-7 2-9-1-2-3-2-6 1-9 1-1 2-1 4-1z m-95-140c-4 1-7 0-9-3-1-3 0-7 3-9 1 0 2 0 3 0 2 0 5 1 6 3 1 4 0 7-3 9z m-30 12c-2-2-2-6 1-9 1-1 3-1 4-1 2 0 4 1 5 2 2 3 2 7-1 9-2 2-6 2-9-1z m53-19c0 0 0 0 0 0-4 0-7-2-7-5-1-4 2-7 5-7 0-1 1-1 1-1 3 0 6 3 6 6 1 3-2 6-5 7z m68 20c-3-3-3-6-1-9 1-2 3-2 5-2 1 0 3 0 4 1 2 2 3 6 0 9-2 3-6 3-8 1z m-44-20c-3-1-6-4-5-7 0-3 3-6 6-6 0 0 0 0 1 0 3 1 6 4 5 8 0 3-4 5-7 5z m23 7c-3-2-4-5-3-9 1-2 3-3 6-3 1 0 2 0 2 0 4 2 5 5 3 9-1 3-5 4-8 3z m-124 97c0 0 1 0 1 0 3 0 6 1 6 4 1 3 0 7-4 8-3 1-7-1-8-4-1-4 1-7 5-8z m9 24c1 0 2-1 3-1 2 0 4 1 6 3 1 3 1 7-2 9-3 2-7 1-9-2-2-3-1-7 2-9z m-5-44c0 4-3 6-6 6-4 0-6-2-6-6 0-3 2-6 6-6 3 0 6 3 6 6z m3-24c-1 4-4 5-7 4-4-1-6-4-5-7 1-3 4-5 6-5 1 0 2 0 2 0 3 1 5 5 4 8z m117 101c1 0 2 0 3 0 2 0 5 1 6 3 1 4 0 7-3 9-4 1-7 0-9-3-1-4 0-7 3-9z m-107-123c-1 3-5 4-8 2-3-2-4-6-2-9 1-1 3-2 5-2 1 0 3 0 4 1 2 1 3 5 1 8z m59 130c0 0 1 0 1 0 3 1 6 4 5 7 0 4-3 6-7 6-3-1-6-4-5-8 0-3 3-5 6-5z m25 0c0 0 1 0 1 0 3 0 6 2 6 5 1 4-2 7-5 8-4 0-7-2-7-6-1-3 2-6 5-7z m-50-7c1 0 2 0 3 0 3 2 4 6 3 9-2 3-5 4-8 3-4-2-5-5-4-9 2-2 4-3 6-3z m-22-14c2 0 3 0 4 1 3 3 3 7 1 9-2 3-6 3-9 1-2-2-3-6 0-9 1-1 3-2 4-2z m60-137c41 0 74 33 74 74 0 41-33 74-74 74-41 0-74-33-74-74 0-41 33-74 74-74z m0 136c34 0 62-28 62-62 0-34-28-62-62-62-34 0-62 28-62 62 0 34 28 62 62 62z"/>
<glyph glyph-name="handbag-1" unicode="&#57369;" d="M510 196l-64 132c-4 7-11 12-19 12l-19 0c1 3 2 6 2 10 0 12-9 22-22 22-12 0-21-10-21-22 0-4 2-6 5-6 4 0 6 2 6 6 0 5 5 10 10 10 6 0 10-5 10-10 0-6-4-10-10-10l-54 0c-5 0-10 4-10 10 0 5 4 9 9 10l-3-7c-1-3 0-7 3-8 1 0 2 0 2 0 3 0 5 1 6 3l2 6c1-1 1-3 1-4 0-4 3-6 6-6 3 0 6 2 6 6 0 6-3 12-7 16l3 9c2 0 5 2 6 4 3 3 4 7 4 11-2 26-14 50-34 68-20 18-45 28-72 28-27 0-52-10-72-28-20-18-32-42-34-68 0-4 1-8 4-11 1-2 4-4 6-4l3-9c-4-4-7-10-7-16 0-4 3-6 6-6 3 0 6 2 6 6 0 1 0 3 1 4l2-6c1-2 3-3 6-3 0 0 1 0 2 0 3 1 4 5 3 8l-3 7c5-1 9-5 9-10 0-6-5-10-10-10l-54 0c-6 0-10 4-10 10 0 5 4 10 10 10 5 0 10-5 10-10 0-4 2-6 6-6 3 0 5 2 5 6 0 12-9 22-21 22-13 0-22-10-22-22 0-4 1-7 2-10l-19 0c-8 0-15-5-19-12l-64-132c-3-5-3-12 0-18l64-132c4-7 11-11 19-11l4 0c0-1-1-2-1-3 0-4 3-6 6-6l29 0c3 0 6 2 6 6 0 1-1 2-1 3l256 0c0-1-1-2-1-3 0-4 3-6 6-6l29 0c3 0 6 2 6 6 0 1-1 2-1 3l4 0c8 0 15 4 19 11l64 132c3 6 3 13 0 18z m-318 254c18 16 40 24 64 24 24 0 46-8 64-24 17-16 28-38 30-61 0-1-1-3-2-3-1 0-2 1-3 2-2 22-12 43-28 58-17 15-38 24-61 24-23 0-44-9-61-24-16-15-26-36-28-58-1-1-2-2-3-2-1 0-1 0-2 1 0 0 0 1 0 2 2 23 13 45 30 61z m-14-78c-1 0-3 0-4-1l-2 5c4 3 6 6 6 11 2 19 11 37 25 50 15 13 33 21 53 21 20 0 38-8 53-21 14-13 23-31 25-50 0-5 2-8 6-11l-2-5c-1 1-3 1-4 1-12 0-22-10-22-22 0-4 1-7 3-10l-19 0 0 4c0 3-2 6-6 6l-71 0c-3 0-6-3-6-6l0-4-16 0c2 3 3 6 3 10 0 12-10 22-22 22z m71-212c-16 3-29 15-32 31l32 0z m12 31l31 0c-3-16-15-28-31-31z m-40 12l0 12 67 0 0-12z m4 24c3 14 15 24 30 24 14 0 26-10 29-24z m30 36c-12 0-23-5-30-13l0 88 59 0 0-88c-7 8-18 13-29 13z m244-80l-64-131c-2-3-5-5-8-5l-342 0c-3 0-6 2-8 5l-64 131c-1 3-1 6 0 8l64 132c2 3 5 5 8 5l128 0 0-101c-2-1-4-3-4-6l0-18c-2-1-4-3-4-6 0-27 22-49 50-49 27 0 49 22 49 49 0 3-1 5-4 6l0 18c0 3-1 5-4 6l0 101 131 0c3 0 6-2 8-5l64-132c1-2 1-5 0-8z m-79 116c2 0 4 0 5 2 1 1 1 2 1 4 0 1 0 3-1 4-1 1-3 2-5 2-1 0-3-1-4-2-1-1-2-3-2-4 0-2 1-3 2-4 1-2 3-2 4-2z m41-91c1-2 3-3 5-3 1 0 2 0 3 1 3 1 4 5 3 8-2 3-5 4-8 2-3-1-5-5-3-8z m-4-63c-3 2-6 0-8-3-1-2 0-6 3-8 1 0 2 0 3 0 2 0 4 1 5 3 2 3 0 7-3 8z m-11-23c-3 1-7 0-8-3-1-3 0-6 3-8 1 0 1-1 2-1 3 0 5 2 6 4 1 3 0 6-3 8z m-8 133c1-2 3-3 5-3 1 0 2 0 3 1 3 1 4 5 3 8-2 2-5 4-8 2-3-1-4-5-3-8z m-4-157c-2 2-6 1-7-2-2-3-1-7 2-8 1-1 2-1 3-1 2 0 4 1 5 3 2 3 0 7-3 8z m15 134c1-2 4-3 6-3 1 0 2 0 2 0 3 2 5 5 3 8-1 3-5 4-8 3-3-2-4-5-3-8z m-22 47c1-2 3-4 5-4 1 0 2 1 2 1 3 1 5 5 3 8-1 3-5 4-8 3-3-2-4-5-2-8z m55-92c0-3-3-6-6-6-3 0-6 3-6 6 0 3 3 6 6 6 3 0 6-3 6-6z m-13-18c-3 1-7 0-8-3-2-3 0-7 3-8 0 0 1-1 2-1 2 0 5 2 6 4 1 3 0 6-3 8z m-49-93c-1 0-3-1-4-2-1-1-2-3-2-4 0-2 1-4 2-5 1-1 3-1 4-1 2 0 4 0 5 1 1 1 1 3 1 5 0 1 0 3-1 4-1 1-3 2-5 2z m-328 0c-2 0-4-1-5-2-1-1-1-3-1-4 0-2 0-4 1-5 1-1 3-1 5-1 1 0 3 0 4 1 1 1 2 3 2 5 0 1-1 3-2 4-1 1-3 2-4 2z m-14 200c0 0 1-1 2-1 2 0 4 2 5 4 2 3 1 6-2 8-3 1-7 0-8-3-2-3 0-7 3-8z m-23-47c0 0 1 0 2 0 2 0 5 1 6 3 1 3 0 6-3 8-3 1-7 0-8-3-2-3 0-6 3-8z m-4-63c-1 3-5 4-8 3-3-2-4-5-3-8 1-2 4-4 6-4 1 0 2 1 2 1 3 1 5 5 3 8z m12-24c-2 3-5 5-8 3-3-1-5-5-3-8 1-2 3-3 5-3 1 0 2 0 3 0 3 2 4 6 3 8z m22-46c-1 3-5 4-7 2-3-1-5-5-3-8 1-2 3-3 5-3 1 0 2 0 3 1 3 1 4 5 2 8z m-11 23c-1 3-5 4-8 3-3-2-4-5-3-8 1-2 3-4 6-4 1 0 1 1 2 1 3 2 4 5 3 8z m-31 87c1-1 2-1 3-1 2 0 4 1 5 3 2 3 0 7-3 8-3 2-6 1-8-2-1-3 0-7 3-8z m-1-19c0 3-3 6-6 6-4 0-6-3-6-6 0-3 3-6 6-6 3 0 6 3 6 6z m24 66c1-1 2-1 3-1 2 0 4 1 5 3 1 3 0 7-3 8-3 2-6 0-8-2-1-3 0-7 3-8z m26 58c-2 0-4-1-5-2-1-1-1-3-1-4 0-2 0-3 1-4 1-2 3-2 5-2 1 0 3 0 4 2 1 1 2 2 2 4 0 1-1 3-2 4-1 1-3 2-4 2z m163-66c-2 0-4-1-5-2-1-1-1-2-1-4 0-2 0-3 1-4 1-1 3-2 5-2 1 0 3 1 4 2 1 1 2 2 2 4 0 2-1 3-2 4-1 1-3 2-4 2z"/>
<glyph glyph-name="handbag-2" unicode="&#57370;" d="M463 288c0 3-2 5-5 5l-84 0 0 101c0 65-53 118-118 118-65 0-118-53-118-118l0-101-84 0c-3 0-5-2-5-5-4-86 5-174 27-271 2-10 11-17 21-17l318 0c10 0 19 7 21 17 22 97 31 185 27 271z m-11-7c0-2 0-4 0-6l-78 0 0 6z m-302-32l12 0 0-48-12 0z m188 44l-164 0 0 101c0 46 37 83 82 83 45 0 82-37 82-83z m-164-12l164 0 0-6-164 0z m176-32l12 0 0-48-12 0z m-94 251c58 0 106-47 106-106l0-133-12 0 0 133c0 52-42 94-94 94-52 0-94-42-94-94l0-133-12 0 0 133c0 59 48 106 106 106z m-118-219l0-6-78 0c0 2 0 4 0 6z m287-262c-1-4-5-7-10-7l-318 0c-5 0-9 3-9 7-20 87-29 167-28 245l78 0 0-69c0-3 3-6 6-6l24 0c3 0 6 3 6 6l0 69 164 0 0-69c0-3 3-6 6-6l24 0c3 0 6 3 6 6l0 69 78 0c1-78-8-158-27-245z m-134 201l-70 0c-3 0-5-2-5-5l0-48c0-3 2-6 5-6l70 0c3 0 5 3 5 6l0 48c0 3-2 5-5 5z m-6-47l-58 0 0 36 58 0z m-48 21c2 0 3 1 5 2 1 1 1 2 1 4 0 1 0 3-1 4-2 1-3 2-5 2-1 0-3-1-4-2-1-1-1-3-1-4 0-2 0-3 1-4 1-1 3-2 4-2z m38 0c1 0 3 1 4 2 1 1 1 2 1 4 0 1 0 3-1 4-1 1-3 2-4 2-2 0-3-1-5-2-1-1-1-3-1-4 0-2 0-3 1-4 2-1 3-2 5-2z m-38-18c2 0 3 0 5 1 1 2 1 3 1 5 0 1 0 3-1 4-2 1-3 2-5 2-1 0-3-1-4-2-1-1-1-3-1-4 0-2 0-3 1-5 1-1 3-1 4-1z m38 0c1 0 3 0 4 1 1 2 1 3 1 5 0 1 0 3-1 4-1 1-3 2-4 2-2 0-3-1-5-2-1-1-1-3-1-4 0-2 0-3 1-5 2-1 3-1 5-1z"/>
<glyph glyph-name="handbag-3" unicode="&#57371;" d="M476 244l-6 16c11 11 16 27 10 42l-12 31c-4 11-12 20-23 23l0 38c0 65-53 118-118 118l-142 0c-65 0-118-53-118-118l0-38c-11-3-19-12-23-23l-12-31c-6-15-1-31 10-42l-6-16c-8-21-12-43-12-66l0-97c0-45 37-81 81-81l302 0c44 0 81 36 81 81l0 97c0 23-4 45-12 66z m-291 255l142 0c58 0 105-47 105-105l0-35-13 0 0 35c0 50-41 91-92 91l-142 0c-51 0-92-41-92-91l0-35-13 0 0 35c0 58 47 105 105 105z m25-118c0 12 10 22 23 22 2 0 4 0 6-1-5-6-7-13-7-21 0-8 2-15 7-21-2-1-4-1-6-1-13 0-23 10-23 22z m35 0c0 12 10 22 22 22 12 0 22-10 22-22 0-12-10-22-22-22-12 0-22 10-22 22z m22 35c-6 0-12-1-17-4-5 3-11 4-17 4-20 0-36-16-36-35 0-8 3-16 8-22l-98 0 0 35c0 43 35 78 78 78l142 0c43 0 78-35 78-78l0-35-110 0c5 6 8 14 8 22 0 19-16 35-36 35z m-223-118l12 31c4 10 13 16 24 16l352 0c11 0 20-6 24-16l12-31c3-8 1-17-3-24l-17 45c-3 9-13 16-23 16l-338 0c-10 0-20-7-23-16l-17-45c-4 7-6 16-3 24z m430-217c0-37-30-68-67-68l-302 0c-37 0-67 31-67 68l0 97c0 21 3 42 11 62l27 74c2 4 6 7 11 7l338 0c5 0 9-3 11-7l27-74c8-20 11-41 11-62l0-97z"/>
<glyph glyph-name="handbag-4" unicode="&#57372;" d="M508 50l-13 244c-2 25-23 45-48 45l-71 0 0 14c0 8-7 14-15 14l-3 0c-5 40-17 76-34 102-19 28-43 43-68 43-25 0-49-15-68-43-17-26-29-62-34-102l-3 0c-8 0-15-6-15-14l0-14-71 0c-25 0-46-20-48-45l-13-244c-1-13 3-26 12-35 10-10 22-15 35-15l410 0c13 0 25 5 35 15 9 9 13 22 12 35z m-144 303l0-14-42 0 0 14c0 1 1 2 2 2l1 0c3-6 9-11 17-11 5 0 9 2 13 6 1 1 2 3 3 5l3 0c2 0 3-1 3-2z m-38-25l0-317-140 0 0 317z m-137 39c3 26 10 50 20 69 14 27 31 42 47 42 16 0 33-15 47-42 10-19 17-43 20-69-7-1-13-7-13-14l0-14-108 0 0 14c0 7-6 13-13 14z m-24-5c9 82 47 139 91 139 21 0 41-14 58-39 17-25 29-60 33-100 1-2 0-3-1-5-1-1-3-2-4-2-3 0-6 3-6 6-4 30-12 58-23 81-15 30-36 47-57 47-21 0-42-17-57-47-11-23-19-51-23-81 0-3-3-6-6-6-1 0-3 1-4 2-1 2-2 3-1 5z m-17-9c0 1 1 2 3 2l3 0c1-2 2-4 3-5 4-4 8-6 13-6 8 0 14 5 17 11l1 0c1 0 2-1 2-2l0-14-42 0z m-123-330c-7 7-10 16-10 26l14 245c1 19 17 34 36 34l87 0 0-317-101 0c-10 0-19 4-26 12z m139-12l0 317 11 0 0-317z m173 0l0 317 11 0 0-317z m150 12c-7-8-16-12-26-12l-101 0 0 317 87 0c19 0 35-15 36-34l14-245c0-10-3-19-10-26z m-266 269l70 0c3 0 6 2 6 5l0 20c0 3-3 5-6 5l-70 0c-3 0-6-2-6-5l0-20c0-3 3-5 6-5z m6 19l58 0 0-8-58 0z"/>
<glyph glyph-name="hat" unicode="&#57373;" d="M511 128l-48 100-22 138c-2 14-13 25-27 29 0 0 0 0 0 0l0 0c-103 25-213 25-316 0l0 0c-14-4-25-15-27-29l-22-138-48-100c-1-1-1-3 0-5 0-1 2-3 4-3 83-14 167-22 251-22 84 0 168 8 251 22 2 0 4 2 4 3 1 2 1 4 0 5z m-57 92l36-74c-155-25-313-25-468 0l36 74c131-16 265-16 396 0z m-393 11l6 39c63-7 126-11 189-11 63 0 126 4 189 11l6-39c-130-15-260-15-390 0z m347 154c-100-11-204-11-304 0 99 23 204 23 304 0z m-326-21c1 4 2 8 5 11 55-7 112-10 169-10 57 0 114 3 169 10 3-3 4-7 5-11l13-82c-62-7-125-11-187-11-62 0-125 4-187 11z m-68-234l3 5c79-13 159-19 239-19 80 0 160 6 239 19l3-5c-161-27-323-27-484 0z"/>
<glyph glyph-name="jacket" unicode="&#57374;" d="M404 452c0 1 0 2 0 2-1 2-2 3-4 3l-69 17-25 20c-1 3-2 5-4 8-12 11-42 10-46 10-4 0-34 1-46-10-2-3-3-5-4-8l-25-20-69-17c-2 0-3-1-4-3 0 0-1-6-1-6l-29-441c0-1 1-3 2-4 1-1 2-2 4-2l43-1c0 0 0 0 0 0 2 0 3 1 4 2 1 1 2 2 2 3 0 1 0 5 0 12l82 0c3 0 5 2 6 4l5 21 60 0 5-21c1-2 3-4 6-4l82 0c0-7 0-11 0-12 0-1 1-2 2-3 1-1 2-2 4-2 0 0 0 0 0 0l43 1c2 0 3 1 4 2 1 1 2 3 2 4l-29 439z m-148-119c-13 48-36 139-36 140 8 5 25 6 36 6 0 0 0 0 0 0 11 0 28-1 36-6 0-1-23-92-36-140z m-43 123c9-38 25-100 38-146 4-18 8-33 11-44-20 22-60 73-97 177l28-5c2 0 4 0 6 2z m49-145c12 47 28 107 37 145l14-16c2-2 4-2 6-2l28 5c-28-78-57-126-79-155-2 7-4 15-6 23z m-44 183c6 5 26 7 38 7 0 0 0 0 0 0 12 0 32-1 38-7 1-1 1-2 1-3 0-1 0-2-1-7-13 6-34 6-38 6-3 0-25 0-38-6-1 5-1 6-1 7 0 1 0 2 1 3z m-128-482l27 414c11-27 28-77 39-127-25-85-33-254-34-288z m50 105c5 66 12 119 21 156 5-34 4-71-5-105-6-25-13-55-19-81 1 10 2 20 3 30z m17 4l26 0-3-8c-5-14-16-24-31-29l-1 0c3 12 6 24 9 37z m30 11l-28 0c1 3 2 6 2 9l29 0z m24-104l-75 0c2 8 5 24 9 43l8 2c17 6 31 19 37 36l13 36c1 1 0 3-1 5-1 1-2 2-4 2l-34 0c1 4 2 9 3 13 10 41 11 84 3 125-15 68-41 137-49 158l64 15c0 0 1 1 2 1l20 17c1-3 2-7 3-12l-18-20-34 7c-2 0-4 0-6-2-1-1-1-4-1-5 49-140 102-191 115-202z m18 25l27 107 27-107z m72-25l-39 155 16 65c0 1 0 2 0 3 0 0 0 1-1 3-1 4-3 11-5 20 23 30 57 83 89 175 0 1 0 4-1 5-2 2-4 2-6 2l-34-7-18 20c1 5 2 9 3 12l20-17c1 0 2-1 2-1l64-15c-8-21-34-90-49-158-8-41-7-84 3-125 1-4 2-9 3-13l-35 0c-2 0-4-1-5-2-1-2-1-4 0-5l13-36c6-17 19-30 37-36l9-2 0 0c4-19 7-35 9-43l-75 0z m63 55l-3 1c-14 5-25 15-30 29l-3 8 27 0c3-13 6-26 9-38z m-40 49l-3 9 30 0c0-3 1-6 2-9z m32 36c-9 34-10 71-5 105 9-37 16-90 21-156 1-10 2-20 3-30-6 26-13 56-19 81z m34-157c-1 34-9 203-34 288 11 50 28 100 39 127l27-414z m-133 236c-2 2-4 3-7 3-2 0-4-1-6-3-2-2-3-4-3-6 0-3 1-5 3-7 2-1 4-2 6-2 3 0 5 1 7 2 1 2 2 4 2 7 0 2-1 4-2 6z m-158-219c-1 0-2 0-4-1-1-1-1-3-1-4 0-2 0-3 1-4 2-1 3-2 4-2 2 0 3 1 4 2 1 1 2 2 2 4 0 1-1 3-2 4-1 1-2 1-4 1z m308-9c1-1 3-2 4-2 2 0 3 1 4 2 1 1 2 2 2 4 0 1-1 3-2 4-1 1-2 1-4 1-1 0-3 0-4-1-1-1-1-3-1-4 0-2 0-3 1-4z"/>
<glyph glyph-name="jacket-1" unicode="&#57375;" d="M412 449c-1 2-2 3-4 4-58 23-81 35-88 40l-19 17c-1 2-4 2-6 1 0 0-39-22-39-22 0 0-39 22-39 22-2 1-5 1-6-1l-19-17c-7-5-30-17-88-40-2-1-3-2-4-4 0-2-36-146-36-418 0-3 3-6 6-6l53 0c3 0 5 3 6 6l16 203c1-14 1-28 1-39 0-36-9-188-9-189 0-2 1-3 2-4 1-1 2-2 4-2l83 0c2 0 5 2 5 4l25 83 25-83c0-2 3-4 5-4l83 0c2 0 3 1 4 2 1 1 2 2 2 4 0 1-9 153-9 189 0 11 0 25 1 39l16-203c1-3 3-6 6-6l53 0c3 0 6 3 6 6 0 272-36 416-36 418z m-107 43l34-33-9-4c-2-1-3-2-3-4 0-1 0-3 1-4l11-17c-5-12-26-69-64-141 4 15 8 32 12 50 14 64 20 115 18 153z m-32-36l1 7 19-13c-2-36-10-77-18-112z m20 41c1-10 1-22 1-34l-28 19z m-28-202c-3-13-7-24-9-33-2 7-5 16-7 27l16 10z m0 16l-18-10 1 31 16 10z m-1 43l-16-9 1 31 14 8z m-1 43l-14-8 1 31 12 7z m-13 36l0 18 12 0 0-11z m6 42l8-5-1-8-14 0-1 8z m-37 22l27-15-28-19c0 12 0 24 1 34z m20-41l-2-118c-8 35-16 76-18 112l19 13z m-32 36c-2-38 4-89 18-153 4-18 8-35 12-50-38 72-59 129-64 141l11 17c1 1 1 3 1 4 0 2-1 3-3 4l-9 4z m-89-455l-43 0c1 214 23 348 32 393 16-42 31-118 32-126z m104-26l-73 0c1 19 4 77 6 124l38-3c0 0 0 0 0 0 3 0 5 2 6 5l3 35c0 1 0 3-1 4-1 1-2 2-4 2l-40 3c0 6 0 11 0 14 0 37-6 109-6 110-1 0-1 0-1 0l0 0c0 4-18 98-37 139 22 9 38 16 51 22l-4-4c-2-1-2-3-2-5 0-2 1-3 3-4l10-5-9-14c-1-1-1-3 0-5 0 0 30-85 88-188l0-134z m-65 159l34-3-3-24-32 3c0 9 1 17 1 24z m205 135l0 0c0 0 0 0-1 0 0-1-6-73-6-110 0-3 0-8 0-14l-40-3c-2 0-3-1-4-2-1-1-1-3-1-4l3-35c1-3 3-5 6-5 0 0 0 0 0 0l38 3c2-47 5-105 6-124l-73 0-28 96 0 134c58 103 88 188 88 188 1 2 1 4 0 5l-9 14 10 5c2 1 3 2 3 4 0 2 0 4-2 5l-4 4c13-6 29-13 51-22-19-41-37-135-37-139z m-6-159l-32-3-3 24 34 3c0-7 1-15 1-24z m38-109l-21 267c1 8 16 84 32 126 9-45 31-179 32-393z m-159 187c2 0 3 1 4 2 1 1 2 3 2 4 0 1-1 3-2 4-1 1-2 2-4 2-1 0-3-1-4-2-1-1-1-3-1-4 0-1 0-3 1-4 1-1 3-2 4-2z m0-39c-1 0-3-1-4-2-1-1-1-2-1-4 0-1 0-3 1-4 1-1 3-1 4-1 2 0 3 0 4 1 1 1 2 3 2 4 0 2-1 3-2 4-1 1-2 2-4 2z m0-51c-1 0-3-1-4-2-1-1-1-2-1-4 0-1 0-3 1-4 1-1 3-1 4-1 2 0 3 0 4 1 1 1 2 3 2 4 0 2-1 3-2 4-1 1-2 2-4 2z"/>
<glyph glyph-name="long-dress" unicode="&#57376;" d="M318 306c-3 12-3 25 1 37l2 5c8 23 10 49 6 74 0 2 0 5 0 8l12 60c0 2-1 5-3 6l-35 16c-1 0-2 0-2 0l-86 0c0 0-1 0-2 0l-35-16c-2-1-3-4-3-6l12-60c0-3 0-6 0-8-4-25-2-51 6-74l2-5c4-12 4-25 1-37-20-64-26-131-20-198l10-97c0-2 2-4 4-5 23-4 45-6 68-6 23 0 45 2 68 6 2 1 4 3 4 5l10 97c6 67 0 134-20 198z m-122 114c0 4 0 8-1 12l-6 31c13-5 27-6 40 0 8-5 18-8 27-8 9 0 19 3 27 8 13-6 27-5 40 0l-6-31c-1-4-1-8-1-12 2-9 2-18 2-27-41-8-83-8-124 0 0 9 0 18 2 27z m91 81l-1 0c-8-9-19-13-30-13-11 0-22 4-30 13l-1 0z m-75-1l6-6c10-11 24-17 38-17 14 0 28 6 38 17l6 6 28-12-3-12c-12-8-27-9-40-3-2 1-4 1-6 0-14-10-32-10-46 0-2 1-4 1-6 0-13-6-28-5-40 3l-3 12z m-17-118c20-4 40-6 61-6 21 0 41 2 61 6-1-10-3-21-7-31l-1-5c-3-7-4-14-4-21-32-6-66-6-98 0 0 7-1 14-4 21l-1 5c-4 10-6 21-7 31z m-1-366l-1 6c21-3 42-5 63-5 21 0 42 2 63 5l-1-6c-41-7-83-7-124 0z m133 93l-7-76c-43-7-85-7-128 0l-7 76c-7 66 0 131 19 194 1 4 2 8 2 12 17-4 33-5 50-5 17 0 33 1 50 5 0-4 1-8 2-12 19-63 26-128 19-194z"/>
<glyph glyph-name="long-dress-1" unicode="&#57377;" d="M318 306c-1 58-11 76-20 90 8 23 12 68 12 70 0 2 0 3-1 4l-18 20 6 15c2 2 0 5-2 7-3 1-6-1-7-3l-7-17-11-8c-8-6-20-6-28 0l-11 8-7 17c-1 2-4 4-7 3-2-2-4-5-3-7l6-15-17-20c-1-1-2-2-2-4 1-2 4-47 12-70-8-14-18-32-19-90-1-59-8-269-8-271 0-2 1-5 4-5l23-6 0-3c0-2 2-4 4-5l38-6 0-5c0-1 1-3 2-4 1-1 2-1 3-1 1 0 2 0 2 0l35 11c2 1 4 3 4 5l0 8 21 5c2 0 4 3 4 5 0 2-7 213-8 272z m-106 159l15 17 9-6c12-9 28-9 40 0l9 6 15-17c-1-9-5-46-11-65-22-4-44-4-66 0-6 19-10 56-11 65z m88-430l-5 235c0 3-2 5-5 5-3 0-5-2-5-5l5-250-24-8-3 202c0 3-2 6-5 6-3-1-5-3-5-6l2-194-32 6 7 278c0 3-3 6-5 6-3 0-6-3-6-5l-6-270-16 4c1 30 7 212 8 266 0 54 9 71 17 85 11-3 22-4 34-4 11 0 23 1 34 4 8-14 16-31 17-85 1-54 7-236 8-267z"/>
<glyph glyph-name="necklace" unicode="&#57378;" d="M512 359c0 56-43 109-115 140-3 1-7 0-9-3-2-3-1-7 2-9 36-26 55-61 55-99 0-52-37-152-92-215-18-2-33-14-39-30-10-2-19-6-27-12-9 5-19 8-30 8-12 0-23-3-32-8-7 6-17 10-27 12-6 16-21 28-39 30-55 63-92 163-92 215 0 38 19 73 55 99 2 1 3 3 3 6 0 3-3 7-7 7 0 0 0 0 0 0 0 0 0 0 0 0 0 0 0 0 0 0 0 0 0 0 0 0 0 0 0 0 0 0 0 0 0 0 0 0 0 0 0 0 0 0 0 0 0 0 0 0 0 0 0 0 0 0 0 0 0 0 0 0 0 0 0 0 0 0 0 0 0 0 0 0 0 0 0 0 0 0 0 0 0 0 0 0 0 0 0 0 0 0 0 0 0 0 0 0 0 0 0 0 0 0 0 0 0 0 0 0 0 0 0 0 0 0 0 0 0 0 0 0 0 0 0 0 0 0 0 0 0 0 0 0 0 0 0 0 0 0 0 0 0 0 0 0 0 0 0 0 0 0 0 0 0 0 0 0 0 0-1 0-1 0 0 0 0 0 0 0 0 0 0 0 0 0 0 0 0 0 0 0 0 0 0 0 0 0 0 0 0 0 0 0 0 0 0 0 0 0 0 0 0 0 0 0 0 0 0 0 0 0 0 0 0 0 0 0 0 0 0 0 0 0 0 0 0 0 0 0 0 0 0 0 0 0 0 0 0 0 0 0 0 0 0 0 0 0 0 0 0 0 0 0 0 0 0 0 0 0 0 0 0 0 0 0 0 0 0 0 0 0 0 0 0 0 0 0 0 0 0-1 0 0 0-1 0-1 0-1 0 0 0 0 0 0 0 0 0 0 0 0 0 0 0 0 0 0 0 0 0 0 0 0 0 0 0 0 0 0 0 0 0 0 0 0 0 0 0 0 0 0 0 0 0 0 0 0 0 0 0 0 0 0 0 0 0 0 0 0 0 0 0 0 0 0 0 0 0 0 0 0 0 0 0 0 0 0-1 0-1 0-2 0-72-31-115-84-115-140 0-28 11-68 29-110 20-44 46-86 76-119 0-1-1-3-1-5 0-22 16-42 37-47 6-23 27-39 51-39 4 0 8 0 12 1 12-16 31-28 53-28 21 0 40 11 52 28 4-1 7-1 11-1 24 0 45 16 51 39 21 5 37 25 37 47 0 2-1 4-1 5 29 33 56 75 76 119 18 41 29 81 29 110z m-498 0c0 39 23 76 65 104-17-22-26-48-26-75 0-53 35-150 89-216-15-3-27-13-33-26-59 70-95 164-95 213z m104-234c0 19 16 35 35 35 13 0 24-7 30-18-24-4-42-24-43-49-13 5-22 18-22 32z m74-72c-19 0-35 13-38 32 0 2-1 4-1 6 0 21 18 38 39 38 0 0 1 0 1 0 8 0 15-3 21-7-13-11-21-28-21-46 0-8 2-16 5-23-2 0-4 0-6 0z m65-27c-28 0-50 22-50 50 0 27 22 49 50 49 27 0 49-22 49-49 0-28-22-50-49-50z m101 59c-3-19-19-32-38-32-1 0-3 0-4 0 2 7 4 15 4 23 0 18-8 35-21 47 6 4 13 6 20 6 0 0 1 0 1 0 21 0 39-17 39-38 0-2-1-4-1-6z m14 8c-1 25-19 45-43 49 6 11 17 18 30 18 19 0 35-16 35-35 0-14-9-27-22-32z m-2 79c54 66 89 163 89 216 0 27-9 53-26 75 42-28 65-65 65-104 0-50-36-143-95-213-6 13-18 23-33 26z m-113-59c-21 0-37-17-37-37 0-21 16-37 37-37 20 0 37 16 37 37 0 20-17 37-37 37z m0-61c-13 0-24 11-24 24 0 13 11 23 24 23 12 0 23-10 23-23 0-13-11-24-23-24z"/>
<glyph glyph-name="necklace-1" unicode="&#57379;" d="M408 190l0 35c26 39 39 72 39 100 0 103-85 187-191 187-106 0-191-84-191-187 0-28 13-61 39-100l0-35c-9-2-16-10-16-20 0-12 10-22 22-22 11 0 21 10 21 22 0 10-6 18-16 20l0 19c7-9 14-18 21-27l0-26c-9-3-15-11-15-21 0-12 9-22 21-22 12 0 22 10 22 22 0 10-7 18-16 21l0 12c4-4 7-7 11-11 3-4 7-8 10-12l0-24c-9-3-16-11-16-21 0-12 10-22 22-22 12 0 22 10 22 22 0 10-7 18-16 21l0 12c7-7 14-14 21-21l0-26c-9-3-16-11-16-21 0-12 10-22 22-22 12 0 22 10 22 22 0 10-7 18-16 21l0 15c17-16 31-28 36-32l0-12c-13-2-23-14-23-28 0-16 13-29 29-29 16 0 29 13 29 29 0 14-10 26-23 28l0 12c5 4 19 16 36 32l0-15c-9-3-16-11-16-21 0-12 10-22 22-22 12 0 22 10 22 22 0 10-7 18-16 21l0 26c7 7 14 14 21 21l0-12c-9-3-16-11-16-21 0-12 10-22 22-22 12 0 22 10 22 22 0 10-7 18-16 21l0 24c3 4 7 8 10 12 4 4 7 7 11 11l0-12c-9-3-16-11-16-21 0-12 10-22 22-22 12 0 21 10 21 22 0 10-6 18-15 21l0 26c7 9 14 18 21 27l0-19c-10-2-16-10-16-20 0-12 10-22 21-22 12 0 22 10 22 22 0 10-7 18-16 20z m-289-20c0-6-4-10-9-10-6 0-10 4-10 10 0 5 4 9 10 9 5 0 9-4 9-9z m33-35c0-6-4-10-10-10-5 0-9 4-9 10 0 5 4 10 9 10 6 0 10-5 10-10z m33-35c0-6-4-10-10-10-5 0-10 4-10 10 0 5 5 10 10 10 6 0 10-5 10-10z m33-35c0-6-5-10-10-10-5 0-10 4-10 10 0 5 5 10 10 10 5 0 10-5 10-10z m96 0c0-6-5-10-10-10-5 0-10 4-10 10 0 5 5 10 10 10 5 0 10-5 10-10z m33 35c0-6-5-10-10-10-6 0-10 4-10 10 0 5 4 10 10 10 5 0 10-5 10-10z m32 35c0-6-4-10-9-10-6 0-10 4-10 10 0 5 4 10 10 10 5 0 9-5 9-10z m-106-106c0-9-8-17-17-17-9 0-17 8-17 17 0 9 8 17 17 17 9 0 17-8 17-17z m-17 50c-26 23-180 157-180 246 0 96 81 175 180 175 99 0 180-79 180-175 0-89-154-223-180-246z m146 81c-5 0-9 4-9 10 0 5 4 9 9 9 6 0 10-4 10-9 0-6-4-10-10-10z"/>
<glyph glyph-name="nightie" unicode="&#57380;" d="M434 56c0 2 0 3 0 4 0 0 0 0 0 0 1 5-1 10-4 14-3 4-7 6-11 6l-67 282 19 68 5 9c3 4 3 9 1 13-2 4-6 7-10 8-2 1-3 1-4 1-2 1-3 2-5 3-2 2-3 3-5 4l12 37c1 3-1 6-4 7-2 1-5-1-6-4l-13-38c-2 0-4 0-6-1-2 0-5-1-6 0-2 0-5 1-7 2-3 1-7 2-10 2-5 0-9-2-12-4-2-1-4-2-5-3-2 0-4 0-6-1-4 0-8 0-12-2-3-3-6-6-8-9-1-2-2-3-3-4-3-2-4-2-6-3-3 0-7 0-10 0-2 1-3 1-6 3-1 1-2 2-3 4-2 3-5 6-8 9-4 2-8 2-12 2-2 1-4 1-6 1-1 1-3 2-5 3-3 2-7 4-12 4-3 0-7-1-10-2-2-1-5-2-7-2-1-1-4 0-6 0-2 1-4 1-6 1l-13 38c-1 3-4 5-6 4-3-1-5-4-4-7l12-37c-2-1-3-2-5-4-2-1-3-2-5-3-1 0-2 0-4-1-4-1-8-4-10-8-2-4-2-9 1-13l5-9 19-68-67-282c-4 0-8-2-11-6-3-4-5-9-4-14 0 0 0 0 0 0 0-1 0-2 0-4-1-4-1-8 1-12 2-3 6-5 9-7 2-1 3-1 4-2 1-1 2-2 3-3 2-3 5-6 9-8 7-2 15-3 22-4 6-1 11-1 16-2 5-2 10-4 15-5 7-3 14-6 22-7 8-1 15-1 23-1 5 1 10 1 16 0 5 0 10-1 16-2 7-2 14-3 22-3 8 0 15 1 22 3 6 1 11 2 16 2 6 1 11 1 16 0 8 0 15 0 23 1 8 1 15 4 22 7 5 1 10 3 15 5 5 1 10 1 16 2 7 1 15 2 22 4 4 2 7 5 9 8 1 1 2 2 3 3 1 1 2 1 4 2 3 2 7 4 9 7 2 4 2 8 1 12z m-289 392c0 1 1 2 3 2 1 0 3 1 5 2 3 1 5 2 7 4 3 2 5 3 7 4 2 0 4 0 7-1 3-1 6-1 9-1 4 0 7 2 10 3 2 1 5 2 6 2 2 0 4-2 7-3 2-1 4-3 7-4 3-1 6-1 8-1 3 0 6-1 7-2 2-1 4-3 5-5 2-2 4-5 6-6 4-3 7-4 9-5 5-1 11-1 16 0 2 1 5 2 9 5 2 1 4 4 6 6 1 2 3 4 5 5 1 1 4 2 7 2 2 0 5 0 8 1 3 1 5 3 7 4 3 1 5 3 7 3 1 0 4-1 6-2 3-1 6-3 10-3 3 0 6 0 9 1 3 1 5 1 7 1 2-1 4-2 7-4 2-2 4-3 7-4 2-1 4-2 5-2 2 0 3-1 3-2 1-1 1-2 0-4l-2-4-7 4c-28 20-66 16-91-9l-11-12-11 12c-25 25-63 29-91 9l-7-4-2 4c-1 2-1 3 0 4z m7-18l8 5c24 17 56 14 77-7l15-16c1-1 3-2 4-2 1 0 3 1 4 2l15 16c21 21 53 24 77 7l8-5-16-61c-3 1-6 2-9 3l7 24c1 3-1 6-4 7-3 1-5-1-6-4l-7-25c-8 2-15 3-22 5l2 16c0 3-2 5-4 6-3 0-6-2-6-5l-3-16c-24 3-48 3-72 0l-3 16c0 3-3 5-6 5-2-1-4-3-4-6l2-16c-7-2-14-3-22-5l-7 25c-1 3-3 5-6 4-3-1-5-4-4-7l7-24c-3-1-6-2-9-3z m-50-360l68 288c7 3 15 5 23 7l-9-68c-1-3 1-6 4-6 0 0 1 0 1 0 3 0 5 2 5 4l10 72c7 1 14 2 21 3l-2-27c0-3 2-5 5-6 0 0 0 0 0 0 3 0 5 3 5 5l2 29c14 1 28 1 42 0l2-29c0-2 2-5 5-5 0 0 0 0 0 0 3 1 6 3 5 6l-1 27c6-1 13-2 20-3l10-72c0-2 2-4 5-4 0 0 1 0 1 0 3 0 5 3 4 6l-9 68c8-2 16-4 23-7l68-288c2-9-2-17-10-20-2 0-3-1-5-1l-31 141c-1 3-4 5-7 4-3 0-4-3-4-6l32-142c-12-4-25-7-38-9l-8 48c0 3-3 5-6 5-3-1-5-4-4-6l8-49c-3-1-6-1-9-2l-11 71c0 3-3 5-6 5-3-1-5-3-4-6l11-71c-21-3-41-5-62-5-21 0-41 2-62 5l11 71c1 3-1 5-4 6-3 0-6-2-6-5l-11-71c-3 1-6 1-9 2l8 49c1 2-1 5-4 6-3 0-6-2-6-5l-8-48c-13 2-26 5-38 9l32 142c0 3-1 6-4 6-3 1-6-1-7-4l-31-141c-2 0-3 1-5 1-8 3-12 11-10 20z m322-20c-1-1-3-2-5-3-2-1-4-2-6-4-2-1-3-3-4-5-2-2-3-3-4-4-6-2-13-3-20-3-6-1-12-2-17-3-6-2-12-4-17-6-7-2-13-4-20-5-6-2-13-1-20-1-6 0-12 0-18 0-5 0-11-2-17-3-7-1-13-2-20-2-7 0-13 1-20 2-6 1-12 3-17 3-6 0-12 0-18 0-7 0-14-1-20 1-7 1-13 3-20 5-5 2-11 4-17 6-5 1-11 2-17 3-7 0-14 1-20 3-1 1-2 2-4 4-1 2-2 4-4 5-2 2-4 3-6 4-2 1-4 2-5 3 0 1 0 3 0 5 1 2 1 4 0 7 0 0 0 0 0 0 0 0 0 0 0 0 0 2 1 4 2 5 0 1 0 1 1 1-1-12 6-24 18-28 48-15 97-23 147-23 50 0 99 8 147 23 12 4 19 16 18 28 1 0 1 0 1-1 1-1 2-3 2-5 0 0 0 0 0 0 0 0 0 0 0 0-1-3-1-5 0-7 0-2 0-4 0-5z"/>
<glyph glyph-name="panties" unicode="&#57381;" d="M512 240l-43 189c-1 3-4 5-6 4-137-15-277-15-414 0-2 1-5-1-6-4l-43-189c0-2 0-4 2-5l194-155c1-1 2-1 3-1l114 0c1 0 2 0 3 1l194 155c2 1 2 3 2 5z m-490-7l32 0c69 0 127-48 141-112l-32 0z m175-82l118 0c-8-19-13-39-13-61l-92 0c0 22-5 42-13 61z m261 82l32 0-141-112-32 0c14 64 72 112 141 112z m0 12c-60 0-111-34-138-83l-128 0c-27 49-78 83-138 83l-41 0 33 146c70-7 140-10 210-10 70 0 140 3 210 10l33-146z m-405 176c135-14 271-14 406 0l4-19c-137-13-277-13-414 0z m124-312l20 0c1-5 1-11 1-17z m137-17c0 6 0 12 1 17l20 0z"/>
<glyph glyph-name="panties-1" unicode="&#57382;" d="M512 298l-17 73c-1 3-3 5-6 5-155-17-311-17-466 0-3 0-5-2-6-5l-17-73c0-3 1-5 3-6l25-12c67-32 125-80 167-141 1-2 2-3 4-3l114 0c2 0 3 1 4 3 42 61 100 109 167 141l25 12c2 1 3 3 3 6z m-27 66l2-8c-153-15-309-15-462 0l2 8c152-16 306-16 458 0z m-462-19c77-8 155-12 233-12 78 0 156 4 233 12l10-43-76 0c-35 0-68-14-91-40-15-16-26-37-30-59l-92 0c-4 22-15 43-30 59-23 26-56 40-91 40l-76 0z m189-153l88 0c-1-8-1-16 0-23l2-21-92 0 2 21c1 7 1 15 0 23z m-179 98l-2 1 58 0c31 0 61-13 83-36 21-23 31-54 29-85l-2-18c-42 59-100 107-166 138z m280-138l-2 18c-2 31 8 62 29 85 22 23 52 36 83 36l58 0-2-1c-66-31-124-79-166-138z"/>
<glyph glyph-name="pants" unicode="&#57383;" d="M337 508c-1 3-4 4-6 4-49-11-101-11-150 0-2 0-5-1-6-4-25-66-7-173 3-237 4-22 7-39 7-46-1-31 10-209 11-216 0-2 1-4 3-5 14-5 29-5 43 0 2 1 3 3 3 5l8 200c0 0 0 0 0 0-3 28 0 82 3 127 3-45 6-99 3-127 0 0 0 0 0 0l8-200c0-2 1-4 3-5 7-3 14-4 22-4 7 0 14 1 21 4 2 1 3 3 3 5 1 7 12 185 11 216 0 7 3 24 7 46 10 64 28 171 3 237z m1-58c-15 0-27 10-31 24 9 1 18 2 27 4 2-9 3-18 4-28z m-154 50c47-10 97-10 144 0 1-3 3-7 4-11-50-11-102-11-152 0 1 4 3 8 4 11z m67-30c2 0 3 0 5 0 2 0 3 0 5 0l0-32-10 0z m-73 8c9-2 18-3 27-4-4-14-16-24-31-24 1 10 2 19 4 28z m28-465c0 2 0 4 0 6 4 0 9-1 13-1 5 0 10 1 15 1l0-6c-9-3-19-3-28 0z m72 0l0 6c5 0 10-1 15-1 4 0 9 1 13 1 0-2 0-4 0-6-9-3-19-3-28 0z m45 260c-4-23-7-40-7-49 1-24-6-145-9-194-10-1-20-1-30 1l-7 178c5 52-8 193-9 199 0 3-2 5-5 5-3 0-5-2-5-5-1-6-14-147-9-199l-7-178c-10-2-20-2-30-1-3 49-10 170-9 194 0 9-3 26-7 49-7 44-18 109-16 166 21 0 38 14 43 33 8-1 16-1 24-2l0-37c0-3 2-6 5-6l22 0c3 0 5 3 5 6l0 37c8 1 16 1 24 2 5-19 22-33 43-33 2-57-9-122-16-166z"/>
<glyph glyph-name="polo" unicode="&#57384;" d="M483 307c-17 128-59 150-61 151 0 0-1 0-1 0l-94 24-17 27c-1 2-3 3-5 3l0 0-98 0 0 0c-2 0-4-1-5-3l-17-27-94-24c0 0-1 0-1 0-2-1-44-23-61-151 0-1 0-3 1-4l2-5 0-15c0-3 3-6 6-6l68-5c0 0 0 0 1 0 2 0 4 2 5 4l4 11 0-269c0-3 2-5 5-6 45-8 90-12 135-12 45 0 90 4 135 12 3 1 5 3 5 6l0 269 4-11c1-2 3-4 5-4 1 0 1 0 1 0l68 5c3 0 6 3 6 6l0 15 2 5c1 1 1 3 1 4z m-12 0l-1-1-69-6-2 2-3 18c0 8 6 87 25 124 11-10 37-42 50-137z m-165 186l12-17c0-6-1-27-15-42l-34 11c10 8 27 24 37 48z m-50-44c-8 6-29 23-41 51l82 0c-12-28-33-45-41-51z m-9-16l9 3 9-3 0-76-18 0z m-53 43l12 17c10-24 27-40 37-48l-34-11c-14 15-15 36-15 42z m-103-32c19-37 25-116 25-124l-3-18-2-2-69 6-1 1c13 95 39 127 50 137z m-47-156l0 6 61-5-2-5z m340-265c-85-15-171-15-256 0l0 293c0 0 0 5 0 7-1 17-7 88-27 126l82 21c0-11 4-32 21-47 1-1 2-1 4-1 0 0 1 0 1 0l26 8 0-79c0-3 3-6 6-6l30 0c3 0 6 3 6 6l0 79 26-8c0 0 1 0 1 0 2 0 3 0 4 1 17 15 21 36 21 47l82-21c-19-37-26-108-27-125 0-3 0-9 0-9z m25 261l-2 5 61 5 0-6z m-153 141c-2 0-3-1-4-2-1-1-2-2-2-4 0-2 1-3 2-4 1-1 2-2 4-2 2 0 3 1 4 2 1 1 2 2 2 4 0 2-1 3-2 4-1 1-2 2-4 2z m0-25c-2 0-3 0-4-1-1-1-2-3-2-5 0-1 1-3 2-4 1-1 2-1 4-1 2 0 3 0 4 1 1 1 2 3 2 4 0 2-1 4-2 5-1 1-2 1-4 1z m0-24c-2 0-3-1-4-2-1-1-2-2-2-4 0-2 1-3 2-4 1-1 2-2 4-2 2 0 3 1 4 2 1 1 2 2 2 4 0 2-1 3-2 4-1 1-2 2-4 2z m18 110c0 3-3 6-6 6l-24 0c-3 0-6-3-6-6 0-3 3-6 6-6l24 0c3 0 6 3 6 6z m96-109l-67 0c-3 0-5-3-5-6l0-21c0-3 2-6 5-6l67 0c4 0 6 3 6 6l0 21c0 3-2 6-6 6z m-5-21l-56 0 0 9 56 0z"/>
<glyph glyph-name="pullover" unicode="&#57385;" d="M392 424c-6 22-20 26-37 32-6 2-12 4-19 7-17 8-28 17-33 23-2 2-4 5-5 7-2 5-6 10-11 12-10 5-20 7-31 7-11 0-21-2-31-7-5-2-9-7-11-12-1-2-3-5-5-7-5-5-16-15-33-23-7-3-13-5-19-7-17-6-31-10-37-32-7-26-29-350-30-364-1-2 2-5 4-5l43-6c0 0 1 0 1 0 1 0 2 0 3 1 1 1 2 2 2 4l26 216c3-14 5-25 6-32 3-14 0-27-4-47-7-33-18-83-18-186 0-3 3-5 6-5l194 0c3 0 6 2 6 5 0 103-11 153-18 186-4 20-7 33-4 47 1 7 3 18 6 32l26-216c0-2 1-3 2-4 1-1 2-1 3-1 0 0 1 0 1 0l43 6c2 0 5 3 4 5-1 14-23 338-30 364z m-93 50c7-6 16-13 29-19-2-27-14-194-58-241-5-1-9-5-11-10l-6 2c2 13 5 26 8 38 14 44 24 93 31 146 4 36 6 66 7 84z m-23-274l0-123-7 0 0 123c0 2 2 3 3 3 2 0 4-1 4-3z m-18-7l0-10-73 26c1 3 1 6 2 9z m-34 270c21 4 43 4 64 0-1-18-3-43-7-72-6-45-14-87-25-126-22 80-29 158-32 198z m6 32c8 4 17 6 26 6 9 0 18-2 26-6 4-2 7-6 7-11 0-3 0-6-1-10-21 4-43 4-64 0-1 4-1 8-1 10 0 0 0 0 0 0 0 0 0 1 0 1 0 4 3 8 7 10z m-17-21c2-39 9-134 37-229-3-11-5-22-7-34-43 49-57 217-59 244 13 6 22 13 29 19z m-108-410l-4 1c1 16 2 33 3 52l5-1z m14-2l-4 1 5 52 5 0z m14-1l-3 0 6 53 3-1z m8 63l-36 4c9 119 21 276 25 293 1 3 3 7 4 9 7-29 18-83 28-127z m3 315c4 3 10 5 17 7 4 1 8 3 12 4 3-34 16-174 53-234l-39 13c0 4 0 7-1 11-6 32-33 156-42 199z m37-250c1 3 2 6 2 9l57-20c-1-4-1-8-1-13l0-109-74 0c3 68 11 106 16 133z m-9-178l-8 0c0 12 1 23 1 34l7 0z m23 0l-12 0 0 34 12 0z m22 0l-11 0 0 34 11 0z m11 0l0 34 11 0 0-34z m22 0l0 34 12 0 0-34z m34 0l-11 0 0 34 11 0z m22 0l-11 0 0 34 11 0z m23 0l-12 0 0 34 12 0z m19 0l-8 0 0 34 7 0c0-11 1-22 1-34z m-1 45l-97 0 0 109c0 3 0 6 0 10l8-3 0-100c0-3 3-6 6-6l17 0c3 0 6 3 6 6l0 24 12 0c3 0 5 2 5 5l0 83 25 13c0-3 1-6 2-8 5-27 13-65 16-133z m-60 131l0 9 38 20c1-2 1-5 2-8z m6-9l0-71-6 0 0 67z m33 62c-1-4-1-8-1-12l-40-21c-1 1-2 3-3 4 42 53 54 203 57 239 4-1 8-3 12-4 7-2 13-4 17-7-9-43-36-167-42-199z m24 63c10 44 21 98 28 127 1-2 3-6 4-9 4-17 16-174 25-293l-36-4z m29-242l-6 52 3 1 6-53z m14 1l-6 53 5 0 5-52z m14 2l-4 52 5 1c1-19 2-36 3-52z"/>
<glyph glyph-name="shirt" unicode="&#57386;" d="M378 125c-10 42-10 86-2 128 8 38 10 76 12 96 0 2 0 4 0 5 0 2 0 3-1 4-29 32-25 130-25 131 0 2-1 4-3 5l-32 17c-1 1-3 1-5 1-42-15-90-15-132 0-2 0-4 0-5-1l-32-17c-2-1-3-3-3-5 0-1 4-99-25-131-1-1-1-2-1-4 0-1 0-3 0-5 2-20 4-58 12-96 8-42 8-86-2-128-11-46-17-81-17-103 0-3 2-5 5-6 44-11 89-16 134-16 45 0 90 5 134 16 3 1 5 3 5 6 0 22-6 57-17 103z m-59 374c0-8 1-18 0-29-8-8-39-37-42-78-14-4-28-4-42 0-3 41-34 70-42 78-1 11 0 21 0 29 41-13 85-13 126 0z m0-46c-2-17-4-33-10-41-4-6-11-11-20-16 3 26 19 46 30 57z m-96-57c-9 5-16 10-20 16-6 8-8 24-10 41 11-11 27-31 30-57z m-94-370c0 22 6 55 16 96 10 44 11 90 2 133-8 37-10 75-11 95 0 1 0 2 0 2 27 34 26 115 25 134l21 11c-1-22-2-71 11-91 6-9 15-16 27-21 11-5 24-7 36-7 12 0 25 2 36 7 12 5 21 12 27 21 13 20 12 69 11 91l21-11c-1-19-2-100 25-134 0 0 0-1 0-2-1-20-3-58-11-95-9-43-8-89 2-133 10-41 16-74 16-96-83-20-171-20-254 0z"/>
<glyph glyph-name="shirt-1" unicode="&#57387;" d="M483 393l-34 63c-9 16-23 28-41 33l-70 23c-2 0-3 0-5-1-49-23-105-23-154 0-2 1-3 1-5 1l-70-23c-18-5-32-17-41-33l-34-63c-1-2-1-4 0-6 1-2 25-42 78-48 3 0 6 2 7 4l1 4c6-36 18-104 18-123-2-26-26-194-26-195-1-3 1-6 4-7 47-15 96-22 145-22 49 0 98 7 145 22 3 1 5 4 4 7 0 1-24 169-26 195 0 19 12 87 18 123l1-4c1-2 4-4 7-4 53 6 77 46 78 48 1 2 1 4 0 6z m-45 57l25-45c-6-8-26-30-60-37l-1 3c9 53 11 88 10 104 11-6 21-14 26-25z m-220-18c19-13 36-16 37-16 0 0 1 0 1 0 0 0 1 0 1 0 1 0 18 3 37 16 16 11 37 31 46 67l6-2c-10-37-32-58-49-70-20-13-38-17-39-17l-2 0-2 0c-1 0-19 4-39 17-17 12-39 33-49 70l6 2c9-36 30-56 46-67z m109 64c-7-23-20-41-40-54-14-10-27-14-31-14-8 1-54 15-71 68 22-9 47-14 71-14 24 0 49 5 71 14z m-253-46c5 11 15 19 26 25 0-16 1-51 10-104l-1-3c-34 7-54 29-60 37z m-33-60l2 4c9-11 30-31 62-37l-1-5c-37 6-57 30-63 38z m78-358c1 2 1 6 2 10 44-13 89-20 135-20 46 0 91 7 135 20 1-4 1-8 2-10-90-27-184-27-274 0z m249 192c1-21 15-122 22-171-44-12-89-19-134-19-45 0-90 7-134 19 7 49 21 150 22 171 1 23-15 109-20 138-1 6-4 19-4 23-9 51-9 83-9 94l44 14c11-40 35-63 54-76 21-14 40-18 43-19 0 0 4 0 4 0 0 0 4 0 4 0 3 1 22 5 43 19 19 13 43 36 54 76l44-14c0-11 0-44-9-96-1-3-3-15-4-20-5-28-21-116-20-139z m40 128l-1 5c32 6 53 26 62 37l2-4c-6-8-26-32-63-38z"/>
<glyph glyph-name="shirt-2" unicode="&#57388;" d="M428 333c0 2-1 4-3 5-56 30-34 153-34 154 0 3-1 6-4 6l-52 14c-2 0-4 0-5-1-1-1-1-1-2-2 0-1 0-2 0-2-10-32-39-52-72-52-33 0-61 20-72 52 0 0 0 2 0 2-1 1-1 1-2 2-1 1-3 1-5 1l-52-14c-3 0-4-3-4-6 0 0 6-32 4-67-1-31-9-71-38-87-2-1-3-3-3-5l-2-327c0-2 1-3 2-4 1-1 2-2 4-2l336 0c2 0 3 1 4 2 1 1 2 2 2 4z m-172 111c29 0 54 13 70 35-3-27-10-70-33-93-10-10-22-15-37-15-15 0-27 5-37 15-23 23-30 66-33 93 16-22 41-35 70-35z m-123 45l40 10c1-22 6-88 38-120 12-13 28-19 45-19 17 0 33 6 45 19 32 32 37 98 38 120l40-10c-4-25-16-127 38-159l1-299-324 0 1 299c54 32 42 134 38 159z m-39-478l0 9 324 0 0-9z"/>
<glyph glyph-name="shirt-3" unicode="&#57389;" d="M511 315l-87 133c-1 1-1 2-2 2 0 0-123 56-129 54l-1 0c-23-8-49-8-72 0l-1 0c-6 2-129-54-129-54-1 0-1-1-2-2l-87-133c-2-2-1-5 1-7 1-1 37-37 101-52 2 0 5 1 6 3l17 25 1-257c0-2 2-4 5-5 40-10 82-14 124-14 42 0 84 4 124 14 3 1 5 3 5 5l1 257 17-25c1-2 4-3 6-3 64 15 100 51 101 52 2 2 3 5 1 7z m-88 114l65-100c-17-12-47-32-88-45l-12 19c19 31 30 96 35 126z m-224 55c5-15 19-33 57-33 39 0 52 18 57 33 1 1 1 1 1 2l6-3c0 0 0 0 0-1-11-33-45-38-64-38-19 0-53 5-64 38 0 1 0 1 0 1l6 3c0-1 0-1 1-2z m12 8c0 1 1 2 3 2 0 0 1 0 1 0l1-1c26-8 54-8 80 0l1 1c2 0 4-1 4-2 1 0 2-2 1-4-5-17-21-26-46-26-25 0-41 9-46 26-1 2 0 4 1 4z m-87-189l-12-19c-41 13-71 33-88 45l65 100c5-30 16-95 35-126z m-22-35c-48 12-79 36-89 45l4 6c20-14 50-32 88-45z m271-236c-77-17-157-17-234 0l-2 271c0 0 0 1 0 1-1 1-1 2-2 3-21 32-34 115-36 134l82 38c6-18 23-46 75-46 52 0 69 28 75 46l82-38c-2-19-15-102-36-134-1-1-1-2-2-3 0 0 0-1 0-1z m37 236l-3 6c38 13 68 31 88 45l4-6c-10-9-41-33-89-45z"/>
<glyph glyph-name="shoe" unicode="&#57390;" d="M511 214c-4 18-22 25-32 28-25 6-65 17-81 22-1 0-4 1-7-1-2-2-2-5-3-6 0-2 0-7-17-13-33-12-70-8-90-5-12 2-207 55-256 108-1 1-3 2-4 2-2 0-3-1-4-2-2-2-31-43-9-129l1-29c1-13 12-24 25-24l81 0c1 0 3 1 4 2 1 1 1 3 1 4l-1 30c33-4 78-11 122-25 26-9 54-13 87-13 26 0 55 3 88 8 53 8 78 19 88 25 6 3 9 11 7 18z m-402-38l-75 0c-7 0-13 6-13 13l-1 23c12-2 36-7 55-7 6-1 18-1 33-3z m389 30c-9-6-33-16-83-24-74-11-126-10-170 4-73 24-148 29-170 30-20 1-47 6-57 8-15 61-2 97 4 110 24-22 72-46 142-71 59-21 111-34 115-35 21-4 61-8 96 5 16 6 22 13 24 18 21-5 55-15 77-20 17-4 23-13 25-20 0-2-1-4-3-5z"/>
<glyph glyph-name="shoe-1" unicode="&#57391;" d="M502 194c-29 26-103 39-107 39-2 1-4 0-5-2 0 0-15-17-78-8-41 5-75 52-110 102-22 30-44 61-70 86-43 41-62 58-62 58-2 2-5 2-7 1-1-1-25-18-43-53-17-33-32-87-6-162 17-49 41-198 41-200 0-2 3-4 5-4l93 0c26 0 60-3 94-5 31-3 60-5 80-5 61 0 130 26 156 45 0 0 1 1 1 1 1 1 12 20 20 42 11 31 11 53-2 65z m-490 154c1 23 7 44 17 63 13 25 30 41 37 47 7-7 26-24 58-55 25-24 48-55 69-85 37-52 72-100 117-106 58-8 79 4 86 10 14-3 75-15 98-36 8-8 8-21 5-35-49-16-115-24-177-23-46 1-57 16-79 44-15 19-33 44-70 73-61 49-126 72-162 81 0 8 0 15 1 22z m13-89c-7 19-11 37-13 55 36-10 97-32 154-78 36-28 54-52 68-71 23-29 36-47 88-48 4 0 9 0 14 0 56 0 114 8 160 21-2-5-4-9-6-14-26-18-105-52-163-52-19 0-49 2-80 4-33 3-68 5-94 5-15 0-30 0-44 0-20 1-36 1-47 0-8 45-24 139-37 178z m302-207c-19 0-49 2-80 5-33 2-68 5-94 5l-88 0c0 2-1 5-1 8 10 1 26 1 45 0 14 0 29 0 44 0 26 0 60-2 94-5 31-2 60-4 80-4 52 0 120 26 155 45-2-5-5-9-7-12-25-18-90-42-148-42z"/>
<glyph glyph-name="shoe-2" unicode="&#57392;" d="M496 225c-24 16-44 16-84 12-39-5-124 20-148 39-20 16-65 75-83 99-6 9-16 13-26 13l-9 11c-4 5-9 8-15 8-6 0-12-2-16-6l-17-17c-22 1-37 6-46 10-6 3-14 3-20-1-6-4-10-11-10-18 1-37 0-104-11-141-11-35-14-69-8-103 0-1 0-2 0-2 0-3 2-4 4-5 51-9 127-19 229-19 34 0 71 1 111 4l2 0c60 4 110 18 149 43 7 4 11 11 12 19 3 15 5 42-14 54z m-10-6c-4-4-12-12-28-20-10-5-22-9-34-13-5 10-6 29-6 41 35 3 50 2 68-8z m-118-4l3 13c2 0 4 0 6-1l-2-13c-1-1-1-2-2-3 0 0-1 0-2 0-2 0-3 2-3 3 0 0 0 0 0 1z m-43 5l8 17c2-1 5-2 7-2l-10-18c0-1-1-1-1-1-1-1-2-1-3 0-1 0-2 2-2 3 0 0 0 1 1 1z m-24 27l-18-20c-1-2-3-2-5-1 0 1-1 2-1 3 0 1 1 1 1 2l16 18c2-1 4-1 7-2z m-36 16l-22-18c-2-1-4-1-5 0-1 1-1 2-1 2 0 1 1 2 2 3l20 16c2-1 4-2 6-3z m-14 11l-19-16c-3-2-5-6-5-11 0-3 1-6 3-8 2-4 6-6 11-6 3 0 6 1 8 3l26 21c3-1 6-2 9-4l-14-15c-2-2-3-6-3-9 0-4 1-8 4-11 3-2 6-3 10-3 0 0 0 0 0 0 4 0 8 2 10 5l21 23c3-1 7-2 11-4l-8-14c-1-2-1-4-1-6 0-5 2-10 7-13 2-1 4-1 7-1 1 0 2 0 4 0 3 1 6 4 8 7l10 20c4 0 7-1 10-2l-2-13c0-1 0-2 0-3 0-7 4-12 11-14 1 0 2 0 3 0 2 0 5 1 7 3 4 2 6 5 6 9l3 14c7 0 13-1 19 0 0-8 1-23 4-35-27 1-119 6-167 31-49 26-99 125-112 152 8 1 15 2 21 3 3 0 6 0 9-1l-7-3c-5-3-8-8-8-13 0-2 0-4 1-6 3-5 8-8 13-8 2 0 4 1 6 2l16 7c3-4 7-10 11-15l-16-8c-5-3-8-7-8-13 0-2 0-4 1-6 3-5 8-8 13-8 2 0 4 1 6 2l22 11c3-5 7-9 10-13l-20-12c-4-3-7-7-7-12 0-3 1-5 2-8 2-3 5-5 9-6 1 0 2 0 3 0 3 0 5 0 7 2l25 15c4-4 7-8 10-10z m-79 95c1-2 3-3 4-5l-14-7c-1-1-3 0-4 2 0 0 0 1 0 1 0 1 0 2 2 3l12 6c0 0 0 0 0 0z m29-38c1-1 3-3 4-5l-20-10c-1 0-3 0-4 2 0 0 0 1 0 1 0 1 0 3 1 3z m28-34c2-2 3-4 5-5l-23-14c-1 0-2-1-3 0 0 0-1 0-2 1 0 1 0 1 0 2 0 1 1 2 2 2z m-107 96c2 2 5 3 8 3 3 0 6-1 7-4l5-6c-10-1-20-2-29-2z m-89-18c0 4 2 7 5 9 3 2 7 2 10 1 22-11 49-13 72-12 4-9 18-36 36-66 29-49 57-81 83-94 47-25 131-31 165-33-37-8-79-12-112-13-157-7-259 15-280 20 1 15 4 29 9 44 12 38 13 107 12 144z m312-231c-157-10-268 3-334 15 0 6 0 12 0 18 22-6 102-22 224-22 18 0 38 0 58 1 20 1 38 3 54 4 0-4-2-9-2-16z m-332-10c-1 5-1 9-2 14 51-9 125-18 225-18 33 0 69 1 107 3 0-4 0-9 0-14-154-9-264 3-330 15z m487 38c-1-4-4-9-8-11-36-23-83-37-138-41 0 18 3 35 5 42 94 12 126 39 135 51 5-6 10-18 6-41z m-313 1c8 0 15 7 15 15 0 9-7 15-15 15-9 0-16-6-16-15 0-8 7-15 16-15z m0 20c2 0 4-2 4-5 0-2-2-4-4-4-3 0-5 2-5 4 0 3 2 5 5 5z m36-20c8 0 15 7 15 15 0 9-7 15-15 15-8 0-15-6-15-15 0-8 7-15 15-15z m0 20c2 0 4-2 4-5 0-2-2-4-4-4-2 0-4 2-4 4 0 3 2 5 4 5z m-128 51c24 0 43 20 43 43 0 24-19 43-43 43-23 0-43-19-43-43 0-23 20-43 43-43z m0 75c18 0 32-14 32-32 0-18-14-32-32-32-17 0-32 14-32 32 0 18 15 32 32 32z"/>
<glyph glyph-name="shoe-3" unicode="&#57393;" d="M512 203l-7 26c-1 2-2 4-5 4l-3 1c-2 11-8 21-17 28-10 8-23 12-36 10-27-3-49-4-66-2-16 1-28 5-42 13-5 3-27 17-34 22-32 20-76 48-79 50-11 6-25 5-33-4-40-39-95-44-159-14-1 0-2 0-3 1-2 1-5 0-7-2-33-45-19-99-14-114l-4-4c-1-1-1-2-1-4l0-41c0-3 2-5 5-5 1-1 97-12 206-14 13-1 25-1 37-1 127 0 214 15 259 44 2 1 3 4 3 6z m-150 50c1 3 1 5 0 8 19-5 47-5 84 0 10 1 19-2 27-8 6-5 11-12 12-21-71-30-163-32-163-32-1 0-1 0-1 0-27-3-76-1-143 6 3 6 16 18 69 28 39 7 82 11 105 12 4 1 8 3 10 7z m-344 51c20-4 97-21 116-21 10 0 25 7 45 21 17 12 39 11 55-2 21-17 32-27 38-32-27-8-78-5-148 6-49 8-93 18-108 21 0 3 1 5 2 7z m-5-18c28-6 140-32 216-32 23 0 43 2 56 8 1 1 2 2 3 4 0 2 0 4-1 5-1 2-5 7-46 40-20 16-48 17-68 3-24-17-35-19-39-19-17 0-89 15-112 20 2 3 4 7 6 10 11-5 36-16 66-19 41-3 76 9 104 37 5 5 13 6 19 2 3-2 6-4 9-5l-2-3c-2-2-2-6 0-8 1-1 3-2 4-2 2 0 3 1 4 2l4 4c4-2 7-4 10-6l-2-2c-2-3-2-6 0-9 1-1 3-1 4-1 1 0 3 0 4 1l4 5c4-2 7-4 10-6l-2-3c-3-2-3-6 0-8 1-1 2-2 4-2 1 0 3 1 4 2l4 4c3-2 7-4 10-6l-2-3c-3-2-3-6 0-8 1-1 2-2 4-2 1 0 3 1 4 2l4 4c20-13 39-25 53-35l2-2c0 0 0 0 0 0-23-2-66-5-106-13-49-9-75-22-79-38-9 1-18 2-28 3-57 7-107 14-120 16-3 9-9 33-5 60z m0-108l0 34 3 3c25-4 183-28 273-28 13 0 24 0 33 1 7 0 97 3 169 34 1 1 1 1 2 1 1-1 2-1 2-2l4-17c-109-65-441-31-486-26z m221 42c-1 0-3 0-4-1-1-1-1-3-1-4 0-2 0-3 1-5 1-1 3-1 4-1 2 0 3 0 5 1 1 2 1 3 1 5 0 1 0 3-1 4-2 1-3 1-5 1z m108 8c0 0 0 0 0 0 3 0 6 3 5 6 0 3-3 6-6 5-3 0-5-3-5-6 0-3 3-5 6-5z m-27-4c0 0 0 0 1 0 3 1 5 4 4 7 0 3-3 5-6 5-3-1-6-4-5-7 0-3 3-5 6-5z m-27-4c0 0 0 0 1 0 3 0 5 3 4 7 0 3-3 5-6 4-3 0-5-3-5-7 1-2 3-4 6-4z m-27-5c0 0 1 0 1 0 3 0 5 3 5 7-1 3-4 5-7 4-3-1-5-4-5-7 1-3 3-4 6-4z m108 15c1 0 3 0 4 1 1 1 2 3 2 4 0 2-1 3-2 4-1 2-3 2-4 2-2 0-3 0-4-2-1-1-2-2-2-4 0-1 1-3 2-4 1-1 2-1 4-1z"/>
<glyph glyph-name="short-dress" unicode="&#57394;" d="M358 422c0 3-1 5-2 6-6 4-11 7-17 9l11 65c0 3-2 6-5 7l-20 3c-1 0-3 0-4-1-1-1-2-2-2-4l-12-68c-5-2-9-3-14-6l-37-19-37 19c-5 3-9 4-14 6l-12 68c0 2-1 3-2 4-1 1-3 1-4 1l-20-3c-3-1-5-4-5-7l11-65c-6-2-11-5-17-9-1-1-2-3-2-6l17-80c6-28 5-58-3-85-9-26-13-53-13-80 0-68 17-163 17-164 1-2 2-4 4-4 26-6 53-9 80-9 27 0 54 3 80 9 2 0 3 2 4 4 0 1 17 96 17 164 0 27-4 54-13 80-8 27-9 57-3 85z m-29 78l9-1-10-60c-3 1-6 1-9 1z m-31-77c15 8 34 7 48-2l-10-46c-3-17-17-30-33-33-1 0-1 0-2 0-17-2-34 12-39 17l0 7 19-5c0-1 1-1 1-1 3 0 5 2 5 4 1 3 0 6-3 7l-22 7 0 3 21 7c3 1 5 4 4 7-1 3-4 5-7 4l-18-6 0 12z m-124 76l9 1 10-60c-3 0-6 0-9-1z m-8-78c14 9 33 10 48 2l36-18 0-12-18 6c-3 1-6-1-7-4-1-3 1-6 4-7l21-7 0-3-22-7c-3-1-4-4-3-7 0-2 2-4 5-4 0 0 1 0 1 1l19 5 0-7c-5-5-22-19-39-17-1 0-1 0-2 0-16 3-30 16-33 33z m179-244c0-60-13-140-16-158-48-10-98-10-146 0-3 18-16 98-16 158 0 26 3 52 11 77 9 28 11 59 5 89 7-6 15-10 24-12 1 0 2 0 2 0 2 0 4-1 6-1 18 0 34 12 41 19 8-7 27-21 47-18 0 0 1 0 2 0 9 2 17 6 24 12-6-30-4-61 5-89 8-25 11-51 11-77z"/>
<glyph glyph-name="shorts" unicode="&#57395;" d="M461 421l-5 45c0 2-1 3-2 4-1 1-3 1-4 1-64-13-129-20-194-20-65 0-130 7-194 20-1 0-3 0-4-1-1-1-2-2-2-4l-5-45c-4-10-51-156-51-350 0-1 1-3 2-4 1-1 10-7 44-13 45-8 113-13 198-13 0 0 0 0 0 0 3 0 5 2 5 5l7 58 7-58c0-3 2-5 5-5 0 0 0 0 0 0 85 0 153 5 198 13 34 6 43 12 44 13 1 1 2 3 2 4 0 194-47 340-51 350z m-101-18c5-20 16-39 31-52 18-15 40-23 63-23 6 0 13 0 19 2 1-4 2-7 2-10-7-2-14-2-21-2-26 0-50 9-70 25-17 16-29 36-34 59 4 0 7 0 10 1z m111-62c-6-1-11-2-17-2-20 0-40 7-55 20-14 12-23 28-27 45 26 3 53 7 79 13 2-7 10-34 20-76z m-215 99c64 0 127 6 190 19l3-31c-48-10-97-16-145-19-2 2-3 3-5 4l-24 11 19 3c3 1 5 4 5 7 0 3-3 5-6 4l-37-5-37 5c-3 1-6-1-6-4 0-3 2-6 5-7l19-3-24-11c-2-1-3-2-5-4-48 3-97 9-145 19l3 31c63-13 126-19 190-19z m44-47c0-5-5-9-10-9-4 0-8 2-9 5l-4 8c7 0 14 1 22 1 0-1 1-3 1-5z m-87 5c8 0 15-1 22-1l-4-8c-1-3-5-5-9-5-5 0-10 4-10 9 0 2 1 4 1 5z m18 11l13 6-3-7c-4 0-7 1-10 1z m37 6l13-6c-3 0-6-1-10-1z m-106-13c-5-23-17-43-34-59-20-16-44-25-70-25-7 0-14 0-21 2 0 3 1 6 2 10 6-2 13-2 19-2 23 0 45 8 63 23 15 13 26 32 31 52 3-1 6-1 10-1z m-101 15c26-6 53-10 79-13-4-17-13-33-27-45-15-13-35-20-55-20-6 0-11 1-17 2 10 42 18 69 20 76z m-9-353c-25 5-36 9-41 11 0 1 0 3 0 5 7-3 18-6 35-9 44-8 111-12 193-13l0-6c-100 1-157 7-187 12z m210 90l0 59c0 3-3 6-6 6-3 0-6-3-6-6l0-59-9-84c-169 1-219 17-229 22 1 85 11 160 22 217 8-2 16-3 24-3 28 0 56 10 77 29 20 17 33 40 38 66 10-1 19-2 29-2-1-2-1-4-1-6 0-11 10-21 21-21 8 0 16 5 19 12l7 13c1 0 1 0 2 0l0-39c0-3 3-6 6-6 3 0 6 3 6 6l0 39c1 0 1 0 2 0l7-13c3-7 11-12 19-12 11 0 21 10 21 21 0 2 0 4-1 6 10 0 19 1 29 2 5-26 18-49 38-66 21-19 49-29 77-29 8 0 16 1 24 3 11-57 21-132 22-217-4-2-16-6-40-10-30-5-87-12-189-12z m198-90c-30-5-87-11-187-12l0 6c82 1 149 5 193 13 17 3 28 6 35 9 0-2 0-4 0-5-5-2-16-6-41-11z"/>
<glyph glyph-name="skirt" unicode="&#57396;" d="M472 117c0 1-58 88-58 239 0 79-30 109-40 117l0 33c0 2-1 4-3 5-1 1-3 1-5 1-70-25-148-25-218 0-2 0-4 0-6-1-1-1-2-3-2-5l0-32c-8-5-42-34-42-118 0-79-16-140-29-177-14-40-29-62-29-62-2-2-1-6 1-8 1-1 23-20 47-22-3-6-6-11-9-15 0-2-1-3 0-5 0-1 1-3 3-4 1 0 31-16 55-19-2-3-3-6-5-10-1-1-1-3 0-5 1-1 2-3 4-3 1-1 37-11 70-12l0-1c0-2 2-5 5-6 14-5 30-7 46-7 15 0 31 2 46 7 3 1 4 4 4 6l0 1c33 1 68 11 69 12 2 0 3 2 4 3 1 2 1 4 0 5-2 4-3 7-5 10 24 3 54 19 55 19 2 1 3 3 3 4 1 2 0 3 0 5-3 4-6 9-9 15 24 2 46 21 47 22 2 2 3 6 1 8z m-110 381l0-24c-68-22-142-22-210 0l0 24c68-22 142-22 210 0z m-309-383c5 9 16 29 27 60 14 38 30 100 30 181 0 73 27 101 35 107 6-2 11-3 16-5-7-15-26-56-30-111l0-3c-3-60-10-176-38-245-16 0-33 10-40 16z m40-44c38 68 46 205 50 272l1 3c3 56 24 98 29 109 7-2 14-3 21-4-6-17-18-65-17-120 2-62-8-200-35-275-17 1-39 10-49 15z m53-35c18 39 29 99 34 145 8 62 10 120 9 150-1 55 12 103 17 118 9-1 18-2 27-3l-26-420c-23 1-49 7-61 10z m73-19l26 429c8-1 16-1 24 0l26-429c-25-7-52-7-76 0z m87 9l-25 420c8 1 17 2 25 3 5-15 18-63 17-118-1-30 1-88 9-150 5-46 16-106 34-145-12-3-37-9-60-10z m64 30c-27 75-37 213-35 275 1 55-11 103-17 120 7 1 14 2 21 4 5-11 26-53 29-109l1-3c4-67 12-204 50-272-10-5-32-14-49-15z m49 43c-28 69-35 185-38 245l0 3c-4 55-23 96-30 111 5 2 10 3 16 5 3-3 10-9 16-20 15-28 19-63 19-87 0-81 16-143 30-181 11-31 22-51 27-60-7-6-24-16-40-16z"/>
<glyph glyph-name="snow-boot" unicode="&#57397;" d="M511 142c-1 10-7 18-15 22-1 6-2 13-5 20-7 20-21 33-40 37-11 2-24 3-38 5-39 5-88 11-113 36-4 16-17 29-37 36-52 19-63 81-69 118-2 10-3 19-5 24-1 2-2 3-4 4-24 2-61-2-112-12-38-8-69-17-69-17-3 0-4-3-4-6 0-1 19-91 18-120 0-7-1-16-2-25 0 0 0 0 0 0l-1-5c-4-32-9-73 2-98-2-1-4-2-6-4-3-4-5-8-5-14l1-43c0-8 6-15 14-15l115-7c3 0 5 1 6 4l6 27c10 0 38-1 67-11 8-3 15-10 16-19 1-2 2-4 5-4 1-1 32-7 79-7 3 0 6 0 9 0 47 1 118 9 183 45 3 2 5 6 5 10z m-215 69c5 13 7 24 7 35 28-21 73-26 109-31 14-1 26-3 37-5 15-3 26-13 32-29 3-9 4-18 4-23-8-3-34-15-98-30-77-18-152 1-189 14-55 19-138 21-165 21-2 0-4 0-5 0-9 17-8 47-5 74l3 0c0 0 1 0 1 0 3 0 5 1 5 4 1 3-1 6-4 6l-3 1c0 3 0 6 1 9l264-49c3-1 5 1 6 3z m-116 222c1-3 1-7 2-11l-19 4c-3 1-6-1-7-4 0-3 1-6 4-6l24-6c2-9 4-19 6-30l-18-4c-3 0-5-3-4-6 0-2 3-4 5-4 1 0 1 0 1 0l19 3c2-7 5-14 7-20l-15-6c-3-1-4-4-3-7 1-2 3-3 5-3 1 0 1 0 2 0l16 6c4-8 9-15 14-22l-13-10c-2-2-2-5 0-8 1-1 2-2 4-2 1 0 2 1 3 2l13 10c5-5 12-10 18-14l-12-12c-3-2-3-6 0-8 1-1 2-1 3-1 2 0 3 0 4 1l15 15c2-1 4-1 6-2 10-4 17-9 23-16l-11-7c-2-2-3-5-1-7 1-2 3-3 4-3 2 0 3 1 4 1l9 7c2-2 2-5 3-7 2-11 1-23-3-37l-261 49c1 7 2 15 2 20 0 11-2 30-5 49 29 7 75 13 102 15 6 1 12 4 16 9 4 6 6 12 5 18l-8 53c15 1 29 2 41 1z m-52-2l8-53c1-4 0-7-3-10-2-3-5-5-8-5-27-3-73-8-102-15-4 24-9 48-11 58 16 5 69 18 116 25z m196-353c-41 0-73 5-83 6-3 11-12 20-23 24-38 13-74 12-75 12-3 0-5-2-5-5l-6-26-110 6c-3 1-5 3-5 5l0 44c0 2 0 4 2 6 1 1 4 2 6 2 0 0 0 0 1 0 14 0 109 0 168-20 27-10 73-22 126-22 22 0 46 2 70 8 80 19 103 32 103 33 1 0 2 0 2 1 3-3 5-7 5-11l1-18c-63-35-131-44-177-45z m-214 154l-17 3c-3 1-6-1-6-4-1-3 1-6 4-6l17-4c1 0 1 0 1 0 3 0 5 2 5 5 1 3-1 5-4 6z m41-8l-17 4c-3 0-6-2-6-5-1-3 1-5 4-6l17-3c1 0 1 0 1 0 3 0 5 1 5 4 1 3-1 6-4 6z m-82 16l-17 3c-3 0-6-2-6-4-1-3 1-6 4-7l17-3c0 0 1 0 1 0 3 0 5 2 5 4 1 3-1 6-4 7z m164-31l-17 3c-3 1-6-1-6-4-1-3 1-6 4-6l17-3c1-1 1-1 1-1 3 0 5 2 6 5 0 3-2 6-5 6z m64-21c1 0 1 1 2 1 7 2 13 7 16 14 1 3-1 6-3 7-3 1-6 0-7-3-2-4-5-7-9-8-3-1-5-4-4-7 1-2 3-4 5-4z m-23 13l-17 4c-3 0-6-2-6-5-1-3 1-5 4-6l17-3c1 0 1 0 1 0 3 0 5 2 6 4 0 3-2 6-5 6z m-82 16l-17 3c-3 0-6-1-6-4-1-3 1-6 4-7l17-3c1 0 1 0 1 0 3 0 5 2 6 4 0 3-2 6-5 7z"/>
<glyph glyph-name="socks" unicode="&#57398;" d="M347 488c-1 1-2 2-4 2l-96 22c-3 0-5-1-6-4-4-10-6-22-8-34-2-9-3-18-3-28l-22 5c-3 1-6-1-6-4-13-38-15-84-8-136 6-44 5-93 4-112-1-4-2-9-5-12l-20-21c-6-5-9-13-8-21 0-8 3-15 9-20l4-4c14-12 23-30 23-49l1-25c0-22 16-40 37-45 0 0 0 0 0 0l43-2c0 0 0 0 1 0 4 0 7 1 10 4 3 3 5 8 4 13 0 5-3 9-7 11-15 7-19 22-21 38 1-1 3-1 4-1 1-1 3-1 5-2 0 0 0 0 1 0l42-2c0 0 1 0 1 0 4 0 7 1 10 4 4 3 5 8 5 13-1 5-4 9-8 11-8 4-14 10-17 20-3 10-4 21-4 30 0 8 0 15 0 23 0 29 0 58-4 81-1 10-2 19-1 29 3 41 15 101 36 179 2 10 5 21 8 32 1 2 0 3 0 5z m-44-23l5 22 10-2-5-23z m-41 9l4 22 11-2-5-22z m25 18l10-3-5-22-10 2z m-37 8l6-1-5-23-7 2c2 7 4 15 6 22z m40-102l-5 1 5 23 6-2c-2-7-4-14-6-22z m-16 4l-10 2 5 22 10-2z m-21 4l-10 2 5 23 10-2z m-31 7l5 23 10-3-5-22z m-12 26l7-1-5-22-7 1c2 8 3 15 5 22z m-28-306c-4 3-6 8-6 13-1 5 1 9 5 13l9 10c8-6 12-16 11-25 0-8-4-15-9-21-2 2-4 4-6 6z m31-86l-1 26c0 15-5 29-13 41 8 8 12 18 13 29 1 13-5 25-14 34l3 3c4 5 7 11 8 18 0 20 2 70-4 115-5 34-5 65-2 93l84-19c-15-58-30-127-34-175-1-10 0-21 1-32 4-21 4-51 4-79 0-7 0-15 0-23 0-6 0-17 3-28-11-3-26-14-30-33-11 6-18 17-18 30z m72-29c1 0 2-2 2-3 0-1-1-2-2-3 0-1-1-1-2-1l-41 2c2 18 16 25 22 27 4-9 11-17 21-22z m39 61c1-1 2-2 2-3 0-1 0-2-1-3-1-1-2-1-3-1l-41 2c3 17 16 24 23 27 4-10 11-17 20-22z m-32 194c-1-11 0-21 2-32 3-22 3-51 3-79 0-8 0-15 0-23 0-8 1-18 3-28-11-4-26-14-30-33 0 0-1 0-1 0 0 8 0 15 0 23 0 29 0 59-4 81-2 10-2 20-1 29 5 58 27 147 44 212 0 1 0 3-1 4 0 1-2 2-3 2l-63 15c0 8 1 15 2 23l84-19c-20-76-31-135-35-175z m37 186l-5 1 5 22 6-1c-2-8-4-15-6-22z"/>
<glyph glyph-name="socks-1" unicode="&#57399;" d="M509 197c-4 8-11 13-19 14l-53 8c-56 9-106 34-146 73-54 52-127 124-166 170-9 10-16 19-21 26-1 1-2 2-4 2-2 1-4 0-5-1-31-28-91-98-94-101-2-2-1-6 1-8l26-23c-11-10-19-16-20-17-2-2-2-6 0-8l48-59c27-33 40-75 36-117-1-18 5-36 17-49 12-14 28-21 46-22l34-2c42-1 82-14 117-37 26-16 56-24 86-24 26 0 52 6 76 19 9 5 14 15 13 25-1 11-8 19-18 23l-51 16c-30 10-59 25-83 45 4-2 8-3 13-5 20-9 41-14 63-14 25 0 49 6 72 18 9 4 17 10 25 16 10 7 13 21 7 32z m-411 278c4-5 8-10 14-17-28-26-68-72-81-87l-16 14c13 15 56 65 83 90z m20-64c2-6 6-12 10-19-31-22-78-61-93-74l-14 17c15 13 66 55 97 76z m0-296c-10 11-15 25-13 40 0 9 0 18 0 28 29 3 59-12 72-39 8-15 10-32 7-48l-28 1c-15 1-28 7-38 18z m342-38c5-2 9-6 9-12 1-5-2-10-7-13-47-26-104-24-149 5-35 22-76 35-117 38 3 18 1 37-8 54-16 32-50 50-85 46-4 31-17 60-38 85l-23 29c15 12 62 51 93 73 31-51 88-128 135-189 35-47 83-81 138-99z m34 97c-7-5-15-10-23-14-39-20-84-22-125-4-13 6-26 10-40 13-9 10-18 20-27 31-48 64-133 178-154 222 0 2-2 3-3 4-2 0-4 0-5-1-18-12-44-32-66-50 18 20 47 53 69 74 40-46 110-115 162-166 42-40 95-66 153-76l53-8c6-1 9-5 10-7 3-5 3-13-4-18z"/>
<glyph glyph-name="stilettos" unicode="&#57400;" d="M501 165c-8 10-21 17-38 22-46 11-82 15-83 15-2 0-4-1-5-3 0 0-23-36-64-36-5 0-9 0-14 1-41 8-75 81-105 146-9 18-17 35-25 50-38 72-90 126-90 127-2 2-5 2-7 1-1-1-25-15-44-46-18-28-36-75-19-141 32-121 27-269 27-271 0-1 1-3 2-4 1-1 3-2 4-2l19 0c3 0 5 3 6 6l16 219c1 6 5 12 11 14 6 2 13 1 18-4 25-23 57-56 67-80 10-22 28-59 48-91 24-40 43-61 56-64 3 0 8-1 13-1 20 0 52 4 85 12 25 6 47 14 66 22 23 11 41 23 54 36 0 1 1 1 1 2l9 26c6 15 3 32-8 44z m-455-129c0 3 0 8 0 14l9 0-1-14z m24 214l-14-189-10 0c0 51-4 154-28 243-2 8-4 16-5 23 24-15 56-37 77-53 0 0-1 0-2 0-10-4-17-14-18-24z m40 24c-24 19-85 59-98 68-3 34 5 66 23 94 14 21 30 34 37 39 12-13 53-60 85-120 8-15 16-32 24-50 32-67 68-143 114-152 24-4 47 1 67 16 10 8 17 17 20 21 10-1 41-5 79-15 14-3 24-9 32-18 5-5 7-13 8-20-68-34-197-48-230-43-25 3-66 62-86 95-2 4-9 14-10 16-14 20-36 42-54 60-1 1-8 7-11 9z m380-174c-53-53-184-69-207-64-9 1-27 23-49 58-5 9-11 19-16 28 21-24 38-37 51-39 5-1 11-1 19-1 48 0 148 13 210 41z"/>
<glyph glyph-name="stockings" unicode="&#57401;" d="M492 46c-14 4-27 14-35 27-3 5-6 10-10 16-14 25-30 50-45 64-35 61-78 215-90 261-3 13-13 24-26 28l-203 70c-2 0-3 0-5-1-1 0-2-2-3-3l-38-115c0-1 0-3 1-5 1-1 2-2 4-3l140-21-93-118-9 3c-9 3-18 1-25-4-8-5-12-13-12-22-1-18-5-35-12-51l-18-38c-5-11-2-25 7-34 2-2 6-4 10-4 0 0 1 0 1 0 5 1 9 3 11 7l14 24c31 25 56 56 76 90l6 10c6 7 63 61 102 89 6-27 21-65 58-110 26-33 49-74 54-84l-6-29c-1-7 0-14 4-20 4-6 10-10 17-11l5-1c15-2 28-11 37-24l11-18c8-12 21-19 35-19 4 0 9 1 13 2l10 3c10 4 19 13 22 24 3 7-1 14-8 17z m-407 452l28-10-35-96-27 5z m43-262c0-1-1-1-1-2l-6-11c-19-33-44-63-74-87 0-1-1-1-1-2l-15-24c0-1-1-1-1-1 0 0-1 0-2 0-5 5-6 13-3 20l17 38c8 18 13 36 13 55 0 5 3 10 7 13 4 3 9 4 14 2l13-4c3 0 5 0 7 2l100 127 43-6c-1-6-2-15-1-26-42-29-107-92-110-94z m361-203c-3-8-8-13-15-16l-10-3c-12-4-26 0-33 12l-12 17c-10 16-27 27-45 30l-5 1c-3 1-7 3-9 6-2 3-3 7-2 11l7 31c0 1 0 3-1 4-1 2-26 50-57 88-37 45-50 82-54 105-5 25-1 40-1 40 1 2 0 4-1 5-1 2-2 3-4 3l-156 24 34 93 157-53c9-4 16-11 18-21 48-178 80-244 92-264 0 0 1-1 1-1 14-13 29-38 44-62 3-6 7-11 10-17 9-15 24-26 41-32 1 0 1-1 1-1z"/>
<glyph glyph-name="sunglasses" unicode="&#57402;" d="M197 322c-39 8-81 9-124 3-9-1-17-6-23-14-5-7-7-16-5-25 0-4 1-8 2-12 3-15 6-29 10-42 5-18 20-32 39-36l1 0c7-2 15-2 22-2 47 0 90 30 105 76l1 2c4 11 2 22-3 31-5 10-14 16-25 19z m18-46l-1-3c-14-41-52-69-95-69-7 0-13 1-20 2l-1 1c-15 3-27 14-31 28-3 12-7 26-10 42 0 3-1 7-2 11-1 6 1 12 4 17 4 5 9 9 16 9 41 6 82 5 120-3 7-2 14-6 18-13 4-7 4-15 2-22z m-21 30c-22 4-45 6-68 6-6 0-12 0-18 0-3 0-6-3-6-6 1-3 3-5 6-5 6 1 12 1 18 1 23 0 44-3 65-7 3-1 6-2 8-5 1-3 1-6 0-9-1-3 1-6 4-7 0 0 1 0 1 0 3 0 5 1 6 4 2 5 1 12-2 17-3 6-8 9-14 11z m271-32c1 4 2 8 2 12 2 9 0 18-5 25-6 8-14 13-23 14-43 6-85 5-124-3-11-3-20-9-25-19-5-9-7-20-3-31l1-2c15-46 58-76 105-76 7 0 15 0 22 2l1 0c19 4 34 18 39 36 4 13 7 27 10 42z m-20-39c-4-14-16-25-31-28l-1-1c-7-1-13-2-20-2-43 0-81 28-95 69l-1 3c-2 7-2 15 2 22 4 7 11 11 18 13 22 5 45 7 69 7 17 0 34-1 51-4 7 0 12-4 16-9 3-5 5-11 4-17-1-4-2-8-2-11-3-16-7-30-10-42z m-8 74c-17 2-35 3-51 3-7 0-13 0-20 0-3 0-5-3-5-6 1-3 3-5 6-5 6 1 13 1 19 1 16 0 33-1 49-4 2 0 3-1 5-2 1-2 1-4 1-5-1-3 1-6 4-7 0 0 1 0 1 0 3 0 5 2 5 5 1 4 0 9-3 13-3 4-7 6-11 7z m74-137l-42 50c1 2 1 4 2 6 8 28 14 60 15 72l11 0c3 0 5 2 5 5l0 26c0 3-1 5-3 6-100 29-178 13-215 1-18-6-38-6-56 0-37 12-115 28-215-1-2-1-3-3-3-6l0-26c0-3 2-5 5-5l11 0c1-12 7-44 15-72 1-2 1-4 2-6l-42-50c-1-1-1-3-1-4 0-2 1-3 3-4 6-4 12-5 19-5 9 0 19 4 26 11l20 21c7-6 16-9 25-11l1 0c8-2 16-3 25-3 47 0 90 27 113 69l45 6c21-46 67-75 116-75 9 0 17 1 25 3l1 0c9 2 18 5 25 11l20-21c7-7 17-11 26-11 7 0 13 1 19 5 2 1 3 2 3 4 0 1 0 3-1 4z m-471 6c-7-8-17-10-26-7l34 40c3-5 7-9 11-14z m197 79c1 3 2 5 3 7 2 8 5 16 7 21 1 4 5 7 9 7 4 0 8-3 9-7 2-5 5-13 7-21 1 0 1-1 1-2z m180-67l-1 0c-57-11-115 22-133 78-3 8-6 15-8 21-2 8-10 14-19 14-9 0-17-6-19-14-2-6-5-13-8-21-18-56-76-89-133-78l-1 0c-21 5-38 20-44 41-10 35-15 75-15 75-1 3-3 5-6 5l-10 0 0 16c96 28 169 12 204 1 21-7 43-7 64 0 35 11 108 27 204-1l0-16-10 0c-3 0-5-2-6-5 0 0-5-40-15-75-6-21-23-36-44-41z m55-12l-19 19c4 5 8 9 11 14l34-40c-9-3-19-1-26 7z"/>
</font>
</defs>
</svg>
